<svg width="510" height="510" viewBox="0 0 510 510" fill="none" xmlns="http://www.w3.org/2000/svg">
<path d="M0 252.206C0.416596 228.665 3.24489 205.896 10.2494 183.856C39.1252 92.9967 99.2928 32.8408 191.372 8.98983C279.845 -13.9273 359.707 7.30985 427.719 68.8265C471.124 108.086 497.513 157.515 505.911 215.276C518.908 304.677 491.832 381.211 426.051 443.067C386.311 480.437 338.397 501.967 284.045 507.804C203.271 516.479 133.311 492.208 75.2728 435.583C36.1126 397.376 12.1768 350.551 3.55598 296.391C1.2634 281.988 1.10091 267.246 0 252.206ZM288.781 499.919C294.674 498.88 300.614 498.055 306.452 496.769C362.599 484.394 409.366 456.157 445.663 411.73C487.912 360.019 505.925 300.336 500.667 233.681C497.875 198.278 487.562 165.17 470.183 134.303C417.616 40.942 311.587 -8.18218 207.346 12.5335C147.655 24.3959 98.4775 54.1514 60.9624 101.914C14.4429 161.139 -1.67172 228.528 12.1856 302.46C22.4959 357.468 49.1966 403.784 91.5039 440.544C147.979 489.615 213.79 508.717 288.781 499.919Z" fill="#6A79F8"/>
<path d="M288.337 499.95C213.79 508.717 147.979 489.615 91.504 440.544C49.1968 403.784 22.4961 357.468 12.1858 302.46C-1.67157 228.528 14.4431 161.139 60.9625 101.914C98.4776 54.1514 147.655 24.3959 207.346 12.5335C311.587 -8.18219 417.617 40.942 470.183 134.303C487.563 165.17 497.875 198.278 500.667 233.681C505.925 300.336 487.912 360.019 445.663 411.73C409.366 456.157 362.6 484.394 306.452 496.769C300.614 498.055 294.674 498.88 288.337 499.95ZM73.3872 177.626C76.9796 178.925 80.5119 180.465 84.1993 181.382C85.3841 181.677 87.5978 180.707 88.2521 179.645C89.4921 177.632 89.9452 175.135 90.8302 172.53C79.1881 168.126 68.0794 163.923 57.0304 159.743C52.361 168.882 52.3653 168.878 58.7242 175.468C61.2997 178.137 63.8521 180.829 67.0923 184.219C62.1554 184.789 58.3415 185.869 54.6653 185.516C47.6238 184.839 44.8367 188.526 43.651 194.549C43.5591 195.016 43.6389 195.516 43.6389 196.353C54.7331 200.467 65.8818 204.602 77.363 208.86C78.1734 206.803 78.6663 205.042 79.5231 203.48C81.4831 199.909 80.3819 198.104 76.5852 197.063C73.2284 196.143 70.0129 194.708 66.7351 193.5C69.3594 192.079 71.8978 192.227 74.1714 191.522C75.8019 191.016 77.6599 189.63 78.3255 188.146C78.8431 186.993 78.0242 184.859 77.1808 183.563C75.842 181.506 73.9872 179.785 72.487 177.793C72.487 177.793 72.6235 177.665 73.3872 177.626ZM109.316 302.493C119.057 332.14 136.266 356.593 160.912 375.655C194.14 401.353 231.948 411.425 273.467 406.617C304.913 402.976 332.622 390.235 356.242 369.041C386.924 341.51 404.114 306.993 406.957 266.001C409.943 222.944 397.068 184.676 367.819 152.666C332.716 114.247 288.577 97.8975 237.113 103.264C199.681 107.167 167.481 123.331 142.318 151.635C103.465 195.338 92.9105 245.675 109.316 302.493ZM408.259 142.469C405.312 150.44 408.532 160.556 415.866 166.365C422.224 171.4 428.982 171.012 437.854 165.099C447.626 158.587 449.118 149.966 442.305 139.374C435.874 129.375 427.5 127.233 417.783 133.577C414.381 135.797 411.641 139.03 408.259 142.469ZM398.832 89.7782C389.677 85.0819 379.538 93.874 375.238 101.464C371.79 107.548 372.606 113.445 376.883 118.641C381.836 124.657 387.377 130.026 396.276 128.346C397.238 128.164 398.212 127.774 399.052 127.267C406.108 123.004 412.47 117.695 413.008 108.991C413.522 100.668 407.567 95.4975 401.22 91.1119C400.673 90.7343 400.084 90.418 398.832 89.7782ZM364.45 87.4482C367.557 81.6163 370.663 75.7844 373.944 69.6246C370.683 67.7934 367.86 66.2078 364.682 64.4234C362.337 68.5479 360.23 72.2522 357.948 76.2659C354.197 74.2007 350.772 72.3149 347.159 70.3251C349.342 66.1102 351.299 62.3321 353.385 58.3054C350.154 56.6101 347.261 55.0926 344.021 53.3928C338.161 64.2667 332.521 74.732 326.628 85.6664C330.006 87.3981 332.861 88.862 335.999 90.4709C338.399 86.2788 340.511 82.5886 342.696 78.7723C346.516 80.8306 349.96 82.6867 353.567 84.6305C351.306 88.9061 349.324 92.6553 347.225 96.6236C350.525 98.48 353.378 100.085 356.541 101.865C359.187 97.0649 361.655 92.5875 364.45 87.4482ZM124.393 126.51C128.443 122.822 132.685 119.321 136.499 115.404C142.507 109.235 143 102.71 138.117 95.5952C136.444 93.1578 134.301 90.9861 132.12 88.966C127.037 84.2579 120.417 83.1624 114.732 87.0545C108.777 91.132 103.49 96.1862 97.6649 101.018C105.608 110.024 113.033 118.512 120.604 126.867C121.11 127.425 122.732 126.97 124.393 126.51ZM85.1374 151.633C89.3398 154.53 93.5422 157.426 98.1216 160.583C103.53 152.948 108.664 145.701 114.014 138.15C111.608 136.418 109.652 135.009 107.435 133.413C103.951 138.139 100.746 142.486 97.3973 147.029C95.7624 145.819 94.4817 144.871 92.9961 143.772C95.7456 139.595 98.3318 135.667 101.054 131.533C98.6608 129.892 96.7884 128.607 94.5057 127.041C91.5036 131.136 88.7116 134.943 85.7598 138.969C84.0835 137.691 82.7003 136.636 81.2239 135.51C84.5303 130.638 87.562 126.17 90.6921 121.558C88.225 119.801 86.2513 118.396 84.0873 116.855C78.6534 124.583 73.5112 131.897 68.0978 139.596C73.7426 143.577 79.1503 147.391 85.1374 151.633ZM258.089 34.883C256.448 35.0994 254.781 35.1992 253.17 35.5529C246.994 36.909 244.274 39.7115 243.904 44.9448C243.53 50.2433 245.808 53.6738 251.357 55.9722C253.348 56.797 255.569 57.1678 257.408 58.2271C258.906 59.0899 259.99 60.6703 261.258 61.9326C259.711 62.604 258.128 63.9101 256.625 63.824C252.623 63.5946 248.656 62.7657 243.074 61.9377C244.425 65.4869 244.75 69.8414 246.665 70.717C252.455 73.3638 258.916 73.616 265.116 71.3411C269.542 69.7168 272.251 66.6209 272.408 61.6675C272.561 56.8496 270.683 53.2596 266.13 51.3615C263.837 50.4055 261.369 49.8345 259.155 48.7355C257.701 48.0134 256.561 46.659 255.28 45.5879C256.931 44.9196 258.577 43.7121 260.233 43.6976C263.473 43.6693 266.719 44.3068 269.947 44.6672C271.509 36.3919 270.94 35.6106 262.989 35.0304C261.663 34.9337 260.332 34.9219 258.089 34.883ZM207.361 77.2701C211.784 73.4785 206.976 70.7453 206.751 67.3197C200.585 70.3551 195 75.7348 188.467 71.6036C185.783 69.9071 183.478 64.5641 184.019 61.3949C185.586 52.2127 194.412 53.5956 200.989 52.0974C198.692 42.7039 197.482 41.9444 188.653 44.8942C185.687 45.8853 182.675 47.1264 180.121 48.8873C174.467 52.786 171.694 58.3247 173.017 65.2579C174.481 72.9276 177.528 79.5852 185.911 82.0587C193.645 84.3407 200.243 81.2722 207.361 77.2701ZM309.033 79.9753C310.995 79.9753 312.956 79.9753 314.985 79.9753C315.809 76.76 316.494 74.0855 317.304 70.9262C314.824 70.9262 312.828 71.0764 310.865 70.884C308.897 70.691 306.895 70.3581 305.025 69.7337C299.43 67.8652 297.658 64.3107 299.195 58.4687C300.84 52.2214 304.109 49.8929 310.096 51.2869C313.74 52.1354 317.226 53.6627 320.775 54.8823C324.025 46.8185 323.782 46.1494 315.947 43.4004C313.772 42.6374 311.473 42.1115 309.187 41.8026C294.912 39.8739 284.396 51.978 288.291 65.9224C291.078 75.8988 299.35 78.3455 309.033 79.9753ZM52.2258 243.816C49.8358 243.816 47.4459 243.816 44.558 243.816C47.4956 249.035 44.6659 252.164 39.7069 254.987C45.7757 256.895 46.2149 260.957 45.1073 266.339C50.5702 264.182 54.2431 265.577 56.4886 272.341C58.4445 265.25 62.4244 264.504 68.1124 266.342C65.7609 260.375 67.9184 256.944 73.1464 254.094C65.3019 253.358 67.3222 247.959 67.3638 243.046C61.5381 245.939 58.8347 242.609 56.368 238.47C54.9499 240.405 53.8894 241.851 52.2258 243.816ZM468.048 253.846C462.733 252.012 463.638 247.563 464.595 242.496C458.442 246.075 455.54 242.741 452.55 237.283C450.901 244.9 446.458 244.539 440.534 243.029C444.449 249.01 441.561 252.087 436.542 254.8C442.222 257.068 443.488 260.809 441.386 266.096C444.427 265.714 446.66 265.432 448.888 265.152C450.243 267.048 451.487 268.788 453.213 271.203C455.171 265.612 459.02 264.206 465.095 266.523C462.511 260.873 463.828 257.499 468.167 255.332C468.375 255.228 468.393 254.743 468.048 253.846ZM444.722 192.662C450.965 190.711 457.207 188.761 463.668 186.742C462.365 182.965 461.309 179.904 460.181 176.638C448.311 180.294 436.961 183.789 425.354 187.364C427.476 194.303 429.442 200.788 431.442 207.263C433.521 213.992 434.291 214.263 440.859 210.327C439.464 205.435 438.033 200.418 436.55 195.217C439.237 194.363 441.595 193.613 444.722 192.662ZM147.978 79.8431C151.689 86.2176 155.4 92.5922 159.245 99.1962C162.595 97.1755 165.347 95.5158 168.371 93.6925C162.072 82.8566 156.122 72.6224 149.967 62.0341C146.59 64.0861 143.849 65.7521 140.889 67.5511C143.316 71.7789 145.452 75.4997 147.978 79.8431ZM213.267 464.911C213.978 461.441 214.69 457.971 215.631 453.376C217.963 458.597 219.646 462.752 221.702 466.713C222.247 467.763 223.875 468.477 225.145 468.796C225.562 468.901 226.807 467.356 227.004 466.425C228.229 460.61 229.263 454.755 230.54 447.958C222.245 448.811 226.564 456.762 223.004 459.404C218.725 455.405 220.128 447.379 212.676 444.746C211.214 451.953 209.871 458.573 208.348 466.08C210.256 465.904 211.658 465.774 213.267 464.911ZM340.216 448.672C339.756 447.262 339.219 445.871 338.852 444.437C338.195 441.865 338.388 438.558 336.814 436.895C335.471 435.477 332.009 435.264 329.73 435.727C326.576 436.368 323.653 438.142 320.229 439.602C323.017 446.27 325.664 452.599 328.424 459.199C330.043 458.348 331.146 457.77 332.327 457.15C331.61 455.045 330.983 453.201 330.342 451.318C333.028 448.846 335.222 449.518 337.234 451.916C339.156 454.206 341.122 454.724 343.507 452.045C342.529 451.02 341.636 450.083 340.216 448.672ZM178.273 454.06C185.912 461.995 192.67 460.711 196.577 450.585C197.294 448.726 197.937 446.833 198.767 445.026C200.218 441.868 199.3 440.407 195.679 440.484C194.205 444.211 192.759 447.911 191.28 451.598C190.091 454.561 188.033 455.734 184.956 454.426C182.055 453.193 180.941 451.228 182.247 448.064C183.759 444.4 185.042 440.642 186.578 436.513C185.095 435.981 183.847 435.533 181.306 434.62C180.057 441.331 178.934 447.366 178.273 454.06ZM100.751 385.113C97.8086 386.821 95.2534 386.479 93.6358 383.349C92.0412 380.264 93.3396 378.018 96.1075 376.249C98.481 374.732 100.815 373.106 102.93 371.258C103.664 370.617 103.689 369.166 104.037 368.085C102.933 367.871 101.445 367.091 100.787 367.537C97.2247 369.95 93.6487 372.429 90.5004 375.343C87.3483 378.26 87.7685 382.301 91.0363 386.529C94.2871 390.735 98.0579 392.073 101.75 389.785C105.793 387.278 109.553 384.317 113.437 381.553C113.332 380.956 113.227 380.359 113.123 379.761C111.508 379.761 109.623 379.227 108.335 379.875C105.845 381.129 103.692 383.049 100.751 385.113ZM304.098 448.058C304.59 447.972 305.209 448.045 305.55 447.772C306.558 446.961 307.456 446.013 308.398 445.119C307.138 444.884 305.805 444.265 304.631 444.487C300.936 445.186 297.302 446.201 293.406 447.152C295.175 454.286 296.8 460.833 298.482 467.616C302.853 466.559 306.733 465.746 310.518 464.613C311.411 464.346 311.981 463.001 312.7 462.152C311.582 461.838 310.413 461.144 309.357 461.286C306.97 461.607 304.638 462.341 302.377 462.884C300.39 459.124 301.381 457.381 304.934 456.882C305.912 456.744 306.97 456.558 307.783 456.056C308.463 455.636 308.84 454.723 309.351 454.028C308.568 453.64 307.743 452.858 307.009 452.936C304.741 453.175 302.508 453.742 300.304 454.173C298.917 449.605 298.917 449.605 304.098 448.058ZM150.269 428.363C156.772 421.757 155.345 418.346 142.633 410.823C139.062 415.696 135.327 420.526 131.979 425.612C131.401 426.491 132.463 428.449 133.002 431.034C134.78 428.962 135.388 428.193 136.062 427.485C136.711 426.802 137.428 426.183 138.115 425.536C138.121 425.968 138.126 426.4 138.131 426.832C141.966 427.47 145.802 428.109 150.269 428.363ZM350.498 425.503C350.381 427.938 349.354 430.948 350.42 432.636C351.357 434.12 354.604 434.342 356.896 434.694C358.113 434.881 359.475 433.892 360.759 433.927C361.925 433.959 363.074 434.657 364.23 435.061C363.686 436.147 363.415 437.617 362.541 438.238C360.692 439.552 358.528 440.422 355.624 441.923C357.207 442.836 358.738 444.27 359.31 443.956C362.441 442.236 365.688 440.431 368.14 437.919C369.119 436.915 368.857 433.566 367.898 432.123C366.922 430.656 364.465 429.813 362.52 429.466C361.022 429.199 359.323 430.376 357.694 430.441C356.396 430.494 355.069 429.838 353.755 429.496C354.48 428.32 354.963 426.831 355.986 426.042C357.5 424.873 359.397 424.201 361.13 423.318C361.133 422.811 361.135 422.304 361.137 421.798C359.529 421.629 357.722 420.92 356.361 421.421C354.402 422.143 352.768 423.746 350.498 425.503ZM277.114 450.097C275.692 454.712 274.27 459.326 272.749 464.26C268.253 459.88 269.36 451.82 261.96 450.766C264.062 457.251 266.718 463.299 269.69 469.187C271.032 471.846 275.006 471.732 275.918 469C278.043 462.633 279.757 456.128 281.826 449.033C279.822 449.273 278.736 449.403 277.114 450.097ZM415.321 375.532C413.088 375.654 410.812 375.554 408.633 375.967C406.815 376.312 405.11 377.258 402.258 378.363C410.873 380.384 417.754 381.998 425.747 383.872C427.084 382.931 426.68 381.529 424.3 379.486C422.012 377.523 420.146 374.948 418.508 372.379C416.84 369.765 415.676 366.83 414.291 364.035C413.845 364.035 413.4 364.034 412.954 364.033C412.721 365.695 412.013 367.469 412.373 368.99C412.856 371.031 414.165 372.876 415.321 375.532ZM113.894 406.92C111.875 408.756 110.075 410.584 114.371 412.343C118.386 408.634 122.476 404.855 126.566 401.076C129.107 400.937 130.084 407.464 133.785 401.834C131.194 399.554 128.682 397.151 125.96 395.018C124.224 393.658 122.175 392.698 120.267 391.559C120.981 393.596 121.694 395.632 122.772 398.708C120.486 400.814 117.445 403.615 113.894 406.92ZM395.978 392.736C396.235 391.5 396.492 390.265 396.75 389.029C395.644 389.445 394.32 389.606 393.479 390.329C391.594 391.95 389.769 393.712 388.263 395.679C386.919 397.436 386.036 399.546 384.95 401.499C386.887 400.773 388.825 400.047 391.424 399.073C394.991 402.391 399.075 406.191 403.158 409.99C403.728 409.823 404.299 409.656 404.869 409.489C404.631 407.974 404.902 406.033 404.058 405.026C401.72 402.234 398.778 399.953 396.378 397.207C395.591 396.307 395.733 394.597 395.978 392.736ZM243.239 463.862C242.25 471.117 242.25 471.117 247.128 470.231C247.431 467.004 247.862 463.744 248.01 460.47C248.164 457.069 248.044 453.657 248.044 450.249C247.571 449.95 247.098 449.652 246.625 449.353C245.634 450.587 243.998 451.719 243.781 453.078C243.265 456.313 243.419 459.656 243.239 463.862ZM377.794 420.007C379.767 422.41 381.739 424.813 383.876 427.416C385.147 426.455 386.137 425.707 387.409 424.746C383.14 419.523 379.089 414.558 375.017 409.609C374.827 409.379 374.458 409.297 373.905 409.006C373.056 409.748 372.134 410.555 370.981 411.564C373.224 414.346 375.283 416.9 377.794 420.007Z" fill="#FEFEFF"/>
<path d="M109.184 302.12C92.9104 245.675 103.465 195.338 142.318 151.635C167.481 123.331 199.681 107.167 237.113 103.264C288.577 97.8975 332.716 114.247 367.819 152.666C397.068 184.676 409.943 222.944 406.957 266.001C404.114 306.993 386.924 341.51 356.242 369.041C332.622 390.235 304.913 402.976 273.467 406.617C231.948 411.425 194.14 401.353 160.912 375.655C136.266 356.593 119.057 332.14 109.184 302.12ZM158.767 145.729C153.077 151.566 146.829 156.96 141.792 163.314C116.272 195.502 105.411 232.157 110.434 273.014C115.252 312.194 133.452 344.431 164.292 368.858C196.464 394.341 233.424 404.393 274.249 398.955C311.743 393.962 342.769 376.533 366.689 347.558C390.351 318.895 401.427 285.554 399.674 248.108C398.311 218.997 389.138 192.682 371.971 169.278C354.166 145.004 331.097 127.661 302.447 117.816C279.287 109.859 255.738 108.037 231.59 111.695C204.181 115.848 180.208 127.216 158.767 145.729Z" fill="#6A79F8"/>
<path d="M72.3507 177.922C73.9872 179.785 75.842 181.506 77.1808 183.563C78.0241 184.859 78.8431 186.993 78.3255 188.146C77.6599 189.63 75.8018 191.016 74.1713 191.522C71.8977 192.227 69.3594 192.079 66.735 193.5C70.0129 194.708 73.2284 196.143 76.5851 197.063C80.3818 198.104 81.483 199.909 79.5231 203.48C78.6662 205.042 78.1733 206.803 77.363 208.86C65.8817 204.602 54.733 200.467 43.6388 196.353C43.6388 195.516 43.559 195.016 43.6509 194.549C44.8367 188.526 47.6238 184.839 54.6652 185.516C58.3414 185.869 62.1554 184.789 67.0923 184.219C63.8521 180.829 61.2997 178.137 58.7241 175.468C52.3652 168.878 52.361 168.882 57.0304 159.743C68.0793 163.923 79.1881 168.126 90.8301 172.53C89.9451 175.135 89.492 177.632 88.252 179.645C87.5978 180.707 85.3841 181.677 84.1992 181.382C80.5118 180.465 76.9795 178.925 72.9138 177.435C72.176 177.296 71.9114 177.348 71.6468 177.401C71.8814 177.574 72.1161 177.748 72.3507 177.922Z" fill="#6A79F8"/>
<path d="M124.113 126.748C122.732 126.97 121.11 127.425 120.604 126.867C113.033 118.512 105.608 110.024 97.6648 101.018C103.49 96.1862 108.777 91.132 114.732 87.0545C120.416 83.1624 127.037 84.2579 132.12 88.966C134.301 90.9861 136.444 93.1578 138.117 95.5952C143 102.71 142.507 109.235 136.499 115.404C132.685 119.321 128.443 122.822 124.113 126.748ZM120.822 110.994C122.012 112.32 123.202 113.646 124.495 115.086C128.115 112.66 131.459 110.305 131.056 105.704C130.719 101.857 124.407 95.2907 120.94 94.9482C116.63 94.5223 114.118 97.2914 111.684 100.601C114.679 104.013 117.51 107.238 120.822 110.994Z" fill="#6A79F8"/>
<path d="M84.8475 151.419C79.1501 147.391 73.7424 143.577 68.0977 139.596C73.511 131.897 78.6532 124.583 84.0872 116.855C86.2512 118.396 88.2248 119.801 90.6919 121.558C87.5619 126.17 84.5301 130.638 81.2237 135.51C82.7001 136.636 84.0833 137.691 85.7596 138.969C88.7115 134.943 91.5034 131.136 94.5055 127.041C96.7882 128.607 98.6606 129.892 101.054 131.533C98.3316 135.667 95.7454 139.595 92.9959 143.772C94.4815 144.871 95.7622 145.819 97.3971 147.029C100.746 142.486 103.951 138.139 107.435 133.413C109.652 135.009 111.608 136.418 114.013 138.15C108.664 145.701 103.53 152.948 98.1214 160.583C93.5421 157.426 89.3396 154.53 84.8475 151.419Z" fill="#6A79F8"/>
<path d="M258.545 34.877C260.331 34.9219 261.663 34.9337 262.989 35.0304C270.94 35.6106 271.509 36.3919 269.947 44.6671C266.718 44.3068 263.473 43.6692 260.233 43.6976C258.577 43.712 256.931 44.9196 255.28 45.5878C256.561 46.659 257.701 48.0134 259.155 48.7355C261.368 49.8345 263.837 50.4054 266.13 51.3615C270.682 53.2596 272.56 56.8496 272.408 61.6675C272.25 66.6209 269.542 69.7168 265.115 71.341C258.915 73.616 252.455 73.3638 246.665 70.717C244.75 69.8413 244.425 65.4869 243.073 61.9377C248.656 62.7657 252.623 63.5946 256.625 63.8239C258.128 63.9101 259.711 62.604 261.258 61.9326C259.99 60.6703 258.906 59.0899 257.408 58.2271C255.569 57.1678 253.348 56.797 251.356 55.9722C245.807 53.6738 243.53 50.2433 243.904 44.9447C244.273 39.7115 246.994 36.909 253.169 35.5529C254.78 35.1992 256.447 35.0994 258.545 34.877Z" fill="#6A79F8"/>
<path d="M207.053 77.4873C200.243 81.2722 193.644 84.3407 185.911 82.0587C177.528 79.5852 174.48 72.9275 173.017 65.2579C171.694 58.3247 174.467 52.786 180.121 48.8873C182.675 47.1264 185.687 45.8852 188.653 44.8942C197.482 41.9444 198.692 42.7039 200.989 52.0974C194.412 53.5956 185.586 52.2127 184.019 61.3949C183.478 64.5641 185.783 69.9071 188.467 71.6036C195 75.7348 200.585 70.3551 206.751 67.3197C206.976 70.7453 211.784 73.4785 207.053 77.4873Z" fill="#6A79F8"/>
<path d="M308.589 79.9555C299.35 78.3455 291.078 75.8988 288.291 65.9224C284.396 51.978 294.912 39.8739 309.187 41.8026C311.473 42.1115 313.772 42.6374 315.947 43.4004C323.782 46.1494 324.024 46.8185 320.775 54.8823C317.226 53.6627 313.74 52.1354 310.096 51.2869C304.109 49.8929 300.839 52.2214 299.195 58.4687C297.658 64.3107 299.43 67.8652 305.025 69.7337C306.894 70.3581 308.897 70.691 310.865 70.884C312.828 71.0764 314.824 70.9262 317.304 70.9262C316.494 74.0855 315.808 76.76 314.984 79.9752C312.956 79.9752 310.994 79.9752 308.589 79.9555Z" fill="#6A79F8"/>
<path d="M52.5272 243.557C53.8893 241.851 54.9497 240.405 56.3679 238.47C58.8346 242.609 61.538 245.939 67.3636 243.046C67.3221 247.959 65.3017 253.358 73.1463 254.094C67.9182 256.944 65.7607 260.375 68.1123 266.342C62.4243 264.504 58.4444 265.25 56.4884 272.341C54.2429 265.577 50.5701 264.182 45.1071 266.339C46.2147 260.957 45.7756 256.895 39.7068 254.987C44.6658 252.164 47.4955 249.035 44.5578 243.816C47.4457 243.816 49.8357 243.816 52.5272 243.557Z" fill="#6A79F8"/>
<path d="M147.783 79.5318C145.452 75.4997 143.316 71.7789 140.889 67.5511C143.849 65.7521 146.59 64.0861 149.967 62.0341C156.122 72.6224 162.071 82.8566 168.371 93.6925C165.347 95.5158 162.595 97.1755 159.245 99.1962C155.4 92.5922 151.689 86.2176 147.783 79.5318Z" fill="#6A79F8"/>
<path d="M213.163 465.278C211.658 465.774 210.255 465.904 208.348 466.08C209.871 458.573 211.214 451.953 212.676 444.745C220.128 447.379 218.724 455.405 223.004 459.404C226.564 456.762 222.245 448.811 230.54 447.958C229.263 454.755 228.228 460.609 227.004 466.424C226.807 467.356 225.562 468.901 225.144 468.796C223.875 468.477 222.247 467.763 221.702 466.713C219.645 462.752 217.962 458.597 215.631 453.376C214.689 457.971 213.978 461.441 213.163 465.278Z" fill="#6A79F8"/>
<path d="M178.042 453.731C178.934 447.366 180.057 441.331 181.306 434.62C183.847 435.532 185.095 435.981 186.578 436.513C185.042 440.642 183.759 444.4 182.247 448.064C180.941 451.228 182.055 453.193 184.956 454.426C188.033 455.734 190.091 454.561 191.28 451.598C192.759 447.911 194.205 444.211 195.679 440.484C199.3 440.407 200.218 441.868 198.767 445.026C197.937 446.833 197.294 448.726 196.577 450.585C192.67 460.711 185.913 461.995 178.042 453.731Z" fill="#6A79F8"/>
<path d="M101.075 384.903C103.692 383.049 105.845 381.128 108.335 379.875C109.623 379.227 111.507 379.761 113.122 379.761C113.227 380.359 113.332 380.956 113.436 381.553C109.553 384.317 105.792 387.278 101.75 389.785C98.0578 392.073 94.287 390.735 91.0362 386.529C87.7683 382.301 87.3481 378.26 90.5002 375.343C93.6486 372.429 97.2245 369.95 100.787 367.537C101.445 367.091 102.933 367.871 104.037 368.085C103.689 369.166 103.663 370.617 102.93 371.258C100.815 373.106 98.4809 374.732 96.1073 376.249C93.3395 378.018 92.041 380.264 93.6357 383.349C95.2533 386.479 97.8084 386.821 101.075 384.903Z" fill="#6A79F8"/>
<path d="M149.953 428.555C145.802 428.109 141.966 427.47 138.131 426.832C138.126 426.4 138.12 425.968 138.115 425.536C137.428 426.183 136.711 426.802 136.061 427.485C135.388 428.193 134.78 428.962 133.002 431.034C132.463 428.449 131.401 426.491 131.979 425.612C135.327 420.526 139.062 415.696 142.633 410.823C155.345 418.346 156.771 421.757 149.953 428.555ZM140.536 421.491C141.55 422.514 142.459 424.223 143.602 424.397C145.275 424.651 147.115 423.805 148.884 423.428C148.508 421.816 148.428 420.039 147.655 418.649C147.101 417.654 145.618 417.176 144.582 416.489C143.927 416.991 143.467 417.224 143.174 417.592C142.346 418.632 141.587 419.726 140.536 421.491Z" fill="#6A79F8"/>
<path d="M277.382 449.815C278.736 449.403 279.822 449.273 281.826 449.033C279.757 456.128 278.043 462.633 275.918 469C275.006 471.732 271.032 471.846 269.69 469.187C266.718 463.299 264.062 457.251 261.96 450.766C269.36 451.82 268.253 459.88 272.749 464.26C274.269 459.326 275.692 454.712 277.382 449.815Z" fill="#6A79F8"/>
<path d="M114.149 406.668C117.445 403.615 120.486 400.814 122.772 398.708C121.694 395.632 120.98 393.596 120.267 391.559C122.175 392.698 124.224 393.658 125.959 395.018C128.682 397.151 131.194 399.554 133.784 401.834C130.084 407.464 129.107 400.937 126.566 401.076C122.476 404.855 118.386 408.634 114.371 412.343C110.075 410.584 111.875 408.756 114.149 406.668Z" fill="#6A79F8"/>
<path d="M243.27 463.409C243.419 459.656 243.265 456.313 243.781 453.078C243.998 451.719 245.634 450.587 246.625 449.353C247.098 449.652 247.571 449.95 248.044 450.249C248.044 453.657 248.164 457.069 248.01 460.47C247.862 463.744 247.431 467.004 247.128 470.231C242.25 471.117 242.25 471.117 243.27 463.409Z" fill="#6A79F8"/>
<path d="M159.023 145.485C180.208 127.216 204.181 115.848 231.59 111.695C255.738 108.037 279.287 109.858 302.447 117.816C331.098 127.661 354.166 145.004 371.971 169.278C389.138 192.682 398.311 218.997 399.674 248.108C401.427 285.554 390.351 318.895 366.689 347.558C342.769 376.533 311.743 393.962 274.249 398.955C233.424 404.393 196.464 394.341 164.292 368.858C133.452 344.431 115.252 312.194 110.435 273.014C105.411 232.157 116.272 195.502 141.792 163.314C146.829 156.96 153.077 151.566 159.023 145.485ZM261.123 344.534C274.484 341.065 282.571 332.251 286.489 317.817C287.14 320.21 287.361 321.137 287.643 322.045C292.575 337.955 307.374 347.198 324.071 344.806C338.843 342.69 350.467 328.955 350.507 313.04C350.605 273.894 350.687 234.747 350.438 195.602C350.332 178.938 338.675 166.464 322.033 164.077C307.281 161.962 292.347 171.957 287.609 187.105C287.258 188.226 286.833 189.324 286.159 191.237C281.546 174.5 271.549 164.904 256.922 164.112C238.013 163.088 227.07 173.474 221.803 191.671C221.573 190.195 221.509 189.535 221.365 188.892C217.91 173.521 203.367 162.675 187.953 163.963C171.782 165.314 158.391 178.336 158.31 193.709C158.098 234.02 158.024 274.334 158.352 314.644C158.519 335.098 178.916 349.63 198.567 343.995C211.407 340.313 218.74 331.464 221.955 318.553C222.395 319.221 222.761 319.59 222.911 320.034C229.285 338.834 240.551 346.288 261.123 344.534Z" fill="#FEFEFF"/>
<path d="M72.4188 177.857C72.116 177.748 71.8814 177.574 71.6467 177.401C71.9113 177.348 72.1759 177.296 72.532 177.454C72.6234 177.665 72.4869 177.793 72.4188 177.857Z" fill="#FEFEFF"/>
<path d="M120.582 110.729C117.51 107.238 114.679 104.013 111.684 100.601C114.118 97.2914 116.63 94.5223 120.94 94.9482C124.407 95.2907 130.719 101.857 131.056 105.704C131.459 110.305 128.115 112.66 124.495 115.086C123.202 113.646 122.012 112.32 120.582 110.729Z" fill="#FAFBFF"/>
<path d="M140.669 421.145C141.588 419.726 142.346 418.632 143.174 417.592C143.467 417.224 143.927 416.991 144.582 416.489C145.618 417.176 147.101 417.654 147.655 418.649C148.428 420.039 148.508 421.816 148.884 423.428C147.115 423.805 145.275 424.651 143.602 424.397C142.46 424.223 141.55 422.514 140.669 421.145Z" fill="#FAFBFF"/>
<path d="M260.698 344.634C240.551 346.289 229.285 338.834 222.911 320.034C222.761 319.591 222.394 319.221 221.955 318.553C218.74 331.464 211.407 340.314 198.567 343.995C178.916 349.63 158.519 335.098 158.352 314.644C158.024 274.335 158.098 234.02 158.31 193.709C158.39 178.336 171.782 165.314 187.953 163.963C203.367 162.675 217.91 173.521 221.365 188.892C221.509 189.535 221.573 190.195 221.803 191.671C227.07 173.474 238.013 163.088 256.921 164.112C271.549 164.904 281.546 174.5 286.159 191.238C286.833 189.324 287.258 188.226 287.609 187.105C292.347 171.957 307.281 161.962 322.033 164.077C338.675 166.464 350.332 178.938 350.438 195.603C350.687 234.747 350.605 273.894 350.507 313.04C350.467 328.955 338.843 342.69 324.071 344.806C307.374 347.198 292.575 337.955 287.643 322.045C287.361 321.137 287.14 320.21 286.489 317.817C282.571 332.251 274.484 341.065 260.698 344.634ZM254.778 337.749C268.728 336.342 277.669 328.601 278.561 314.784C279.577 299.039 278.991 283.19 279.094 267.386C279.113 264.438 279.097 261.49 279.097 258.377C262.307 258.377 246.124 258.377 229.694 258.377C229.694 277.699 229.023 296.675 229.925 315.576C230.551 328.692 240.517 336.88 254.778 337.749ZM294.137 218.374C294.137 229.111 294.137 239.849 294.137 250.586C296.875 250.586 298.797 250.586 300.953 250.586C301.062 249.529 301.215 248.731 301.217 247.932C301.237 237.779 301.244 227.626 301.236 217.473C301.234 214.859 301.944 212.335 304.991 213.025C306.414 213.346 308.175 215.753 308.343 217.364C308.805 221.811 308.512 226.336 308.513 230.83C308.515 237.417 308.513 244.005 308.513 250.485C320.501 250.485 331.719 250.485 343.203 250.485C343.203 231.81 343.243 213.524 343.148 195.239C343.138 193.118 342.551 190.951 341.944 188.889C338.363 176.728 326.818 169.892 313.432 171.918C302.902 173.512 294.291 183.944 294.158 195.404C294.073 202.726 294.139 210.05 294.137 218.374ZM210.06 181.83C202.476 172.429 192.257 169.096 182.153 172.729C171.545 176.544 165.457 185.514 165.449 197.394C165.438 213.39 165.446 229.386 165.446 245.383C165.446 247.134 165.446 248.886 165.446 250.914C167.846 250.8 169.454 250.724 171.34 250.634C171.425 248.726 171.558 247.097 171.562 245.468C171.583 236.47 171.568 227.472 171.577 218.475C171.58 215.644 171.973 212.451 175.57 213.09C177.083 213.359 178.99 216.412 179.154 218.333C179.633 223.957 179.327 229.649 179.327 235.314C179.328 240.403 179.327 245.491 179.327 250.48C191.492 250.48 202.889 250.48 214.408 250.48C214.408 231.269 214.618 212.447 214.231 193.637C214.153 189.88 211.793 186.169 210.06 181.83Z" fill="#6A79F8"/>
<path d="M254.345 337.749C240.516 336.88 230.551 328.692 229.925 315.576C229.023 296.675 229.694 277.699 229.694 258.377C246.124 258.377 262.307 258.377 279.097 258.377C279.097 261.49 279.113 264.438 279.094 267.386C278.991 283.19 279.577 299.039 278.561 314.784C277.669 328.601 268.728 336.342 254.345 337.749ZM237.367 309.128C237.594 311.95 236.407 315.885 240.962 315.983C245.65 316.084 244.595 312.087 244.619 309.291C244.707 298.794 244.681 288.296 244.632 277.799C244.62 275.206 245.153 271.903 241.14 271.911C237.394 271.919 237.357 274.898 237.361 277.688C237.377 287.853 237.367 298.017 237.367 309.128Z" fill="#FBFCFF"/>
<path d="M210.273 182.133C211.793 186.169 214.153 189.88 214.231 193.637C214.618 212.447 214.408 231.269 214.408 250.48C202.889 250.48 191.492 250.48 179.327 250.48C179.327 245.491 179.328 240.403 179.327 235.314C179.327 229.649 179.633 223.957 179.154 218.332C178.99 216.412 177.083 213.359 175.57 213.09C171.973 212.451 171.58 215.644 171.577 218.475C171.568 227.472 171.583 236.47 171.562 245.468C171.558 247.097 171.426 248.726 171.34 250.634C169.454 250.724 167.846 250.8 165.446 250.914C165.446 248.886 165.446 247.134 165.446 245.383C165.446 229.386 165.438 213.39 165.449 197.394C165.457 185.514 171.545 176.544 182.153 172.729C192.257 169.096 202.476 172.429 210.273 182.133Z" fill="#FEFEFF"/>
<path d="M237.366 308.655C237.367 298.017 237.376 287.853 237.361 277.688C237.356 274.898 237.394 271.919 241.14 271.911C245.153 271.903 244.62 275.206 244.632 277.799C244.68 288.296 244.707 298.794 244.618 309.291C244.595 312.087 245.65 316.084 240.962 315.983C236.407 315.885 237.594 311.95 237.366 308.655Z" fill="#6A79F8"/>
<path d="M407.024 142.742C410.236 139.637 412.976 136.404 416.377 134.184C426.094 127.841 434.469 129.982 440.9 139.981C447.713 150.573 446.221 159.194 436.448 165.706C427.576 171.619 420.819 172.008 414.46 166.972C407.126 161.164 403.906 151.047 407.024 142.742ZM421.797 143.649C414.27 148.177 413.309 154.133 419.406 158.466C422.692 160.801 427.624 159.46 432.223 154.98C435.799 151.497 435.829 147.771 432.42 144.139C429.305 140.82 425.962 141.526 421.797 143.649Z" fill="#6A79F8"/>
<path d="M397.768 90.5329C398.679 91.0252 399.268 91.3416 399.814 91.7191C406.162 96.1048 412.116 101.275 411.602 109.599C411.064 118.303 404.703 123.611 397.646 127.874C396.807 128.381 395.832 128.771 394.87 128.953C385.971 130.633 380.431 125.264 375.478 119.248C371.2 114.052 370.384 108.156 373.832 102.071C378.133 94.4812 388.271 85.6891 397.768 90.5329ZM390.492 118.579C393.532 116.247 396.936 114.252 399.504 111.482C401.822 108.981 402.129 105.306 399.059 103.103C396.788 101.473 393.507 100.007 390.925 100.348C387.064 100.857 381.864 107.818 382.243 110.938C382.762 115.203 385.625 117.569 390.492 118.579Z" fill="#6A79F8"/>
<path d="M362.881 88.3864C360.249 93.1947 357.782 97.6721 355.136 102.472C351.972 100.692 349.119 99.0872 345.82 97.2308C347.918 93.2625 349.901 89.5133 352.161 85.2377C348.554 83.2939 345.11 81.4378 341.291 79.3795C339.106 83.1958 336.993 86.886 334.593 91.0781C331.455 89.4692 328.6 88.0053 325.223 86.2736C331.115 75.3392 336.755 64.8739 342.616 54C345.856 55.6998 348.748 57.2173 351.979 58.9126C349.893 62.9393 347.936 66.7174 345.753 70.9323C349.367 72.9221 352.791 74.8079 356.542 76.8731C358.825 72.8594 360.931 69.1551 363.277 65.0306C366.454 66.815 369.278 68.4006 372.538 70.2318C369.257 76.3916 366.151 82.2235 362.881 88.3864Z" fill="#6A79F8"/>
<path d="M466.868 254.748C466.988 255.351 466.97 255.835 466.762 255.939C462.423 258.106 461.105 261.48 463.69 267.13C457.615 264.813 453.766 266.219 451.807 271.81C450.081 269.395 448.837 267.655 447.483 265.759C445.254 266.04 443.021 266.321 439.98 266.703C442.083 261.416 440.816 257.676 435.136 255.407C440.156 252.694 443.043 249.617 439.128 243.636C445.052 245.147 449.495 245.507 451.144 237.89C454.134 243.349 457.036 246.682 463.189 243.103C462.232 248.17 461.328 252.619 466.868 254.748Z" fill="#6A79F8"/>
<path d="M442.932 193.369C440.189 194.22 437.831 194.97 435.145 195.825C436.628 201.025 438.058 206.042 439.454 210.935C432.885 214.871 432.115 214.599 430.036 207.87C428.036 201.395 426.07 194.911 423.948 187.971C435.555 184.397 446.905 180.901 458.776 177.245C459.903 180.511 460.959 183.572 462.263 187.349C455.802 189.368 449.559 191.319 442.932 193.369Z" fill="#6A79F8"/>
<path d="M339.075 449.517C340.231 450.691 341.123 451.627 342.101 452.652C339.717 455.331 337.75 454.813 335.829 452.523C333.816 450.125 331.622 449.453 328.936 451.925C329.577 453.808 330.205 455.652 330.921 457.757C329.74 458.377 328.638 458.955 327.018 459.806C324.258 453.206 321.612 446.877 318.823 440.209C322.247 438.749 325.171 436.975 328.324 436.335C330.603 435.872 334.065 436.084 335.408 437.503C336.983 439.165 336.789 442.472 337.446 445.044C337.813 446.478 338.35 447.869 339.075 449.517ZM328.963 440.003C327.566 440.72 326.168 441.437 324.545 442.269C325.467 444.383 326.17 445.995 327.442 448.91C329.897 446.649 331.742 444.949 333.587 443.249C332.28 442.084 330.973 440.918 328.963 440.003Z" fill="#6A79F8"/>
<path d="M302.293 448.783C297.511 450.213 297.511 450.213 298.898 454.78C301.102 454.349 303.335 453.782 305.603 453.543C306.337 453.465 307.162 454.247 307.946 454.635C307.435 455.33 307.058 456.243 306.377 456.663C305.565 457.165 304.507 457.351 303.529 457.489C299.976 457.988 298.984 459.732 300.972 463.491C303.233 462.948 305.564 462.214 307.951 461.893C309.008 461.751 310.177 462.445 311.295 462.759C310.576 463.608 310.006 464.953 309.113 465.22C305.328 466.353 301.447 467.167 297.077 468.224C295.394 461.44 293.77 454.893 292 447.759C295.896 446.808 299.531 445.793 303.225 445.094C304.399 444.872 305.732 445.492 306.992 445.726C306.051 446.62 305.152 447.568 304.144 448.379C303.804 448.653 303.184 448.58 302.293 448.783Z" fill="#6A79F8"/>
<path d="M349.341 425.845C351.362 424.353 352.996 422.75 354.956 422.028C356.316 421.527 358.124 422.236 359.731 422.405C359.729 422.912 359.727 423.418 359.725 423.925C357.991 424.808 356.094 425.48 354.581 426.649C353.558 427.439 353.074 428.927 352.35 430.103C353.664 430.445 354.99 431.101 356.288 431.049C357.917 430.983 359.617 429.806 361.114 430.073C363.06 430.42 365.516 431.263 366.492 432.73C367.451 434.173 367.713 437.523 366.734 438.526C364.282 441.039 361.035 442.844 357.904 444.563C357.333 444.877 355.801 443.443 354.218 442.531C357.122 441.029 359.286 440.159 361.135 438.845C362.009 438.224 362.28 436.754 362.824 435.668C361.668 435.264 360.52 434.566 359.353 434.534C358.07 434.499 356.707 435.488 355.491 435.301C353.198 434.949 349.951 434.727 349.015 433.244C347.949 431.555 348.976 428.546 349.341 425.845Z" fill="#6A79F8"/>
<path d="M413.815 375.776C412.76 373.483 411.451 371.638 410.968 369.597C410.608 368.076 411.316 366.302 411.548 364.641C411.994 364.641 412.44 364.642 412.886 364.643C414.27 367.437 415.435 370.372 417.102 372.986C418.741 375.556 420.607 378.13 422.895 380.094C425.275 382.136 425.678 383.538 424.342 384.479C416.349 382.605 409.467 380.991 400.852 378.971C403.705 377.866 405.409 376.919 407.228 376.574C409.406 376.161 411.682 376.261 413.815 375.776Z" fill="#6A79F8"/>
<path d="M394.309 393.603C394.327 395.204 394.186 396.914 394.972 397.814C397.373 400.561 400.314 402.842 402.652 405.633C403.496 406.641 403.226 408.581 403.464 410.096C402.893 410.263 402.323 410.43 401.753 410.597C397.669 406.798 393.586 402.999 390.019 399.68C387.419 400.654 385.482 401.38 383.544 402.107C384.631 400.153 385.513 398.043 386.858 396.286C388.363 394.319 390.189 392.558 392.073 390.937C392.914 390.213 394.239 390.052 395.344 389.636C395.087 390.872 394.83 392.107 394.309 393.603Z" fill="#6A79F8"/>
<path d="M376.163 420.338C373.877 417.507 371.818 414.953 369.575 412.171C370.729 411.162 371.651 410.355 372.499 409.613C373.052 409.905 373.422 409.986 373.611 410.216C377.683 415.165 381.735 420.13 386.004 425.353C384.732 426.314 383.741 427.062 382.47 428.023C380.334 425.42 378.361 423.017 376.163 420.338Z" fill="#6A79F8"/>
<path d="M422.146 143.519C425.962 141.526 429.305 140.82 432.42 144.139C435.829 147.771 435.799 151.497 432.223 154.98C427.624 159.46 422.692 160.801 419.406 158.466C413.309 154.133 414.27 148.177 422.146 143.519Z" fill="#FBFCFF"/>
<path d="M390.103 118.556C385.625 117.569 382.762 115.203 382.243 110.938C381.864 107.818 387.064 100.857 390.925 100.348C393.507 100.007 396.788 101.473 399.059 103.103C402.129 105.306 401.822 108.981 399.504 111.482C396.936 114.252 393.532 116.247 390.103 118.556Z" fill="#FCFCFF"/>
<path d="M329.314 439.878C330.973 440.918 332.28 442.084 333.587 443.249C331.742 444.949 329.897 446.649 327.442 448.91C326.17 445.995 325.467 444.383 324.545 442.269C326.168 441.437 327.566 440.72 329.314 439.878Z" fill="#F4F5FF"/>
<path d="M292.732 218.481C292.733 210.658 292.668 203.333 292.752 196.011C292.885 184.551 301.497 174.119 312.026 172.525C325.413 170.499 336.958 177.336 340.538 189.496C341.145 191.558 341.732 193.725 341.743 195.846C341.837 214.132 341.797 232.417 341.797 251.092C330.314 251.092 319.095 251.092 307.108 251.092C307.108 244.612 307.109 238.025 307.107 231.437C307.106 226.943 307.4 222.418 306.937 217.972C306.769 216.36 305.009 213.953 303.586 213.632C300.538 212.943 299.828 215.467 299.83 218.08C299.838 228.233 299.832 238.386 299.811 248.539C299.809 249.338 299.656 250.136 299.547 251.194C297.392 251.194 295.469 251.194 292.732 251.194C292.732 240.456 292.732 229.719 292.732 218.481Z" fill="#FDFDFF"/>
</svg>
