<svg width="56" height="58" viewBox="0 0 56 58" fill="none" xmlns="http://www.w3.org/2000/svg">
<g clip-path="url(#clip0_144_13)">
<path d="M6.99997 50.75C5.44363 49.1381 14.6113 35.6797 34.4983 10.3699C35.2071 9.46831 36.0878 8.72775 37.0854 8.19447C38.083 7.6612 39.176 7.34666 40.2962 7.27051C41.4164 7.19436 42.5397 7.35822 43.596 7.75187C44.6523 8.14552 45.6189 8.7605 46.4355 9.55841C47.252 10.3563 47.9009 11.32 48.3418 12.3893C48.7826 13.4586 49.0058 14.6106 48.9975 15.7733C48.9892 16.9359 48.7495 18.0843 48.2935 19.1468C47.8375 20.2092 47.1748 21.1629 46.347 21.9482C21.672 42.7605 8.5563 52.3619 6.99997 50.75Z" stroke="white" stroke-width="2" stroke-linecap="round" stroke-linejoin="round"/>
<path d="M40.8333 15.7083L38.5 18.125" stroke="white" stroke-width="2" stroke-linecap="round" stroke-linejoin="round"/>
<path d="M39.6666 16.9167C34.2229 10.4714 31.4999 7.25 27.9999 7.25C24.4999 7.25 23.3333 9.66667 23.3333 12.0833C23.3333 21.75 42.3756 32.3978 37.3333 38.6667C34.8693 41.731 29.4863 41.7721 23.9166 40.6193" stroke="white" stroke-width="2" stroke-linecap="round" stroke-linejoin="round"/>
<path d="M13.3911 37.2771C10.1407 35.9117 4.66675 32.625 4.66675 29" stroke="white" stroke-width="2" stroke-linecap="round" stroke-linejoin="round"/>
<path d="M45.5 22.9583L49 26.5833" stroke="white" stroke-width="2" stroke-linecap="round" stroke-linejoin="round"/>
</g>
<defs>
<clipPath id="clip0_144_13">
<rect width="56" height="58" fill="white"/>
</clipPath>
</defs>
</svg>
