<svg width="56" height="72" viewBox="0 0 56 72" fill="none" xmlns="http://www.w3.org/2000/svg">
<g clip-path="url(#clip0_148_59)">
<path d="M18.6667 45.4167V24.875C18.6667 23.9136 19.0355 22.9916 19.6919 22.3117C20.3483 21.6319 21.2385 21.25 22.1667 21.25C23.095 21.25 23.9852 21.6319 24.6416 22.3117C25.298 22.9916 25.6667 23.9136 25.6667 24.875V43" stroke="white" stroke-width="2" stroke-linecap="round" stroke-linejoin="round"/>
<path d="M25.6667 41.7917V36.9583C25.6667 36.4823 25.7573 36.0109 25.9332 35.5711C26.1091 35.1313 26.3669 34.7317 26.6919 34.3951C27.0169 34.0585 27.4027 33.7914 27.8274 33.6093C28.252 33.4271 28.7071 33.3333 29.1667 33.3333C29.6264 33.3333 30.0815 33.4271 30.5061 33.6093C30.9308 33.7914 31.3166 34.0585 31.6416 34.3951C31.9666 34.7317 32.2244 35.1313 32.4003 35.5711C32.5762 36.0109 32.6667 36.4823 32.6667 36.9583V43" stroke="white" stroke-width="2" stroke-linecap="round" stroke-linejoin="round"/>
<path d="M32.6667 39.375C32.6667 38.4136 33.0355 37.4916 33.6919 36.8117C34.3483 36.1319 35.2385 35.75 36.1667 35.75C37.095 35.75 37.9852 36.1319 38.6416 36.8117C39.298 37.4916 39.6667 38.4136 39.6667 39.375V43" stroke="white" stroke-width="2" stroke-linecap="round" stroke-linejoin="round"/>
<path d="M39.6666 41.7917C39.6666 40.8303 40.0354 39.9082 40.6917 39.2284C41.3481 38.5486 42.2384 38.1667 43.1666 38.1667C44.0949 38.1667 44.9851 38.5486 45.6415 39.2284C46.2979 39.9082 46.6666 40.8303 46.6666 41.7917V52.6667C46.6666 56.5123 45.1916 60.2004 42.5661 62.9197C39.9406 65.639 36.3796 67.1667 32.6666 67.1667H27.9999H28.4853C26.1667 67.1671 23.8844 66.5711 21.8432 65.4322C19.802 64.2933 18.0658 62.6472 16.7906 60.6417C16.6376 60.4004 16.4851 60.1587 16.3333 59.9167C15.6053 58.7591 13.0503 54.1457 8.66594 46.074C8.21899 45.2512 8.0996 44.2803 8.33316 43.3677C8.56673 42.4551 9.13482 41.673 9.91661 41.1875C10.7493 40.67 11.7251 40.4555 12.689 40.5781C13.6529 40.7007 14.5495 41.1534 15.2366 41.8642L18.6666 45.4167" stroke="white" stroke-width="2" stroke-linecap="round" stroke-linejoin="round"/>
</g>
<g clip-path="url(#clip1_148_59)">
<path d="M15 15C16.0609 15 17.0783 14.5786 17.8284 13.8284C18.5786 13.0783 19 12.0609 19 11C19 8 17 8 17 3C13 5 11 8 11 11C11 12.0609 11.4214 13.0783 12.1716 13.8284C12.9217 14.5786 13.9391 15 15 15Z" stroke="white" stroke-width="2" stroke-linecap="round" stroke-linejoin="round"/>
</g>
<defs>
<clipPath id="clip0_148_59">
<rect width="56" height="58" fill="white" transform="translate(0 14)"/>
</clipPath>
<clipPath id="clip1_148_59">
<rect width="24" height="24" fill="white" transform="translate(3)"/>
</clipPath>
</defs>
</svg>
