<svg width="67" height="62" viewBox="0 0 67 62" fill="none" xmlns="http://www.w3.org/2000/svg">
<g clip-path="url(#clip0_91_2)">
<path d="M47.4584 5.16666C49.6795 5.16666 51.8098 5.98317 53.3804 7.43658C54.951 8.88999 55.8334 10.8612 55.8334 12.9167V54.25C55.8334 54.7177 55.6963 55.1766 55.4366 55.5779C55.1769 55.9791 54.8043 56.3075 54.3587 56.5282C53.9131 56.7488 53.4111 56.8534 52.9062 56.8307C52.4014 56.808 51.9127 56.6589 51.4923 56.3993L45.0212 52.4081L41.0571 56.0764C40.5764 56.5212 39.9368 56.7884 39.2583 56.8279C38.5799 56.8673 37.9092 56.6764 37.3721 56.2908L37.1096 56.0764L33.5 52.7387L29.8904 56.0764C29.4097 56.5212 28.7701 56.7884 28.0917 56.8279C27.4132 56.8673 26.7425 56.6764 26.2054 56.2908L25.943 56.0764L21.976 52.4081L15.5077 56.3993L15.4547 56.4303L15.3039 56.5078L15.2258 56.5517L15.075 56.6112L14.9354 56.6706L14.7986 56.7093L14.6311 56.7584L14.486 56.7817L14.3269 56.8101L14.0924 56.8256L14.0198 56.8333H13.9584L13.8216 56.8256H13.7127L13.6764 56.8178H13.6317L13.5173 56.7972L13.4112 56.7842L13.3693 56.7713L13.3191 56.7662L13.2241 56.7377L13.1125 56.7119L13.0594 56.6938L13.0176 56.6835L12.9366 56.6499L12.8249 56.6112L12.7663 56.5827L12.73 56.5698L12.6519 56.5285L12.5514 56.482L12.5123 56.4562L12.462 56.4303L12.3559 56.3606L12.2945 56.3244L12.2666 56.3012L12.2108 56.265L12.0851 56.1591L12.0516 56.1384L11.9846 56.0764L11.8869 55.9757L11.8311 55.924L11.8116 55.8956L11.7809 55.8646L11.6915 55.7483L11.6357 55.6837L11.6022 55.6347L11.5184 55.4952L11.471 55.4228L11.4068 55.2833L11.3426 55.1542C11.3053 55.0629 11.2736 54.9697 11.2476 54.8752L11.2197 54.7279L11.1918 54.591L11.1667 54.25V12.9167C11.1667 10.8612 12.0491 8.88999 13.6197 7.43658C15.1903 5.98317 17.3205 5.16666 19.5417 5.16666H47.4584ZM41.875 36.1667H36.2917C35.5513 36.1667 34.8412 36.4388 34.3177 36.9233C33.7941 37.4078 33.5 38.0648 33.5 38.75C33.5 39.4351 33.7941 40.0922 34.3177 40.5767C34.8412 41.0612 35.5513 41.3333 36.2917 41.3333H41.875C42.6154 41.3333 43.3255 41.0612 43.849 40.5767C44.3726 40.0922 44.6667 39.4351 44.6667 38.75C44.6667 38.0648 44.3726 37.4078 43.849 36.9233C43.3255 36.4388 42.6154 36.1667 41.875 36.1667ZM41.875 25.8333H25.125C24.3846 25.8333 23.6746 26.1055 23.151 26.59C22.6275 27.0744 22.3334 27.7315 22.3334 28.4167C22.3334 29.1018 22.6275 29.7589 23.151 30.2434C23.6746 30.7278 24.3846 31 25.125 31H41.875C42.6154 31 43.3255 30.7278 43.849 30.2434C44.3726 29.7589 44.6667 29.1018 44.6667 28.4167C44.6667 27.7315 44.3726 27.0744 43.849 26.59C43.3255 26.1055 42.6154 25.8333 41.875 25.8333ZM41.875 15.5H25.125C24.3846 15.5 23.6746 15.7722 23.151 16.2566C22.6275 16.7411 22.3334 17.3982 22.3334 18.0833C22.3334 18.7685 22.6275 19.4255 23.151 19.91C23.6746 20.3945 24.3846 20.6667 25.125 20.6667H41.875C42.6154 20.6667 43.3255 20.3945 43.849 19.91C44.3726 19.4255 44.6667 18.7685 44.6667 18.0833C44.6667 17.3982 44.3726 16.7411 43.849 16.2566C43.3255 15.7722 42.6154 15.5 41.875 15.5Z" fill="white"/>
</g>
<defs>
<clipPath id="clip0_91_2">
<rect width="67" height="62" fill="white"/>
</clipPath>
</defs>
</svg>
