<svg width="52" height="53" viewBox="0 0 52 53" fill="none" xmlns="http://www.w3.org/2000/svg">
<g clip-path="url(#clip0_97_51)">
<path d="M6.58456 9.44496L15.0432 39.3966C15.4441 41.245 17.0366 42.7444 19.0104 43.0227L19.3787 43.058C20.2236 43.1096 21.0667 42.931 21.8214 42.5406C22.5761 42.1502 23.2152 41.562 23.6731 40.8364L23.7706 40.6642L26.8039 36.0885L35.5789 45.0322C35.9948 45.4564 36.4886 45.7928 37.0321 46.0224C37.5757 46.2519 38.1582 46.3701 38.7466 46.3701C39.3349 46.3701 39.9175 46.2519 40.461 46.0224C41.0045 45.7928 41.4983 45.4564 41.9142 45.0322L44.1827 42.7201C45.0234 41.8633 45.4957 40.7039 45.4957 39.4938L45.4784 39.0918C45.3856 38.0238 44.9269 37.023 44.1827 36.2652L35.4142 27.3258L39.9707 24.2077C41.5437 23.3575 42.5274 21.3854 42.2522 19.3736C42.1186 18.3926 41.694 17.4765 41.0353 16.7483C40.3766 16.0201 39.5153 15.5145 38.5667 15.2993L9.26473 6.70884C8.89239 6.60002 8.49825 6.59492 8.12333 6.69408C7.74841 6.79324 7.40643 6.99302 7.13298 7.27262C6.85954 7.55223 6.66463 7.90143 6.56856 8.28388C6.47249 8.66633 6.47876 9.06803 6.58672 9.44717L6.58456 9.44496Z" fill="#6978F8"/>
</g>
<defs>
<clipPath id="clip0_97_51">
<rect width="52" height="53" fill="white"/>
</clipPath>
</defs>
</svg>
