<svg width="52" height="53" viewBox="0 0 52 53" fill="none" xmlns="http://www.w3.org/2000/svg">
<g clip-path="url(#clip0_97_43)">
<path d="M19.5 6.625C19.8885 6.62489 20.2698 6.73122 20.6041 6.93285C20.9384 7.13449 21.2134 7.42402 21.4002 7.77113L21.5107 8.01404L25.844 19.0557C26.0186 19.4999 26.0468 19.9899 25.9245 20.4519C25.8022 20.9139 25.536 21.3229 25.1659 21.6174L24.9492 21.7675L21.3222 23.9847L21.4587 24.2122C23.185 27.0057 25.5039 29.3692 28.2447 31.1287L28.4657 31.2656L30.6432 27.5732C30.8845 27.1627 31.2502 26.8431 31.6851 26.6627C32.12 26.4823 32.6007 26.4508 33.0547 26.5729L33.3039 26.659L44.1372 31.0757C44.4979 31.2223 44.8133 31.4652 45.0504 31.7787C45.2875 32.0922 45.4376 32.4649 45.4849 32.8578L45.5 33.125V41.9583C45.5 45.6175 42.5902 48.5833 38.87 48.5789C20.2822 47.4284 5.46437 32.3256 4.33337 13.25C4.33328 11.5602 4.96675 9.93415 6.10416 8.70467C7.24157 7.47519 8.79694 6.73518 10.452 6.63604L10.8334 6.625H19.5Z" fill="#6978F8"/>
</g>
<defs>
<clipPath id="clip0_97_43">
<rect width="52" height="53" fill="white"/>
</clipPath>
</defs>
</svg>
