<svg width="58" height="56" viewBox="0 0 58 56" fill="none" xmlns="http://www.w3.org/2000/svg">
<g clip-path="url(#clip0_143_2)">
<path d="M14.5 9.33334H12.0833C10.8015 9.33334 9.57208 9.825 8.66565 10.7002C7.75922 11.5753 7.25 12.7623 7.25 14V22.1667C7.25 25.5703 8.65037 28.8345 11.143 31.2412C13.6357 33.6479 17.0165 35 20.5417 35C24.0668 35 27.4476 33.6479 29.9403 31.2412C32.433 28.8345 33.8333 25.5703 33.8333 22.1667V14C33.8333 12.7623 33.3241 11.5753 32.4177 10.7002C31.5113 9.825 30.2819 9.33334 29 9.33334H26.5833" stroke="white" stroke-width="2" stroke-linecap="round" stroke-linejoin="round"/>
<path d="M19.3333 35C19.3333 36.8385 19.7083 38.659 20.437 40.3576C21.1657 42.0561 22.2338 43.5995 23.5802 44.8995C24.9267 46.1995 26.5251 47.2307 28.2843 47.9343C30.0436 48.6379 31.9291 49 33.8333 49C35.7374 49 37.6229 48.6379 39.3822 47.9343C41.1414 47.2307 42.7399 46.1995 44.0863 44.8995C45.4328 43.5995 46.5008 42.0561 47.2295 40.3576C47.9582 38.659 48.3333 36.8385 48.3333 35V28" stroke="white" stroke-width="2" stroke-linecap="round" stroke-linejoin="round"/>
<path d="M26.5833 7V11.6667" stroke="white" stroke-width="2" stroke-linecap="round" stroke-linejoin="round"/>
<path d="M14.5 7V11.6667" stroke="white" stroke-width="2" stroke-linecap="round" stroke-linejoin="round"/>
<path d="M43.5 23.3333C43.5 24.571 44.0092 25.758 44.9157 26.6332C45.8221 27.5083 47.0515 28 48.3333 28C49.6152 28 50.8446 27.5083 51.751 26.6332C52.6574 25.758 53.1667 24.571 53.1667 23.3333C53.1667 22.0957 52.6574 20.9087 51.751 20.0335C50.8446 19.1583 49.6152 18.6667 48.3333 18.6667C47.0515 18.6667 45.8221 19.1583 44.9157 20.0335C44.0092 20.9087 43.5 22.0957 43.5 23.3333Z" stroke="white" stroke-width="2" stroke-linecap="round" stroke-linejoin="round"/>
</g>
<defs>
<clipPath id="clip0_143_2">
<rect width="58" height="56" fill="white"/>
</clipPath>
</defs>
</svg>
