<svg width="50" height="53" viewBox="0 0 50 53" fill="none" xmlns="http://www.w3.org/2000/svg">
<g clip-path="url(#clip0_241_18)">
<path d="M17.1252 38.785C17.2404 39.3126 17.5112 39.7916 17.9011 40.1579C18.2911 40.5242 18.7817 40.7602 19.307 40.8342C19.8323 40.9082 20.3673 40.8167 20.8402 40.572C21.313 40.3273 21.7012 39.9411 21.9525 39.4651L26.4808 32.6347L37.1127 43.471C37.3273 43.6899 37.5822 43.8634 37.8627 43.9818C38.1432 44.1003 38.4438 44.1612 38.7474 44.1612C39.051 44.1612 39.3517 44.1003 39.6321 43.9818C39.9126 43.8634 40.1675 43.6899 40.3822 43.471L42.6507 41.1589C42.8654 40.9401 43.0357 40.6803 43.1518 40.3945C43.268 40.1086 43.3278 39.8022 43.3278 39.4927C43.3278 39.1833 43.268 38.8769 43.1518 38.591C43.0357 38.3051 42.8654 38.0453 42.6507 37.8265L32.0188 26.9902L38.7637 22.3748C39.2306 22.1185 39.6095 21.7227 39.8495 21.2406C40.0894 20.7585 40.179 20.2131 40.1061 19.6777C40.0333 19.1422 39.8015 18.6422 39.4419 18.2449C39.0822 17.8475 38.612 17.5718 38.0942 17.4547L8.6665 8.83333L17.1252 38.785Z" stroke="white" stroke-width="2" stroke-linecap="round" stroke-linejoin="round"/>
</g>
<defs>
<clipPath id="clip0_241_18">
<rect width="52" height="53" fill="white"/>
</clipPath>
</defs>
</svg>
