<svg width="52" height="53" viewBox="0 0 52 53" fill="none" xmlns="http://www.w3.org/2000/svg">
<g clip-path="url(#clip0_97_2)">
<path d="M27.5319 5.06381L47.0319 24.9388C48.3969 26.3301 47.4305 28.7084 45.5 28.7084H43.3334V41.9584C43.3334 43.7155 42.6486 45.4006 41.4296 46.643C40.2106 47.8854 38.5573 48.5834 36.8334 48.5834H34.6667V33.1251C34.6668 31.4353 34.0333 29.8093 32.8959 28.5798C31.7585 27.3503 30.2031 26.6103 28.548 26.5111L28.1667 26.5001H23.8334C22.1095 26.5001 20.4562 27.1981 19.2372 28.4405C18.0182 29.6829 17.3334 31.368 17.3334 33.1251V48.5834H15.1667C13.4428 48.5834 11.7895 47.8854 10.5705 46.643C9.35153 45.4006 8.66671 43.7155 8.66671 41.9584V28.7084H6.50004C4.57171 28.7084 3.60321 26.3301 4.96821 24.9388L24.4682 5.06381C24.8745 4.64981 25.4255 4.41724 26 4.41724C26.5746 4.41724 27.1256 4.64981 27.5319 5.06381ZM28.1667 30.9168C28.7413 30.9168 29.2924 31.1494 29.6988 31.5636C30.1051 31.9777 30.3334 32.5394 30.3334 33.1251V48.5834H21.6667V33.1251C21.6668 32.5842 21.8616 32.0621 22.2143 31.6579C22.5669 31.2537 23.0528 30.9955 23.5799 30.9322L23.8334 30.9168H28.1667Z" fill="#6978F8"/>
</g>
<defs>
<clipPath id="clip0_97_2">
<rect width="52" height="53" fill="white"/>
</clipPath>
</defs>
</svg>
