<svg version="1.1" id="Layer_1" xmlns="http://www.w3.org/2000/svg" xmlns:xlink="http://www.w3.org/1999/xlink" x="0px" y="0px"
	 width="100%" viewBox="0 0 420 414" enable-background="new 0 0 420 414" xml:space="preserve">
<path fill="#39668E" opacity="1.000000" stroke="none" 
	d="
M154.000000,415.000000 
	C153.555557,415.000000 153.111099,415.000000 151.989716,414.769409 
	C150.343414,414.361816 149.374191,414.031067 148.404648,414.030151 
	C119.691422,414.002808 90.978134,413.994049 62.265003,414.050598 
	C60.842720,414.053375 59.421642,414.669495 58.000004,415.000000 
	C52.977909,415.000000 47.955814,415.000000 42.339657,414.669281 
	C31.600689,410.595795 22.999262,404.787659 15.919470,396.454285 
	C5.407443,384.080933 3.393809,369.380615 3.586342,353.836517 
	C4.271175,351.754303 4.925255,349.858337 4.931860,347.960144 
	C5.005464,326.810730 4.978805,305.660980 4.979585,284.511322 
	C4.982302,210.903854 5.001621,137.296371 4.909490,63.689018 
	C4.906694,61.455559 3.741746,59.223557 3.065101,56.596336 
	C3.302954,54.129734 3.594326,52.057667 4.008789,49.892349 
	C4.296001,49.488651 4.235883,49.223003 3.915911,48.586105 
	C6.089152,26.875391 17.467222,12.206493 36.455734,3.001517 
	C37.404327,2.541671 38.156414,1.676461 39.000000,1.000000 
	C153.687561,1.000000 268.375122,1.000000 383.671082,1.323106 
	C391.193115,6.028692 398.593567,9.812774 404.899384,14.942457 
	C413.103577,21.616436 416.905579,31.513273 421.000000,41.000000 
	C421.000000,43.041668 421.000000,45.083332 420.644470,47.723499 
	C419.860229,50.510414 419.059998,52.698315 419.056946,54.887325 
	C418.974640,113.629570 418.974182,172.371933 418.638947,231.009705 
	C405.457550,218.243835 392.532440,205.647354 379.753052,192.904755 
	C363.963654,177.160782 348.299683,161.291046 332.573639,145.483490 
	C305.792694,118.563683 279.016937,91.638695 252.190704,64.764069 
	C250.713089,63.283779 248.794830,62.243336 246.957855,60.662601 
	C235.255859,56.052048 223.698563,51.717346 212.049194,47.646004 
	C211.327499,47.393772 209.881836,49.213058 208.605209,50.107090 
	C208.315063,50.216259 208.081787,50.302853 208.089264,50.354801 
	C208.124176,50.597416 208.225525,50.830467 208.250290,51.505497 
	C207.937027,53.092171 207.676590,54.240288 207.335114,55.649002 
	C207.510284,56.920696 207.766464,57.931786 207.989944,59.332520 
	C209.646667,63.575043 211.336105,67.427917 213.009903,71.662323 
	C212.943253,72.805466 212.892258,73.567078 212.480469,74.309052 
	C210.664368,77.554596 209.209061,80.819778 207.313583,84.080551 
	C204.207886,84.083595 201.542374,84.091057 198.522614,84.141205 
	C197.442139,85.163940 196.420425,86.039749 196.032593,87.139168 
	C183.885406,121.574867 171.780762,156.025665 159.781158,190.512955 
	C159.340271,191.780060 160.019516,193.436905 160.180130,195.256195 
	C160.464752,196.476120 160.745972,197.351944 160.694489,198.297699 
	C155.852997,205.015015 155.891159,205.293167 160.412231,211.013062 
	C160.944672,211.686691 160.821671,212.878372 160.891495,214.182281 
	C159.541000,217.973877 158.301544,221.413071 157.307648,225.052231 
	C157.892502,225.504410 158.231781,225.756653 158.643616,225.900681 
	C158.716156,225.792480 158.936722,225.931168 159.006516,226.266922 
	C160.321030,227.752762 161.565750,228.902832 162.923340,230.377319 
	C169.035004,237.131729 175.033798,243.561737 180.560303,249.996887 
	C165.354645,250.004929 150.620407,249.929718 135.888824,250.094391 
	C133.662750,250.119278 129.594650,251.151779 129.549957,251.906143 
	C129.353394,255.222961 130.320511,258.608734 131.055695,262.254761 
	C133.836517,265.631561 136.427505,268.723114 138.650696,271.916626 
	C136.433807,273.459625 133.262466,274.763641 133.095016,276.379028 
	C132.915512,278.110596 135.562469,280.135162 137.039536,282.325378 
	C137.684006,283.104736 138.264847,283.590607 138.938690,284.406799 
	C140.409348,286.384613 141.672409,288.146301 143.182404,289.661957 
	C158.576385,305.113495 174.052414,320.483704 189.371506,336.008850 
	C190.978867,337.637817 191.726685,340.114929 192.449677,342.388733 
	C171.432129,342.601257 150.837753,342.693329 130.244644,342.572235 
	C127.074142,342.553619 125.101089,343.292084 123.479172,346.199402 
	C120.004868,352.427124 116.051743,358.386017 112.437447,364.538818 
	C111.679558,365.829071 111.536728,367.480591 111.233551,369.158142 
	C111.524696,369.613464 111.744316,369.821991 112.180939,370.265259 
	C123.644386,381.728027 134.983322,392.860870 146.213913,404.101929 
	C149.327774,407.218658 152.119980,410.656769 154.858856,414.097900 
	C154.438614,414.498932 154.219315,414.749481 154.000000,415.000000 
z"/>
<path fill="#274969" opacity="1.000000" stroke="none" 
	d="
M192.873291,342.198547 
	C191.726685,340.114929 190.978867,337.637817 189.371506,336.008850 
	C174.052414,320.483704 158.576385,305.113495 143.182404,289.661957 
	C141.672409,288.146301 140.409348,286.384613 139.423599,284.383362 
	C148.549774,284.019379 157.286652,284.117615 166.015900,283.903595 
	C167.679764,283.862762 169.313370,282.588379 171.190033,281.616516 
	C173.233246,280.092194 175.047348,278.834534 177.526123,277.116089 
	C178.776642,295.900330 182.678040,300.293182 200.021439,303.745087 
	C208.929138,305.518036 217.860291,307.173218 227.159973,308.954254 
	C227.159973,318.205322 227.159973,326.948669 227.159973,335.726593 
	C239.242996,335.726593 250.822769,335.726593 262.927094,335.726593 
	C262.927094,328.341949 263.141632,321.220551 262.842834,314.120758 
	C262.676117,310.159698 263.981903,308.326294 267.617065,306.338409 
	C275.290100,302.142578 283.290771,297.816437 289.517792,291.836700 
	C311.894958,270.348083 318.403748,243.378662 312.888153,213.592682 
	C306.912903,181.324463 287.011780,159.746277 257.576965,145.831772 
	C251.883926,143.699936 246.445724,141.794769 240.949005,139.784225 
	C240.890503,139.678848 240.670486,139.777313 240.410690,139.526215 
	C238.762436,138.971970 237.373993,138.668854 235.636414,138.216476 
	C234.533279,138.012833 233.779251,137.958435 232.759216,137.659409 
	C229.695068,138.300461 226.896896,139.186127 223.857056,139.751312 
	C223.519379,137.371399 223.192856,135.290558 223.381836,133.257645 
	C223.658920,130.277054 224.304962,127.330780 224.825027,124.016808 
	C227.476990,116.147713 230.171936,108.656090 232.656677,101.095375 
	C233.161865,99.558144 232.875061,97.760628 232.812454,95.725739 
	C230.938782,94.974594 229.205994,94.580826 227.331894,94.209747 
	C227.190567,94.232445 226.990311,94.027870 226.980255,93.593399 
	C226.931778,92.001198 226.893341,90.843468 226.871033,89.324631 
	C227.706253,86.641457 228.525345,84.319397 229.637299,81.859322 
	C232.279114,79.134590 234.628067,76.547874 236.985458,73.982872 
	C236.993881,74.004578 236.959503,73.972130 237.298798,73.990379 
	C238.090546,73.995125 238.542999,73.981621 239.297638,73.872253 
	C240.093536,72.911018 240.587265,72.045647 241.060120,71.133110 
	C241.039276,71.085945 241.134903,71.047310 241.507263,71.015121 
	C247.740509,70.207634 247.094757,65.880661 246.889099,61.584808 
	C246.884171,61.373020 247.081665,60.998169 247.081665,60.998165 
	C248.794830,62.243336 250.713089,63.283779 252.190704,64.764069 
	C279.016937,91.638695 305.792694,118.563683 332.573639,145.483490 
	C348.299683,161.291046 363.963654,177.160782 379.753052,192.904755 
	C392.532440,205.647354 405.457550,218.243835 418.647217,231.318771 
	C418.992645,232.147110 419.008820,232.561844 419.018616,233.447479 
	C419.008881,269.575165 418.972717,305.232025 419.087585,340.888428 
	C419.094147,342.927673 420.334076,344.962891 421.000000,347.000000 
	C421.000000,347.750000 421.000000,348.500000 420.782227,349.926544 
	C420.709625,352.735382 420.854828,354.867706 421.000000,357.000000 
	C421.000000,362.688049 421.000000,368.376068 420.646301,374.560425 
	C419.842102,375.925568 419.278839,376.754883 418.958221,377.669281 
	C414.788361,389.560699 408.446014,399.822479 397.354095,406.513824 
	C392.594940,409.384888 387.786194,412.173767 383.000000,415.000000 
	C307.979095,415.000000 232.958206,415.000000 157.271530,414.796997 
	C156.090424,414.378448 155.575104,414.162933 155.059784,413.947418 
	C152.119980,410.656769 149.327774,407.218658 146.213913,404.101929 
	C134.983322,392.860870 123.644386,381.728027 112.648033,370.266205 
	C167.702026,369.986237 222.454391,370.004486 277.206696,369.960205 
	C279.127777,369.958649 281.048370,369.334442 283.259338,368.827820 
	C280.734741,364.773712 277.553467,361.103210 275.174286,356.970856 
	C268.174194,344.812500 258.102051,341.225159 244.203491,342.253235 
	C227.187866,343.511780 209.991516,342.326935 192.873291,342.198547 
z"/>
<path fill="#FBFCFD" opacity="1.000000" stroke="none" 
	d="
M3.254891,354.021729 
	C3.393809,369.380615 5.407443,384.080933 15.919470,396.454285 
	C22.999262,404.787659 31.600689,410.595795 41.872795,414.669281 
	C28.345467,415.000000 14.690933,415.000000 1.042101,415.000000 
	C1.047801,277.000000 1.047801,138.999985 1.047801,1.000000 
	C13.417962,1.000000 25.740322,1.000000 38.531342,1.000000 
	C38.156414,1.676461 37.404327,2.541671 36.455734,3.001517 
	C17.467222,12.206493 6.089152,26.875391 3.822340,48.826794 
	C3.804820,49.650887 3.845259,49.818245 3.885698,49.985600 
	C3.594326,52.057667 3.302954,54.129734 2.924715,56.990696 
	C2.588880,62.266186 2.123549,66.752762 2.123244,71.239372 
	C2.118302,144.027588 2.097558,216.815964 2.259182,289.603912 
	C2.306862,311.077118 2.907603,332.549164 3.254891,354.021729 
z"/>
<path fill="#FBFBFC" opacity="1.000000" stroke="none" 
	d="
M383.468658,415.000000 
	C387.786194,412.173767 392.594940,409.384888 397.354095,406.513824 
	C408.446014,399.822479 414.788361,389.560699 418.958221,377.669281 
	C419.278839,376.754883 419.842102,375.925568 420.646301,375.028351 
	C421.000000,388.258087 421.000000,401.516205 421.000000,415.000000 
	C408.646698,415.000000 396.291992,415.000000 383.468658,415.000000 
z"/>
<path fill="#FCFDFD" opacity="1.000000" stroke="none" 
	d="
M421.000000,40.531342 
	C416.905579,31.513273 413.103577,21.616436 404.899384,14.942457 
	C398.593567,9.812774 391.193115,6.028692 384.139740,1.323106 
	C396.262817,1.000000 408.525665,1.000000 421.000000,1.000000 
	C421.000000,14.020131 421.000000,27.041407 421.000000,40.531342 
z"/>
<path fill="#416182" opacity="1.000000" stroke="none" 
	d="
M419.024994,232.976562 
	C419.008820,232.561844 418.992645,232.147110 418.968201,231.423340 
	C418.974182,172.371933 418.974640,113.629570 419.056946,54.887325 
	C419.059998,52.698315 419.860229,50.510414 420.644470,48.160999 
	C421.000000,109.687561 421.000000,171.375122 420.753540,233.402252 
	C420.013031,233.486740 419.519012,233.231659 419.024994,232.976562 
z"/>
<path fill="#304A64" opacity="1.000000" stroke="none" 
	d="
M419.018616,233.447495 
	C419.519012,233.231659 420.013031,233.486740 420.753540,233.870911 
	C421.000000,271.354218 421.000000,308.708466 421.000000,346.531342 
	C420.334076,344.962891 419.094147,342.927673 419.087585,340.888428 
	C418.972717,305.232025 419.008881,269.575165 419.018616,233.447495 
z"/>
<path fill="#45648C" opacity="1.000000" stroke="none" 
	d="
M58.468662,415.000000 
	C59.421642,414.669495 60.842720,414.053375 62.265003,414.050598 
	C90.978134,413.994049 119.691422,414.002808 148.404648,414.030151 
	C149.374191,414.031067 150.343414,414.361816 151.656387,414.769409 
	C120.979103,415.000000 89.958214,415.000000 58.468662,415.000000 
z"/>
<path fill="#304A64" opacity="1.000000" stroke="none" 
	d="
M421.000000,356.562500 
	C420.854828,354.867706 420.709625,352.735382 420.782227,350.301544 
	C421.000000,352.041656 421.000000,354.083344 421.000000,356.562500 
z"/>
<path fill="#45648C" opacity="1.000000" stroke="none" 
	d="
M154.858856,414.097900 
	C155.575104,414.162933 156.090424,414.378448 156.802872,414.796997 
	C156.250000,415.000000 155.500000,415.000000 154.375000,415.000000 
	C154.219315,414.749481 154.438614,414.498932 154.858856,414.097900 
z"/>
<path fill="#274A69" opacity="1.000000" stroke="none" 
	d="
M181.032578,249.991745 
	C175.033798,243.561737 169.035004,237.131729 163.346024,230.359909 
	C165.323608,230.475891 166.966599,231.106293 168.665070,231.350357 
	C171.108582,231.701447 173.592484,231.771469 176.296722,231.930222 
	C176.534302,231.898987 177.007950,231.972229 177.076141,232.216949 
	C181.426651,231.769684 182.569061,230.137619 183.075729,225.398849 
	C183.270874,223.573471 184.074600,220.897964 185.393570,220.267303 
	C190.921738,217.624084 191.821228,216.219482 190.029022,209.720459 
	C189.312790,209.097610 188.753860,208.763046 188.680893,208.352798 
	C189.990753,208.192184 190.822937,207.986603 191.637161,208.042480 
	C195.964874,208.339432 198.634857,207.173569 199.645935,202.201141 
	C200.712387,196.956375 203.325912,192.046722 204.829391,186.864700 
	C206.456848,181.255341 207.582794,175.500488 208.923798,169.451828 
	C210.533447,166.350159 212.146820,163.605728 214.078583,160.863708 
	C216.205322,159.022278 218.482056,158.247482 221.194641,158.191376 
	C221.936325,158.973022 222.464813,159.544144 223.140717,160.398193 
	C223.901871,160.779953 224.515610,160.878799 225.308472,161.109375 
	C225.916595,161.261566 226.345612,161.282043 227.133698,161.520615 
	C228.323212,161.828400 229.153687,161.918091 230.282501,162.214218 
	C232.719910,162.932831 234.858978,163.445007 237.131973,164.074402 
	C237.265915,164.191620 237.618713,164.144318 237.881012,164.402878 
	C241.785736,166.047897 245.428162,167.434357 249.115601,168.913391 
	C249.160629,169.005981 249.346054,168.916443 249.353897,169.025665 
	C249.361740,169.134903 249.707626,169.066467 249.962845,169.347244 
	C251.362778,170.137192 252.507492,170.646362 253.852509,171.438202 
	C259.006409,175.293640 263.959991,178.866425 268.918671,182.529205 
	C268.923737,182.619202 269.101440,182.649689 269.275970,182.913971 
	C270.250122,183.848892 271.049713,184.519531 271.854767,185.151672 
	C271.860229,185.113190 271.782501,185.110947 271.866608,185.379974 
	C272.260101,185.847137 272.569489,186.045273 272.880890,186.199463 
	C272.882904,186.155518 272.795074,186.160782 272.907654,186.478806 
	C275.020081,189.181488 277.019897,191.566147 279.103943,194.294434 
	C285.851013,205.298019 288.321960,217.045471 287.793518,229.434219 
	C286.782959,253.125992 277.213623,271.418427 254.373337,280.978210 
	C238.046265,287.811920 220.974686,288.018860 203.842560,285.683929 
	C200.802780,285.269653 197.626175,282.302856 195.537003,279.694397 
	C194.093872,277.892578 194.413422,274.678986 194.020416,271.844421 
	C193.979706,271.093079 193.863846,270.593597 193.625595,269.634033 
	C193.503204,263.501190 193.503204,257.828491 193.503204,251.790848 
	C189.279007,251.790848 186.163483,251.790848 182.960327,251.514618 
	C182.259338,250.822830 181.645950,250.407288 181.032578,249.991745 
z"/>
<path fill="#F8FBFA" opacity="1.000000" stroke="none" 
	d="
M225.129364,160.977631 
	C224.515610,160.878799 223.901871,160.779953 223.148773,159.982849 
	C222.821976,156.798920 223.709854,153.798996 219.871399,152.600098 
	C220.069611,150.098602 220.398773,147.993744 221.052292,145.978302 
	C222.537262,146.714951 223.697891,147.362198 224.908112,148.372971 
	C225.014755,149.712936 225.071808,150.689362 225.102295,152.060349 
	C225.191513,158.948029 229.009308,155.981705 232.294296,155.032379 
	C233.789902,153.942352 234.979019,152.979889 236.460342,151.949463 
	C238.437805,151.029694 239.588806,150.142029 236.859314,148.825638 
	C236.772766,148.651413 236.867599,148.274063 237.006271,147.969543 
	C236.266510,145.831619 235.429214,143.974106 234.405502,142.225754 
	C234.345276,142.122879 232.782303,142.899918 231.595001,143.304489 
	C230.845016,143.262253 230.418701,143.183029 229.947906,142.795349 
	C227.987244,138.945175 232.559586,139.823318 233.025223,137.904037 
	C233.779251,137.958435 234.533279,138.012833 235.822021,138.532516 
	C237.794647,139.257645 239.232574,139.517471 240.670486,139.777313 
	C240.670486,139.777313 240.890503,139.678848 241.064957,140.117798 
	C246.770218,142.390640 252.301010,144.224533 257.831818,146.058426 
	C287.011780,159.746277 306.912903,181.324463 312.888153,213.592682 
	C318.403748,243.378662 311.894958,270.348083 289.517792,291.836700 
	C283.290771,297.816437 275.290100,302.142578 267.617065,306.338409 
	C263.981903,308.326294 262.676117,310.159698 262.842834,314.120758 
	C263.141632,321.220551 262.927094,328.341949 262.927094,335.726593 
	C250.822769,335.726593 239.242996,335.726593 227.159973,335.726593 
	C227.159973,326.948669 227.159973,318.205322 227.159973,308.954254 
	C217.860291,307.173218 208.929138,305.518036 200.021439,303.745087 
	C182.678040,300.293182 178.776642,295.900330 177.526123,277.116089 
	C175.047348,278.834534 173.233246,280.092194 170.724197,281.596039 
	C159.011475,281.905426 147.993698,281.968628 136.975906,282.031860 
	C135.562469,280.135162 132.915512,278.110596 133.095016,276.379028 
	C133.262466,274.763641 136.433807,273.459625 139.112411,272.000854 
	C147.255753,272.009247 154.570160,271.988770 161.883224,272.078339 
	C166.519440,272.135132 171.607925,270.775696 174.827209,275.878143 
	C175.009583,276.167206 176.049011,275.915527 176.688095,275.915527 
	C176.688095,270.822968 176.688095,265.936096 176.688095,261.028625 
	C161.248871,261.028625 146.135956,261.028625 130.678986,260.778046 
	C130.165390,257.831238 129.995880,255.134995 129.785629,251.790848 
	C148.060196,251.790848 165.554077,251.790848 183.047958,251.790848 
	C186.163483,251.790848 189.279007,251.790848 193.503204,251.790848 
	C193.503204,257.828491 193.503204,263.501190 193.518585,269.878540 
	C193.671082,271.087555 193.808182,271.591919 193.945282,272.096283 
	C194.413422,274.678986 194.093872,277.892578 195.537003,279.694397 
	C197.626175,282.302856 200.802780,285.269653 203.842560,285.683929 
	C220.974686,288.018860 238.046265,287.811920 254.373337,280.978210 
	C277.213623,271.418427 286.782959,253.125992 287.793518,229.434219 
	C288.321960,217.045471 285.851013,205.298019 279.167786,193.959000 
	C280.314636,187.976028 277.081085,186.598862 272.795074,186.160782 
	C272.795074,186.160782 272.882904,186.155518 272.752869,185.961914 
	C272.342743,185.549179 272.062622,185.330063 271.782501,185.110947 
	C271.782501,185.110947 271.860229,185.113190 271.844299,184.760391 
	C270.919403,183.821625 270.010406,183.235657 269.101440,182.649689 
	C269.101440,182.649689 268.923737,182.619202 268.922729,182.133041 
	C265.765411,175.335617 261.425232,170.747452 253.652222,171.155533 
	C252.507492,170.646362 251.362778,170.137192 249.911880,169.303223 
	C249.605698,168.978439 249.346054,168.916443 249.346054,168.916443 
	C249.346054,168.916443 249.160629,169.005981 249.068207,168.557831 
	C246.451492,163.175186 241.898895,164.049866 237.618713,164.144318 
	C237.618713,164.144318 237.265915,164.191620 236.982513,163.734680 
	C234.460785,162.854431 232.222458,162.431122 229.984146,162.007797 
	C229.153687,161.918091 228.323212,161.828400 226.945862,161.421112 
	C225.975784,161.061554 225.552567,161.019592 225.129364,160.977631 
M253.266678,296.614868 
	C251.068680,292.269470 247.253296,290.277710 243.010193,292.187622 
	C240.459976,293.335541 237.615936,296.639160 237.335648,299.236420 
	C237.051804,301.866333 239.094040,305.842987 241.362350,307.327606 
	C243.406616,308.665588 247.523590,308.277252 250.032379,307.131134 
	C253.903931,305.362427 254.749847,301.442688 253.266678,296.614868 
z"/>
<path fill="#FAFCFB" opacity="1.000000" stroke="none" 
	d="
M213.760193,160.861313 
	C212.146820,163.605728 210.533447,166.350159 208.652985,169.695496 
	C204.108734,182.416397 199.831573,194.536407 195.516403,206.764145 
	C183.342941,202.681473 171.759842,198.796783 160.176727,194.912109 
	C160.019516,193.436905 159.340271,191.780060 159.781158,190.512955 
	C171.780762,156.025665 183.885406,121.574867 196.032593,87.139168 
	C196.420425,86.039749 197.442139,85.163940 198.783936,84.377365 
	C208.596451,87.723183 217.793381,90.875526 226.990311,94.027870 
	C226.990311,94.027870 227.190567,94.232445 227.599884,94.469742 
	C229.657242,95.165726 231.305283,95.624413 232.953339,96.083107 
	C232.875061,97.760628 233.161865,99.558144 232.656677,101.095375 
	C230.171936,108.656090 227.476990,116.147713 224.559448,124.293144 
	C220.714066,135.083771 217.085388,145.218414 213.699112,155.433426 
	C213.160721,157.057495 213.712448,159.042938 213.760193,160.861313 
z"/>
<path fill="#F8FBFA" opacity="1.000000" stroke="none" 
	d="
M192.449692,342.388733 
	C209.991516,342.326935 227.187866,343.511780 244.203491,342.253235 
	C258.102051,341.225159 268.174194,344.812500 275.174286,356.970856 
	C277.553467,361.103210 280.734741,364.773712 282.803284,368.729492 
	C230.902130,368.797333 179.747162,368.785065 128.592194,368.792603 
	C122.764946,368.793457 116.937721,368.905273 111.110481,368.965637 
	C111.536728,367.480591 111.679558,365.829071 112.437447,364.538818 
	C116.051743,358.386017 120.004868,352.427124 123.479172,346.199402 
	C125.101089,343.292084 127.074142,342.553619 130.244644,342.572235 
	C150.837753,342.693329 171.432129,342.601257 192.449692,342.388733 
z"/>
<path fill="#546D8D" opacity="1.000000" stroke="none" 
	d="
M3.586342,353.836517 
	C2.907603,332.549164 2.306862,311.077118 2.259182,289.603912 
	C2.097558,216.815964 2.118302,144.027588 2.123244,71.239372 
	C2.123549,66.752762 2.588880,62.266186 2.978234,57.385231 
	C3.741746,59.223557 4.906694,61.455559 4.909490,63.689018 
	C5.001621,137.296371 4.982302,210.903854 4.979585,284.511322 
	C4.978805,305.660980 5.005464,326.810730 4.931860,347.960144 
	C4.925255,349.858337 4.271175,351.754303 3.586342,353.836517 
z"/>
<path fill="#2B4A66" opacity="1.000000" stroke="none" 
	d="
M131.023056,261.028625 
	C146.135956,261.028625 161.248871,261.028625 176.688095,261.028625 
	C176.688095,265.936096 176.688095,270.822968 176.688095,275.915527 
	C176.049011,275.915527 175.009583,276.167206 174.827209,275.878143 
	C171.607925,270.775696 166.519440,272.135132 161.883224,272.078339 
	C154.570160,271.988770 147.255753,272.009247 139.480194,271.898926 
	C136.427505,268.723114 133.836517,265.631561 131.098389,262.020264 
	C130.951248,261.500549 131.023056,261.028625 131.023056,261.028625 
z"/>
<path fill="#EEF6F7" opacity="1.000000" stroke="none" 
	d="
M246.957855,60.662605 
	C247.081665,60.998169 246.884171,61.373020 246.631195,61.829681 
	C245.691864,64.105263 245.005524,65.924187 244.244583,67.940865 
	C231.767578,63.688248 219.591858,59.538322 207.416153,55.388401 
	C207.676590,54.240288 207.937027,53.092171 208.422760,51.397324 
	C208.827118,50.611904 208.868759,50.351223 208.772995,50.068550 
	C209.881836,49.213058 211.327499,47.393772 212.049194,47.646004 
	C223.698563,51.717346 235.255859,56.052048 246.957855,60.662605 
z"/>
<path fill="#EDF5F6" opacity="1.000000" stroke="none" 
	d="
M213.025558,71.280785 
	C211.336105,67.427917 209.646667,63.575043 208.349472,59.404049 
	C219.539444,63.073055 230.337173,67.060181 241.134903,71.047310 
	C241.134903,71.047310 241.039276,71.085945 240.827728,71.276917 
	C240.044479,71.900368 239.472778,72.332840 238.605865,72.817284 
	C237.860275,73.236877 237.409882,73.604500 236.959503,73.972122 
	C236.959503,73.972130 236.993881,74.004578 236.633759,74.053452 
	C232.614883,77.249641 228.837708,77.236252 224.519775,75.214943 
	C220.873520,73.508064 216.870605,72.563019 213.025558,71.280785 
z"/>
<path fill="#EFF6F6" opacity="1.000000" stroke="none" 
	d="
M177.007950,231.972229 
	C177.007950,231.972229 176.534302,231.898987 176.031799,231.683380 
	C169.998444,229.622223 164.467590,227.776703 158.936722,225.931168 
	C158.936722,225.931168 158.716156,225.792480 158.479034,225.613678 
	C157.848633,225.240677 157.455353,225.046478 157.062088,224.852280 
	C158.301544,221.413071 159.541000,217.973877 161.274673,214.214294 
	C168.178772,216.195053 174.588654,218.496185 181.272812,220.895782 
	C179.713577,224.945358 178.360764,228.458801 177.007950,231.972229 
z"/>
<path fill="#3C5466" opacity="1.000000" stroke="none" 
	d="
M160.180115,195.256195 
	C171.759842,198.796783 183.342941,202.681473 195.516403,206.764145 
	C199.831573,194.536407 204.108734,182.416397 208.656677,170.052734 
	C207.582794,175.500488 206.456848,181.255341 204.829391,186.864700 
	C203.325912,192.046722 200.712387,196.956375 199.645935,202.201141 
	C198.634857,207.173569 195.964874,208.339432 191.637161,208.042480 
	C190.822937,207.986603 189.990753,208.192184 188.331970,208.293076 
	C178.696793,205.232407 169.896500,202.155777 161.076675,198.866486 
	C161.057129,198.653839 161.027191,198.227783 161.027191,198.227783 
	C160.745972,197.351944 160.464752,196.476120 160.180115,195.256195 
z"/>
<path fill="#EFF6F6" opacity="1.000000" stroke="none" 
	d="
M229.344437,81.997345 
	C228.525345,84.319397 227.706253,86.641457 226.498856,89.441833 
	C219.991608,87.975090 213.872681,86.030029 207.753754,84.084961 
	C209.209061,80.819778 210.664368,77.554596 212.766174,74.516090 
	C217.571869,76.221130 221.775818,77.588814 225.864456,79.241760 
	C227.180664,79.773880 228.193054,81.057510 229.344437,81.997345 
z"/>
<path fill="#395168" opacity="1.000000" stroke="none" 
	d="
M160.694489,198.297699 
	C161.027191,198.227783 161.057129,198.653839 160.974365,199.220398 
	C159.956573,202.379410 159.021515,204.971863 157.962311,207.908554 
	C167.823807,211.367523 177.292419,214.688690 187.016800,218.099564 
	C188.161804,215.176727 189.174057,212.592743 190.186310,210.008759 
	C191.821228,216.219482 190.921738,217.624084 185.393570,220.267303 
	C184.074600,220.897964 183.270874,223.573471 183.075729,225.398849 
	C182.569061,230.137619 181.426651,231.769684 177.076141,232.216949 
	C178.360764,228.458801 179.713577,224.945358 181.272812,220.895782 
	C174.588654,218.496185 168.178772,216.195053 161.385696,213.861908 
	C160.821671,212.878372 160.944672,211.686691 160.412231,211.013062 
	C155.891159,205.293167 155.852997,205.015015 160.694489,198.297699 
z"/>
<path fill="#334751" opacity="1.000000" stroke="none" 
	d="
M111.233551,369.158173 
	C116.937721,368.905273 122.764946,368.793457 128.592194,368.792603 
	C179.747162,368.785065 230.902130,368.797333 282.513123,368.902100 
	C281.048370,369.334442 279.127777,369.958649 277.206696,369.960205 
	C222.454391,370.004486 167.702026,369.986237 112.482574,369.977173 
	C111.744316,369.821991 111.524696,369.613464 111.233551,369.158173 
z"/>
<path fill="#42576A" opacity="1.000000" stroke="none" 
	d="
M241.507263,71.015121 
	C230.337173,67.060181 219.539444,63.073055 208.382187,59.014404 
	C207.766464,57.931786 207.510284,56.920696 207.335114,55.649002 
	C219.591858,59.538322 231.767578,63.688248 244.244583,67.940865 
	C245.005524,65.924187 245.691864,64.105263 246.636108,62.041473 
	C247.094757,65.880661 247.740509,70.207634 241.507263,71.015121 
z"/>
<path fill="#4B6A85" opacity="1.000000" stroke="none" 
	d="
M130.678986,260.778046 
	C131.023056,261.028625 130.951248,261.500549 130.908554,261.735046 
	C130.320511,258.608734 129.353394,255.222961 129.549957,251.906143 
	C129.594650,251.151779 133.662750,250.119278 135.888824,250.094391 
	C150.620407,249.929718 165.354645,250.004929 180.560303,249.996887 
	C181.645950,250.407288 182.259338,250.822830 182.960327,251.514618 
	C165.554077,251.790848 148.060196,251.790848 129.785629,251.790848 
	C129.995880,255.134995 130.165390,257.831238 130.678986,260.778046 
z"/>
<path fill="#415867" opacity="1.000000" stroke="none" 
	d="
M207.313568,84.080551 
	C213.872681,86.030029 219.991608,87.975090 226.482727,89.802948 
	C226.893341,90.843468 226.931778,92.001198 226.980255,93.593399 
	C217.793381,90.875526 208.596451,87.723183 199.138184,84.334679 
	C201.542374,84.091057 204.207886,84.083595 207.313568,84.080551 
z"/>
<path fill="#46576A" opacity="1.000000" stroke="none" 
	d="
M229.637299,81.859322 
	C228.193054,81.057510 227.180664,79.773880 225.864456,79.241760 
	C221.775818,77.588814 217.571869,76.221130 213.126953,74.535736 
	C212.892258,73.567078 212.943253,72.805466 213.009903,71.662323 
	C216.870605,72.563019 220.873520,73.508064 224.519775,75.214943 
	C228.837708,77.236252 232.614883,77.249641 236.625336,74.031738 
	C234.628067,76.547874 232.279114,79.134590 229.637299,81.859322 
z"/>
<path fill="#2E485E" opacity="1.000000" stroke="none" 
	d="
M137.039536,282.325378 
	C147.993698,281.968628 159.011475,281.905426 170.495117,281.862671 
	C169.313370,282.588379 167.679764,283.862762 166.015900,283.903595 
	C157.286652,284.117615 148.549774,284.019379 139.330627,284.053040 
	C138.264847,283.590607 137.684006,283.104736 137.039536,282.325378 
z"/>
<path fill="#395168" opacity="1.000000" stroke="none" 
	d="
M159.006516,226.266922 
	C164.467590,227.776703 169.998444,229.622223 175.794220,231.714600 
	C173.592484,231.771469 171.108582,231.701447 168.665070,231.350357 
	C166.966599,231.106293 165.323608,230.475891 163.233154,230.035507 
	C161.565750,228.902832 160.321030,227.752762 159.006516,226.266922 
z"/>
<path fill="#42576A" opacity="1.000000" stroke="none" 
	d="
M208.605209,50.107086 
	C208.868759,50.351223 208.827118,50.611904 208.475586,50.958767 
	C208.225525,50.830467 208.124176,50.597416 208.089264,50.354801 
	C208.081787,50.302853 208.315063,50.216259 208.605209,50.107086 
z"/>
<path fill="#395168" opacity="1.000000" stroke="none" 
	d="
M157.307648,225.052231 
	C157.455353,225.046478 157.848633,225.240677 158.406479,225.721878 
	C158.231781,225.756653 157.892502,225.504410 157.307648,225.052231 
z"/>
<path fill="#546D8D" opacity="1.000000" stroke="none" 
	d="
M4.008789,49.892349 
	C3.845259,49.818245 3.804820,49.650887 3.857952,49.242840 
	C4.235883,49.223003 4.296001,49.488651 4.008789,49.892349 
z"/>
<path fill="#3E5567" opacity="1.000000" stroke="none" 
	d="
M214.078598,160.863708 
	C213.712448,159.042938 213.160721,157.057495 213.699112,155.433426 
	C217.085388,145.218414 220.714066,135.083771 224.528198,124.646217 
	C224.304962,127.330780 223.658920,130.277054 223.381836,133.257645 
	C223.192856,135.290558 223.519379,137.371399 223.729126,140.063141 
	C222.804535,142.426605 221.766251,144.157745 220.727936,145.888885 
	C220.398773,147.993744 220.069611,150.098602 219.809967,152.966644 
	C220.246811,155.146820 220.614136,156.563828 220.981476,157.980835 
	C218.482056,158.247482 216.205322,159.022278 214.078598,160.863708 
z"/>
<path fill="#EBF4F7" opacity="1.000000" stroke="none" 
	d="
M221.052307,145.978302 
	C221.766251,144.157745 222.804535,142.426605 223.970779,140.383636 
	C226.896896,139.186127 229.695068,138.300461 232.759216,137.659409 
	C232.559586,139.823318 227.987244,138.945175 229.688721,142.998642 
	C227.935501,145.010056 226.397018,146.509750 224.858521,148.009445 
	C223.697891,147.362198 222.537262,146.714951 221.052307,145.978302 
z"/>
<path fill="#EBF4F7" opacity="1.000000" stroke="none" 
	d="
M257.576965,145.831772 
	C252.301010,144.224533 246.770218,142.390640 241.123459,140.223175 
	C246.445724,141.794769 251.883926,143.699936 257.576965,145.831772 
z"/>
<path fill="#415867" opacity="1.000000" stroke="none" 
	d="
M232.812439,95.725739 
	C231.305283,95.624413 229.657242,95.165726 227.741211,94.447044 
	C229.205994,94.580826 230.938782,94.974594 232.812439,95.725739 
z"/>
<path fill="#EBF4F7" opacity="1.000000" stroke="none" 
	d="
M240.410690,139.526215 
	C239.232574,139.517471 237.794647,139.257645 236.171143,138.681763 
	C237.373993,138.668854 238.762436,138.971970 240.410690,139.526215 
z"/>
<path fill="#42576A" opacity="1.000000" stroke="none" 
	d="
M238.901093,72.765320 
	C239.472778,72.332840 240.044479,71.900368 240.848572,71.324081 
	C240.587265,72.045647 240.093536,72.911018 239.280563,73.571518 
	C238.941238,73.166206 238.921158,72.965767 238.901093,72.765320 
z"/>
<path fill="#46576A" opacity="1.000000" stroke="none" 
	d="
M238.605881,72.817291 
	C238.921158,72.965767 238.941238,73.166206 238.978363,73.667381 
	C238.542999,73.981621 238.090546,73.995125 237.298798,73.990372 
	C237.409882,73.604500 237.860275,73.236877 238.605881,72.817291 
z"/>
<path fill="#EEF5F6" opacity="1.000000" stroke="none" 
	d="
M190.029022,209.720459 
	C189.174057,212.592743 188.161804,215.176727 187.016800,218.099564 
	C177.292419,214.688690 167.823807,211.367523 157.962311,207.908554 
	C159.021515,204.971863 159.956573,202.379410 160.993927,199.433044 
	C169.896500,202.155777 178.696793,205.232407 187.846008,208.368759 
	C188.753860,208.763046 189.312790,209.097610 190.029022,209.720459 
z"/>
<path fill="#EBF4F7" opacity="1.000000" stroke="none" 
	d="
M253.852509,171.438202 
	C261.425232,170.747452 265.765411,175.335617 268.917664,182.043045 
	C263.959991,178.866425 259.006409,175.293640 253.852509,171.438202 
z"/>
<path fill="#EBF4F7" opacity="1.000000" stroke="none" 
	d="
M237.881012,164.402878 
	C241.898895,164.049866 246.451492,163.175186 249.023193,168.465256 
	C245.428162,167.434357 241.785736,166.047897 237.881012,164.402878 
z"/>
<path fill="#EBF4F7" opacity="1.000000" stroke="none" 
	d="
M272.907654,186.478806 
	C277.081085,186.598862 280.314636,187.976028 279.083557,193.615387 
	C277.019897,191.566147 275.020081,189.181488 272.907654,186.478806 
z"/>
<path fill="#EBF4F7" opacity="1.000000" stroke="none" 
	d="
M221.194641,158.191376 
	C220.614136,156.563828 220.246811,155.146820 219.940918,153.363281 
	C223.709854,153.798996 222.821976,156.798920 223.001373,159.699921 
	C222.464813,159.544144 221.936325,158.973022 221.194641,158.191376 
z"/>
<path fill="#EBF4F7" opacity="1.000000" stroke="none" 
	d="
M230.282501,162.214218 
	C232.222458,162.431122 234.460785,162.854431 236.848572,163.617462 
	C234.858978,163.445007 232.719910,162.932831 230.282501,162.214218 
z"/>
<path fill="#EBF4F7" opacity="1.000000" stroke="none" 
	d="
M269.275970,182.913971 
	C270.010406,183.235657 270.919403,183.821625 271.838837,184.798889 
	C271.049713,184.519531 270.250122,183.848892 269.275970,182.913971 
z"/>
<path fill="#4B6A85" opacity="1.000000" stroke="none" 
	d="
M194.020432,271.844421 
	C193.808182,271.591919 193.671082,271.087555 193.640991,270.338684 
	C193.863846,270.593597 193.979706,271.093079 194.020432,271.844421 
z"/>
<path fill="#EBF4F7" opacity="1.000000" stroke="none" 
	d="
M225.308472,161.109360 
	C225.552567,161.019592 225.975784,161.061554 226.586823,161.203033 
	C226.345612,161.282043 225.916595,161.261566 225.308472,161.109360 
z"/>
<path fill="#EBF4F7" opacity="1.000000" stroke="none" 
	d="
M249.353897,169.025665 
	C249.346054,168.916443 249.605698,168.978439 249.656662,169.022461 
	C249.707626,169.066467 249.361740,169.134903 249.353897,169.025665 
z"/>
<path fill="#EBF4F7" opacity="1.000000" stroke="none" 
	d="
M271.866608,185.379974 
	C272.062622,185.330063 272.342743,185.549179 272.750854,186.005859 
	C272.569489,186.045273 272.260101,185.847137 271.866608,185.379974 
z"/>
<path fill="#2F4D67" opacity="1.000000" stroke="none" 
	d="
M253.456100,296.957062 
	C254.749847,301.442688 253.903931,305.362427 250.032379,307.131134 
	C247.523590,308.277252 243.406616,308.665588 241.362350,307.327606 
	C239.094040,305.842987 237.051804,301.866333 237.335648,299.236420 
	C237.615936,296.639160 240.459976,293.335541 243.010193,292.187622 
	C247.253296,290.277710 251.068680,292.269470 253.456100,296.957062 
z"/>
<path fill="#365067" opacity="1.000000" stroke="none" 
	d="
M224.908112,148.372971 
	C226.397018,146.509750 227.935501,145.010056 229.733185,143.307068 
	C230.418701,143.183029 230.845016,143.262253 231.845947,143.514450 
	C233.902908,145.216293 235.385254,146.745178 236.867599,148.274063 
	C236.867599,148.274063 236.772766,148.651413 236.731583,149.113098 
	C236.516312,150.388992 236.342224,151.203201 236.168137,152.017426 
	C234.979019,152.979889 233.789902,153.942352 231.922424,154.973618 
	C229.205688,153.916885 227.167282,152.791336 225.128876,151.665802 
	C225.071808,150.689362 225.014755,149.712936 224.908112,148.372971 
z"/>
<path fill="#EBF4F7" opacity="1.000000" stroke="none" 
	d="
M237.006271,147.969543 
	C235.385254,146.745178 233.902908,145.216293 232.169617,143.477448 
	C232.782303,142.899918 234.345276,142.122879 234.405502,142.225754 
	C235.429214,143.974106 236.266510,145.831619 237.006271,147.969543 
z"/>
<path fill="#EBF4F7" opacity="1.000000" stroke="none" 
	d="
M225.102295,152.060349 
	C227.167282,152.791336 229.205688,153.916885 231.615936,155.101196 
	C229.009308,155.981705 225.191513,158.948029 225.102295,152.060349 
z"/>
<path fill="#EBF4F7" opacity="1.000000" stroke="none" 
	d="
M236.460342,151.949463 
	C236.342224,151.203201 236.516312,150.388992 236.818130,149.287323 
	C239.588806,150.142029 238.437805,151.029694 236.460342,151.949463 
z"/>
</svg>