<svg width="34" height="34" viewBox="0 0 34 34" fill="none" xmlns="http://www.w3.org/2000/svg">
<circle cx="17" cy="17" r="17" fill="#6978F8"/>
<g clip-path="url(#clip0_216_20)">
<path d="M8 12C8 11.2044 8.31607 10.4413 8.87868 9.87868C9.44129 9.31607 10.2044 9 11 9H23C23.7956 9 24.5587 9.31607 25.1213 9.87868C25.6839 10.4413 26 11.2044 26 12V22C26 22.7956 25.6839 23.5587 25.1213 24.1213C24.5587 24.6839 23.7956 25 23 25H11C10.2044 25 9.44129 24.6839 8.87868 24.1213C8.31607 23.5587 8 22.7956 8 22V12Z" stroke="white" stroke-width="2" stroke-linecap="round" stroke-linejoin="round"/>
<path d="M12 15C12 15.5304 12.2107 16.0391 12.5858 16.4142C12.9609 16.7893 13.4696 17 14 17C14.5304 17 15.0391 16.7893 15.4142 16.4142C15.7893 16.0391 16 15.5304 16 15C16 14.4696 15.7893 13.9609 15.4142 13.5858C15.0391 13.2107 14.5304 13 14 13C13.4696 13 12.9609 13.2107 12.5858 13.5858C12.2107 13.9609 12 14.4696 12 15Z" stroke="white" stroke-width="2" stroke-linecap="round" stroke-linejoin="round"/>
<path d="M20 13H22" stroke="white" stroke-width="2" stroke-linecap="round" stroke-linejoin="round"/>
<path d="M20 17H22" stroke="white" stroke-width="2" stroke-linecap="round" stroke-linejoin="round"/>
<path d="M12 21H22" stroke="white" stroke-width="2" stroke-linecap="round" stroke-linejoin="round"/>
</g>
<defs>
<clipPath id="clip0_216_20">
<rect width="24" height="24" fill="white" transform="translate(5 5)"/>
</clipPath>
</defs>
</svg>
