<svg width="97" height="96" viewBox="0 0 97 96" fill="none" xmlns="http://www.w3.org/2000/svg">
<g filter="url(#filter0_d_111_35)">
<ellipse cx="48.5" cy="44" rx="44.5" ry="44" fill="white"/>
</g>
<g clip-path="url(#clip0_111_35)" filter="url(#filter1_d_111_35)">
<path d="M37.0416 32.25C34.2604 34.3422 32.268 37.1453 31.334 40.2797C30.4001 43.4142 30.5697 46.7286 31.82 49.7743C33.0703 52.8199 35.3409 55.4498 38.3243 57.3078C41.3077 59.1659 44.8598 60.1624 48.4999 60.1624C52.14 60.1624 55.6922 59.1659 58.6756 57.3078C61.659 55.4498 63.9295 52.8199 65.1798 49.7743C66.4301 46.7286 66.5998 43.4142 65.6658 40.2797C64.7319 37.1453 62.7394 34.3422 59.9583 32.25" stroke="#6978F8" stroke-width="2" stroke-linecap="round" stroke-linejoin="round"/>
<path d="M48.5 28.1667V44.5" stroke="#6978F8" stroke-width="2" stroke-linecap="round" stroke-linejoin="round"/>
</g>
<defs>
<filter id="filter0_d_111_35" x="0" y="0" width="97" height="96" filterUnits="userSpaceOnUse" color-interpolation-filters="sRGB">
<feFlood flood-opacity="0" result="BackgroundImageFix"/>
<feColorMatrix in="SourceAlpha" type="matrix" values="0 0 0 0 0 0 0 0 0 0 0 0 0 0 0 0 0 0 127 0" result="hardAlpha"/>
<feOffset dy="4"/>
<feGaussianBlur stdDeviation="2"/>
<feComposite in2="hardAlpha" operator="out"/>
<feColorMatrix type="matrix" values="0 0 0 0 0 0 0 0 0 0 0 0 0 0 0 0 0 0 0.25 0"/>
<feBlend mode="normal" in2="BackgroundImageFix" result="effect1_dropShadow_111_35"/>
<feBlend mode="normal" in="SourceGraphic" in2="effect1_dropShadow_111_35" result="shape"/>
</filter>
<filter id="filter1_d_111_35" x="17" y="20" width="63" height="57" filterUnits="userSpaceOnUse" color-interpolation-filters="sRGB">
<feFlood flood-opacity="0" result="BackgroundImageFix"/>
<feColorMatrix in="SourceAlpha" type="matrix" values="0 0 0 0 0 0 0 0 0 0 0 0 0 0 0 0 0 0 127 0" result="hardAlpha"/>
<feOffset dy="4"/>
<feGaussianBlur stdDeviation="2"/>
<feComposite in2="hardAlpha" operator="out"/>
<feColorMatrix type="matrix" values="0 0 0 0 0 0 0 0 0 0 0 0 0 0 0 0 0 0 0.25 0"/>
<feBlend mode="normal" in2="BackgroundImageFix" result="effect1_dropShadow_111_35"/>
<feBlend mode="normal" in="SourceGraphic" in2="effect1_dropShadow_111_35" result="shape"/>
</filter>
<clipPath id="clip0_111_35">
<rect width="55" height="49" fill="white" transform="translate(21 20)"/>
</clipPath>
</defs>
</svg>
