<svg width="30" height="30" viewBox="0 0 30 30" fill="none" xmlns="http://www.w3.org/2000/svg">
<path d="M15.9871 29.9033C12.8467 30.177 11.0907 28.9443 10.0974 25.8355C10.074 25.7622 10.0168 25.7011 9.94835 25.5907C9.4472 27.7256 8.30432 29.189 6.30295 29.7978C3.24007 30.7295 0.0608495 28.3266 0.0348974 24.9442C-0.0162363 18.2787 -0.00474419 11.6123 0.0282524 4.94654C0.0408385 2.40435 2.12811 0.251036 4.64853 0.0276329C7.05115 -0.185329 9.3178 1.60825 9.85634 4.14998C9.87885 4.25623 9.88881 4.36548 9.92457 4.60949C10.7456 1.60043 12.4512 -0.117016 15.3984 0.0523248C17.6783 0.183329 19.2365 1.77004 19.9555 4.5378C20.0605 4.22145 20.1268 4.03985 20.1815 3.85442C20.9199 1.34959 23.2476 -0.303157 25.5469 0.0466173C28.1409 0.441219 29.9577 2.50392 29.9743 5.2596C30.0132 11.7325 30.0004 18.2058 29.985 24.679C29.9788 27.3107 28.1671 29.5819 25.8646 29.9318C23.2621 30.3274 20.9555 28.7989 20.1868 26.1681C20.1429 26.0179 20.1083 25.8647 20.0069 25.4689C19.3963 27.8557 18.1358 29.3132 15.9871 29.9033ZM15.0643 28.7648C17.2386 28.5322 18.6322 27.2521 18.7712 24.9674C18.9296 22.3638 18.8383 19.7431 18.8543 17.1297C18.8573 16.6423 18.8547 16.1547 18.8547 15.64C16.2378 15.64 13.7154 15.64 11.1546 15.64C11.1546 18.835 11.0499 21.9729 11.1905 25.0983C11.2881 27.2672 12.8414 28.6213 15.0643 28.7648ZM21.199 9.02507C21.199 10.8006 21.199 12.5761 21.199 14.3517C21.6257 14.3517 21.9253 14.3517 22.2613 14.3517C22.2783 14.1769 22.3022 14.0448 22.3024 13.9127C22.3056 12.2338 22.3067 10.5549 22.3054 8.87605C22.3051 8.44392 22.4157 8.02654 22.8908 8.14049C23.1126 8.19369 23.387 8.59165 23.4131 8.85813C23.4853 9.59334 23.4395 10.3416 23.4397 11.0847C23.44 12.1741 23.4398 13.2634 23.4398 14.335C25.3082 14.335 27.0568 14.335 28.8466 14.335C28.8466 11.2469 28.8528 8.22314 28.8381 5.19951C28.8364 4.84873 28.745 4.49037 28.6504 4.1495C28.0923 2.13858 26.2929 1.0081 24.2064 1.34314C22.5652 1.60668 21.2229 3.33174 21.2023 5.22671C21.1891 6.43756 21.1993 7.6487 21.199 9.02507ZM8.09429 2.98212C6.91221 1.42759 5.31939 0.876514 3.74464 1.47723C2.0911 2.10801 1.14231 3.59131 1.14103 5.55583C1.1393 8.20097 1.14061 10.8461 1.14061 13.4912C1.14061 13.7809 1.1406 14.0705 1.1406 14.4059C1.5147 14.3871 1.76524 14.3744 2.05922 14.3596C2.07255 14.0441 2.09316 13.7748 2.09376 13.5054C2.09712 12.0175 2.09482 10.5296 2.09619 9.04171C2.09662 8.57359 2.15795 8.04568 2.71853 8.15135C2.95439 8.1958 3.25161 8.70063 3.27712 9.01822C3.35184 9.94829 3.30406 10.8895 3.30416 11.8263C3.30424 12.6677 3.30417 13.5092 3.30417 14.3341C5.20015 14.3341 6.97667 14.3341 8.77203 14.3341C8.77203 11.1574 8.80481 8.04501 8.74435 4.93462C8.73228 4.31326 8.36442 3.69969 8.09429 2.98212Z" fill="#4F518C"/>
</svg>
