<svg width="360" height="438" viewBox="0 0 360 438" fill="none" xmlns="http://www.w3.org/2000/svg">
<ellipse cx="109" cy="343.5" rx="180" ry="187.5" fill="#4F518C"/>
<path d="M37.1399 317.85C29.822 317.85 22.6684 315.68 16.5838 311.614C10.4992 307.549 5.75681 301.77 2.95637 295.009C0.155926 288.249 -0.5768 280.809 0.850853 273.632C2.27851 266.454 5.80242 259.862 10.977 254.687C16.1515 249.513 22.7443 245.989 29.9216 244.561C37.0989 243.133 44.5383 243.866 51.2992 246.667C58.0601 249.467 63.8387 254.209 67.9043 260.294C71.9699 266.379 74.1399 273.532 74.1399 280.85C74.1399 290.663 70.2417 300.074 63.3029 307.013C56.364 313.952 46.9529 317.85 37.1399 317.85ZM37.1399 245.57C30.1538 245.568 23.3241 247.638 17.5144 251.518C11.7048 255.398 7.17618 260.913 4.50136 267.367C1.82654 273.821 1.12565 280.922 2.48735 287.775C3.84905 294.627 7.21217 300.921 12.1514 305.862C17.0906 310.802 23.384 314.167 30.2356 315.531C37.0873 316.894 44.1895 316.195 50.644 313.522C57.0984 310.849 62.6153 306.322 66.4967 300.514C70.3782 294.705 72.4499 287.876 72.4499 280.89C72.4393 271.528 68.7161 262.552 62.0968 255.93C55.4774 249.309 46.5024 245.583 37.1399 245.57Z" fill="#EBEBEB"/>
<path d="M35.28 323.08C34.72 323.08 34.16 323.02 33.6 322.98L33.74 321.34C34.27 321.34 34.81 321.42 35.35 321.44L35.28 323.08ZM41.16 322.93L41 321.3C41.54 321.25 42.07 321.18 42.61 321.11L42.83 322.74C42.28 322.82 41.73 322.88 41.16 322.93ZM27.78 322.08C27.23 321.96 26.69 321.82 26.14 321.68L26.57 320.09C27.09 320.23 27.62 320.36 28.14 320.48L27.78 322.08ZM48.61 321.55L48.16 319.96C48.68 319.82 49.16 319.66 49.71 319.49L50.22 321.06L48.61 321.55ZM20.61 319.75C20.09 319.53 19.61 319.3 19.07 319.06L19.77 317.57C20.26 317.81 20.77 318.03 21.25 318.24L20.61 319.75ZM55.7 318.85L54.98 317.37C55.47 317.13 55.98 316.89 56.42 316.63L57.2 318.08C56.68 318.34 56.18 318.6 55.67 318.85H55.7ZM13.94 316.17C13.47 315.86 13 315.54 12.55 315.17L13.55 313.83C13.98 314.15 14.43 314.46 14.88 314.75L13.94 316.17ZM62.17 314.93L61.17 313.6L62.45 312.6L63.45 313.88C63 314.25 62.59 314.6 62.14 314.93H62.17ZM8.00001 311.45C7.59001 311.06 7.19001 310.67 6.80001 310.26L8.00001 309.12C8.38001 309.51 8.76001 309.89 9.15001 310.26L8.00001 311.45ZM67.82 309.92L66.63 308.79C67 308.4 67.36 308 67.72 307.59L68.95 308.67C68.57 309.1 68.2 309.51 67.81 309.92H67.82ZM3.00001 305.76C2.67001 305.31 2.35001 304.85 2.00001 304.38L3.37001 303.47C3.67001 303.91 3.98001 304.36 4.30001 304.79L3.00001 305.76ZM72.5 304L71.13 303.1C71.42 302.65 71.71 302.19 71.99 301.73L73.4 302.57C73.11 303 72.81 303.51 72.5 304ZM-0.889992 299.3C-1.13999 298.79 -1.36999 298.3 -1.59999 297.77L-0.0899887 297.11C0.130011 297.61 0.350009 298.11 0.580009 298.58L-0.889992 299.3ZM76.11 297.3L74.6 296.66C74.81 296.16 75.01 295.66 75.2 295.15L76.74 295.73C76.49 296.26 76.28 296.78 76.06 297.3H76.11ZM-3.51999 292.2C-3.66999 291.66 -3.79999 291.12 -3.92999 290.57L-2.32999 290.19C-2.20999 290.72 -2.07999 291.24 -1.92999 291.76L-3.51999 292.2ZM78.41 290.08L76.81 289.72C76.93 289.2 77.03 288.67 77.13 288.14L78.75 288.43C78.6 289 78.49 289.53 78.36 290.08H78.41ZM-4.87 284.76C-4.92333 284.2 -4.96332 283.64 -4.98999 283.08L-3.39999 283C-3.39999 283.54 -3.35999 284.08 -3.27999 284.62L-4.87 284.76ZM79.38 282.57L77.74 282.51C77.74 281.97 77.74 281.43 77.74 280.89V280.72H79.39V280.88C79.37 281.46 79.36 282 79.33 282.57H79.38ZM-3.3 277.33L-4.93999 277.19C-4.93999 276.63 -4.82999 276.07 -4.75999 275.52L-3.12999 275.72C-3.18999 276.26 -3.25 276.79 -3.3 277.33ZM77.31 275.08C77.23 274.55 77.15 274.01 77.05 273.49L78.67 273.19C78.77 273.74 78.86 274.29 78.94 274.85L77.31 275.08ZM-1.99999 270.17L-3.58999 269.74C-3.43666 269.2 -3.27666 268.66 -3.10999 268.12L-1.53999 268.62C-1.72999 269.13 -1.87999 269.65 -1.99999 270.17ZM75.64 268C75.46 267.48 75.28 267 75.09 266.47L76.63 265.89C76.83 266.41 77.02 266.94 77.2 267.47L75.64 268ZM0.520004 263.35L-0.999992 262.65C-0.759993 262.14 -0.50999 261.65 -0.23999 261.14L1.21001 261.91C1.00001 262.39 0.750004 262.87 0.520004 263.36V263.35ZM72.72 261.35C72.46 260.88 72.19 260.41 71.91 259.95L73.32 259.1C73.61 259.58 73.89 260.1 74.16 260.56L72.72 261.35ZM4.24001 257.11L2.91001 256.11C3.24001 255.66 3.58001 255.21 3.91001 254.77L5.2 255.77C4.89 256.24 4.56001 256.67 4.24001 257.11ZM68.66 255.32C68.32 254.9 67.9867 254.49 67.66 254.09L68.9 253C69.27 253.42 69.63 253.85 69.98 254.28L68.66 255.32ZM9.00001 251.62L7.86001 250.43C8.27001 250.04 8.68001 249.66 9.10001 249.29L10.19 250.52C9.81001 250.88 9.41001 251.24 9.00001 251.62ZM63.57 250.11C63.16 249.75 62.74 249.41 62.32 249.11L63.32 247.82C63.76 248.17 64.19 248.52 64.62 248.89L63.57 250.11ZM14.67 247.11L13.76 245.74L15.18 244.83L16.04 246.24C15.6 246.48 15.14 246.77 14.69 247.07L14.67 247.11ZM57.67 245.91L56.26 245.12L57.03 243.67C57.53 243.94 58.03 244.21 58.5 244.5L57.67 245.91ZM21.08 243.6L20.43 242.09C20.94 241.87 21.43 241.66 21.98 241.46L22.58 242.99C22.07 243.19 21.57 243.39 21.08 243.6ZM51.08 242.77C50.57 242.58 50.08 242.41 49.54 242.24L50.05 240.67C50.58 240.85 51.12 241.03 51.64 241.22L51.08 242.77ZM28 241.34L27.63 239.74C28.17 239.61 28.72 239.5 29.28 239.39L29.58 241.01C29 241.11 28.51 241.22 28 241.34ZM44.07 240.89C43.54 240.8 43.01 240.72 42.47 240.65L42.68 239.02C43.24 239.09 43.8 239.18 44.35 239.27L44.07 240.89ZM35.2 240.35L35.12 238.71C35.68 238.71 36.24 238.71 36.81 238.66V240.31C36.27 240.31 35.73 240.32 35.19 240.35H35.2Z" fill="#EBEBEB"/>
<path d="M31.4699 303.75H42.8599V286.57H60.0399V275.18H42.8599V258H31.4699V275.18H14.2899V286.57H31.4699V303.75Z" fill="#EBEBEB"/>
<path d="M347.83 129.39C341.665 137.632 333.801 144.453 324.77 149.39C315.76 144.447 307.916 137.627 301.77 129.39C293.65 118.65 294.05 101.83 305.66 98.19C318.5 94.19 324.81 113.5 324.81 113.5C324.81 113.5 331.21 94.05 343.97 98.19C355.5 102 355.94 118.65 347.83 129.39Z" fill="#EBEBEB"/>
<path d="M315.72 140.9L312.22 126.33L309.93 131.47H295.8V129.82H308.87L312.68 121.23L315.41 132.59L319.27 109.05L322.68 127.67L325.37 119.9L329.61 132.63L330.55 129.82H353.77V131.46H331.74L329.61 137.82L325.34 125.01L322.18 134.13L319.36 118.68L315.72 140.9Z" fill="white"/>
<path d="M324.81 156.3C317.492 156.3 310.339 154.13 304.254 150.064C298.169 145.999 293.427 140.22 290.627 133.459C287.826 126.698 287.093 119.259 288.521 112.082C289.949 104.904 293.473 98.3117 298.647 93.1371C303.822 87.9626 310.414 84.4387 317.592 83.011C324.769 81.5834 332.209 82.3161 338.969 85.1165C345.73 87.917 351.509 92.6593 355.574 98.744C359.64 104.829 361.81 111.982 361.81 119.3C361.81 129.113 357.912 138.524 350.973 145.463C344.034 152.402 334.623 156.3 324.81 156.3ZM324.81 84.0201C317.824 84.0201 310.996 86.0915 305.187 89.9726C299.379 93.8536 294.852 99.3698 292.179 105.824C289.505 112.278 288.806 119.379 290.169 126.231C291.532 133.082 294.895 139.375 299.835 144.315C304.775 149.255 311.068 152.619 317.919 153.981C324.771 155.344 331.873 154.645 338.326 151.971C344.78 149.298 350.297 144.771 354.178 138.963C358.059 133.154 360.13 126.326 360.13 119.34C360.127 109.972 356.406 100.987 349.783 94.3609C343.161 87.7345 334.179 84.008 324.81 84.0001V84.0201Z" fill="#EBEBEB"/>
<path d="M323 161.53C322.44 161.53 321.88 161.47 321.32 161.42L321.46 159.78C321.99 159.83 322.53 159.86 323.08 159.89L323 161.53ZM328.89 161.38L328.73 159.74C329.27 159.69 329.81 159.63 330.34 159.56L330.56 161.19C330 161.26 329.4 161.33 328.84 161.38H328.89ZM315.5 160.53C314.95 160.41 314.41 160.27 313.87 160.13L314.29 158.54C314.81 158.68 315.34 158.81 315.87 158.93L315.5 160.53ZM336.33 159.99L335.88 158.41C336.4 158.26 336.88 158.11 337.43 157.94L337.94 159.51C337.36 159.68 336.82 159.84 336.28 160L336.33 159.99ZM308.33 158.2C307.81 157.98 307.33 157.75 306.79 157.51L307.49 156.02L308.97 156.69L308.33 158.2ZM343.43 157.29L342.71 155.81C343.19 155.58 343.71 155.33 344.14 155.08L344.92 156.52C344.35 156.79 343.85 157.05 343.35 157.29H343.43ZM301.66 154.61C301.19 154.3 300.73 153.98 300.27 153.61L301.27 152.27C301.71 152.59 302.15 152.89 302.6 153.19L301.66 154.61ZM349.89 153.37L348.89 152.05C349.33 151.73 349.75 151.4 350.17 151.05L351.17 152.34C350.71 152.7 350.27 153 349.81 153.37H349.89ZM295.74 149.9C295.33 149.51 294.93 149.11 294.54 148.71L295.73 147.57C296.103 147.95 296.483 148.33 296.87 148.71L295.74 149.9ZM355.56 148.37L354.37 147.23C354.74 146.84 355.1 146.44 355.46 146.04L356.7 147.12C356.25 147.54 355.87 148 355.48 148.37H355.56ZM290.75 144.21C290.42 143.75 290.1 143.3 289.75 142.83L291.11 141.91C291.41 142.36 291.72 142.8 292.04 143.24L290.75 144.21ZM360.26 142.43L358.88 141.53C359.17 141.07 359.46 140.62 359.74 140.15L361.15 141C360.78 141.48 360.48 142 360.18 142.43H360.26ZM286.86 137.72C286.61 137.22 286.38 136.72 286.16 136.2L287.66 135.54C287.88 136.03 288.1 136.54 288.34 137.01L286.86 137.72ZM363.86 135.72L362.35 135.08C362.56 134.59 362.76 134.08 362.95 133.58L364.49 134.16C364.16 134.7 364 135.23 363.73 135.74L363.86 135.72ZM284.24 130.63C284.09 130.09 283.95 129.54 283.82 129L285.42 128.62C285.54 129.15 285.68 129.67 285.82 130.19L284.24 130.63ZM366 128.53L364.39 128.17C364.51 127.64 364.62 127.11 364.71 126.58L366.33 126.87C366.27 127.43 366.16 128 366 128.53ZM282.71 123.2C282.657 122.647 282.617 122.087 282.59 121.52L284.23 121.44C284.23 121.98 284.3 122.52 284.35 123.05L282.71 123.2ZM367 121L365.35 120.94C365.35 120.4 365.35 119.86 365.35 119.32V119.15H367V119.31C367 119.9 367 120.46 367 121ZM284.36 115.76L282.73 115.62C282.73 115.06 282.83 114.5 282.9 113.94L284.54 114.15C284.48 114.7 284.42 115.24 284.37 115.78L284.36 115.76ZM365 113.53C364.93 112.99 364.84 112.46 364.74 111.93L366.36 111.63C366.46 112.18 366.55 112.74 366.63 113.29L365 113.53ZM285.67 108.62L284.08 108.19C284.23 107.64 284.39 107.11 284.56 106.57L286.13 107.07C286 107.58 285.79 108.1 285.65 108.62H285.67ZM363.33 106.45C363.16 105.94 362.97 105.45 362.78 104.93L364.32 104.34C364.52 104.873 364.71 105.403 364.89 105.93L363.33 106.45ZM288.21 101.8L286.73 101.09C286.97 100.58 287.23 100.09 287.49 99.5899L288.94 100.36C288.67 100.83 288.43 101.32 288.19 101.8H288.21ZM360.41 99.7999C360.15 99.3199 359.88 98.8599 359.6 98.3999L361.01 97.5499C361.3 98.0199 361.58 98.5499 361.85 98.9999L360.41 99.7999ZM291.94 95.5499L290.6 94.5499C290.933 94.0899 291.267 93.6399 291.6 93.1999L292.89 94.1999C292.56 94.6799 292.23 95.1199 291.92 95.5499H291.94ZM356.35 93.7699C356.01 93.3499 355.66 92.9399 355.3 92.5299L356.54 91.4499C356.91 91.8699 357.27 92.2899 357.62 92.7299L356.35 93.7699ZM296.71 90.0599L295.57 88.8799C295.98 88.4899 296.39 88.1099 296.81 87.7399L297.88 88.9999C297.48 89.3299 297.08 89.6899 296.69 90.0599H296.71ZM351.28 88.5499C350.87 88.1999 350.45 87.8599 350.03 87.5499L351.03 86.2599C351.47 86.6099 351.9 86.9699 352.33 87.3399L351.28 88.5499ZM302.39 85.5499L301.47 84.1899C301.94 83.8699 302.41 83.5699 302.89 83.2799L303.75 84.6899C303.27 84.9299 302.81 85.2199 302.37 85.5099L302.39 85.5499ZM345.39 84.3599C344.93 84.0899 344.46 83.8199 343.98 83.5699L344.75 82.1199C345.25 82.3799 345.75 82.6599 346.22 82.9399L345.39 84.3599ZM308.8 82.0899L308.15 80.5799C308.657 80.3599 309.177 80.1499 309.71 79.9499L310.3 81.4799C309.74 81.6299 309.25 81.8399 308.75 82.0499L308.8 82.0899ZM338.8 81.2499C338.29 81.0699 337.8 80.8899 337.27 80.7299L337.77 79.1599C338.31 79.3299 338.84 79.5099 339.37 79.7099L338.8 81.2499ZM315.7 79.8299L315.33 78.2199C315.87 78.0999 316.42 77.9799 316.98 77.8799L317.28 79.4899C316.71 79.5499 316.18 79.6699 315.66 79.7899L315.7 79.8299ZM331.77 79.3799C331.24 79.2899 330.71 79.2099 330.17 79.1399L330.38 77.5099C330.94 77.5799 331.5 77.6599 332.05 77.7599L331.77 79.3799ZM322.9 78.8399L322.83 77.1899C323.38 77.1899 323.94 77.1899 324.51 77.1899V78.8299C323.94 78.7599 323.4 78.7699 322.86 78.7999L322.9 78.8399Z" fill="#EBEBEB"/>
<path d="M78.4125 114.125C85.2209 89.3401 70.6477 63.7285 45.8625 56.9201C21.0773 50.1117 -4.53438 64.6848 -11.3428 89.47C-18.1511 114.255 -3.57801 139.867 21.2072 146.675C45.9924 153.484 71.6041 138.911 78.4125 114.125Z" fill="#EBEBEB"/>
<path d="M52.4341 143.969C75.1461 134.71 86.0516 108.792 76.7923 86.0797C67.5329 63.3677 41.615 52.4621 18.9029 61.7215C-3.80909 70.9809 -14.7146 96.8988 -5.45527 119.611C3.80409 142.323 29.722 153.228 52.4341 143.969Z" fill="#DBDBDB"/>
<path d="M35.6699 144.44C58.645 144.44 77.27 125.815 77.27 102.84C77.27 79.8649 58.645 61.24 35.6699 61.24C12.6949 61.24 -5.93005 79.8649 -5.93005 102.84C-5.93005 125.815 12.6949 144.44 35.6699 144.44Z" fill="white"/>
<path opacity="0.5" d="M76.34 94C57.34 105.48 26.25 124.31 8.84998 134.63C3.93145 130.482 0.0398581 125.253 -2.52002 119.35L55 66C60.3857 68.8259 65.0871 72.7971 68.7738 77.6344C72.4605 82.4718 75.0431 88.0578 76.34 94Z" fill="#EBEBEB"/>
<path opacity="0.5" d="M77.2499 104.29C77.0994 108.919 76.1697 113.49 74.4999 117.81L22.6099 142.35C20.3483 141.608 18.1564 140.667 16.0599 139.54C31.7299 130.48 60.3699 114 77.2499 104.29Z" fill="#EBEBEB"/>
<path d="M36.07 64.26H35.27V70.57H36.07V64.26Z" fill="#C7C7C7"/>
<path d="M16.7259 69.2157L16.0331 69.6157L19.1881 75.0803L19.8809 74.6803L16.7259 69.2157Z" fill="#C7C7C7"/>
<path d="M2.4531 83.1915L2.0531 83.8843L7.51772 87.0393L7.91772 86.3465L2.4531 83.1915Z" fill="#C7C7C7"/>
<path d="M3.39997 102.44H-2.91003V103.24H3.39997V102.44Z" fill="#C7C7C7"/>
<path d="M7.51882 118.628L2.0542 121.783L2.4542 122.476L7.91882 119.321L7.51882 118.628Z" fill="#C7C7C7"/>
<path d="M19.1872 130.582L16.036 136.049L16.7291 136.448L19.8803 130.982L19.1872 130.582Z" fill="#C7C7C7"/>
<path d="M36.07 135.12H35.27V141.43H36.07V135.12Z" fill="#C7C7C7"/>
<path d="M52.1542 130.589L51.4614 130.989L54.6164 136.453L55.3092 136.053L52.1542 130.589Z" fill="#C7C7C7"/>
<path d="M64.2879 118.089L63.8879 118.785L69.3776 121.94L69.7776 121.244L64.2879 118.089Z" fill="#C7C7C7"/>
<path d="M74.2599 102.44H67.95V103.24H74.2599V102.44Z" fill="#C7C7C7"/>
<path d="M68.8919 83.2097L63.4272 86.3647L63.8272 87.0576L69.2919 83.9026L68.8919 83.2097Z" fill="#C7C7C7"/>
<path d="M54.6168 69.222L51.4637 74.6877L52.1567 75.0875L55.3098 69.6218L54.6168 69.222Z" fill="#C7C7C7"/>
<path d="M36.28 67.1101L37.65 105.65L33.7 105.6L35.21 67.1001L36.28 67.1101Z" fill="#C7C7C7"/>
<path d="M60.28 89.4L34.36 105.95L32.47 102.48L59.77 88.46L60.28 89.4Z" fill="#A6A6A6"/>
<path d="M36.9999 102.84C36.9999 103.107 36.9207 103.368 36.7724 103.59C36.6241 103.812 36.4132 103.985 36.1666 104.087C35.9199 104.189 35.6484 104.216 35.3866 104.164C35.1247 104.112 34.8841 103.983 34.6953 103.795C34.5065 103.606 34.378 103.365 34.3259 103.103C34.2738 102.841 34.3005 102.57 34.4027 102.323C34.5049 102.077 34.6779 101.866 34.8999 101.718C35.1219 101.569 35.3829 101.49 35.6499 101.49C36.008 101.49 36.3513 101.632 36.6045 101.885C36.8577 102.139 36.9999 102.482 36.9999 102.84Z" fill="#C7C7C7"/>
<path d="M13.59 327.06L0.469986 327.33L-6.19001 327.45C-8.42001 327.45 -10.66 327.45 -12.89 327.5H-13.33V327.06L-13.39 315.87V315.36H-12.89L0.349983 315.42C4.76998 315.42 9.17998 315.53 13.59 315.58H13.87V315.85C13.87 317.74 13.78 319.63 13.74 321.5L13.59 327.06ZM13.59 327.06L13.45 321.4C13.45 319.54 13.34 317.7 13.32 315.87L13.59 316.14C9.17998 316.19 4.76998 316.3 0.349983 316.3L-12.89 316.37L-12.39 315.87V327.06L-12.84 326.61C-10.66 326.61 -8.48002 326.61 -6.29002 326.66L0.289986 326.78L13.59 327.06Z" fill="#EBEBEB"/>
<path d="M269.6 202.49L256.47 202.77L249.81 202.88C247.59 202.93 245.35 202.88 243.12 202.94H242.68V202.49L242.63 191.3V190.8H243.13L256.37 190.87C260.78 190.87 265.2 190.98 269.61 191.03H269.89V191.3C269.89 193.2 269.81 195.09 269.76 196.96L269.6 202.49ZM269.6 202.49L269.46 196.84C269.46 194.98 269.35 193.13 269.33 191.3L269.6 191.58C265.19 191.58 260.77 191.73 256.36 191.74L243.12 191.8L243.62 191.3L243.56 202.49L243.12 202.05C245.3 202.05 247.48 202.05 249.66 202.05L256.24 202.16L269.6 202.49Z" fill="#EBEBEB"/>
<path d="M254.83 216.6L241.7 216.88L235 217C232.78 217 230.54 217 228.31 217.06H227.86V216.61V205.42V204.92H228.36L241.6 204.99C246.01 204.99 250.42 205.1 254.84 205.15H255.11V205.42C255.11 207.32 255.02 209.21 254.98 211.08L254.83 216.6ZM254.83 216.6L254.69 210.95C254.64 209.09 254.57 207.24 254.55 205.41L254.83 205.69C250.41 205.74 246 205.84 241.59 205.85L228.35 205.91L228.85 205.41L228.79 216.6L228.35 216.16C230.53 216.16 232.71 216.16 234.89 216.21L241.47 216.32L254.83 216.6Z" fill="#EBEBEB"/>
<path d="M240.11 202.49L226.99 202.77L220.33 202.88C218.1 202.93 215.87 202.88 213.63 202.94H213.19V202.49L213.13 191.3V190.8H213.63L226.87 190.87C231.29 190.87 235.7 190.98 240.11 191.03H240.39V191.3C240.39 193.2 240.3 195.09 240.26 196.96L240.11 202.49ZM240.11 202.49L239.97 196.84C239.97 194.98 239.86 193.13 239.84 191.3L240.11 191.58C235.7 191.58 231.29 191.73 226.87 191.74L213.63 191.8L214.13 191.3L214.08 202.49L213.63 202.05C215.82 202.05 217.99 202.05 220.18 202.05L226.76 202.16L240.11 202.49Z" fill="#EBEBEB"/>
<path d="M374.89 67.49L361.76 67.76L355.1 67.88C352.88 67.88 350.64 67.88 348.41 67.93H348V67.48V56.29V55.78H348.51L361.75 55.84C366.16 55.84 370.57 55.95 374.99 56H375.26V56.27C375.26 58.17 375.17 60.05 375.13 61.92L374.89 67.49ZM374.89 67.49L374.75 61.83C374.7 59.97 374.63 58.13 374.61 56.3L374.89 56.57C370.47 56.57 366.06 56.73 361.65 56.73L348.41 56.8L348.91 56.3L348.85 67.49L348.41 67.04C350.59 67.04 352.76 67.04 354.95 67.1L361.53 67.21L374.89 67.49Z" fill="#EBEBEB"/>
<path d="M13.59 67.49L0.469986 67.76L-6.19001 67.88C-8.42001 67.88 -10.66 67.88 -12.89 67.93H-13.33V67.48L-13.39 56.3V55.79H-12.89L0.349983 55.85C4.76998 55.85 9.17998 55.96 13.59 56.01H13.87V56.28C13.87 58.18 13.78 60.06 13.74 61.93L13.59 67.49ZM13.59 67.49L13.45 61.83C13.45 59.97 13.34 58.13 13.32 56.3L13.59 56.57C9.17998 56.57 4.76998 56.73 0.349983 56.73L-12.89 56.8L-12.39 56.3V67.49L-12.89 67C-10.71 67 -8.53002 67 -6.34002 67.06L0.239983 67.17L13.59 67.49Z" fill="#EBEBEB"/>
<path d="M181 458.03C290.358 458.03 379.01 447.768 379.01 435.11C379.01 422.452 290.358 412.19 181 412.19C71.6421 412.19 -17.01 422.452 -17.01 435.11C-17.01 447.768 71.6421 458.03 181 458.03Z" fill="#EBEBEB"/>
<path d="M40.62 220.22H28V206.65H14.46V194.07H28V180.49H40.58V194.07H54.15V206.65H40.62V220.22ZM29.83 218.43H38.83V204.86H52.4V195.86H38.83V182.28H29.83V195.86H16.25V204.86H29.83V218.43Z" fill="#6978F8"/>
<path d="M345.65 309.92H333.06V296.35H319.49V283.77H333.06V270.19H345.65V283.77H359.22V296.35H345.65V309.92ZM334.86 308.13H343.86V294.56H357.43V285.56H343.86V272H334.86V285.58H321.28V294.58H334.86V308.13Z" fill="#6978F8"/>
<path d="M279.54 78.59V91.17H265.97V104.75H253.39V91.17H239.81V78.59H253.39V65.02H265.97V78.59H279.54Z" fill="#6978F8"/>
<path d="M158.11 81.1799C160.72 81.0999 171.65 78.0299 180.69 86.9599C189.25 95.4099 196.38 124.15 198.89 130.26C201.4 136.37 209.89 136 213 143C215.7 149.07 211.46 152.14 211.72 156.86C211.93 160.53 216.43 165.36 213.99 171.22C211.78 176.55 206.35 176.37 203.41 178.4C200.47 180.43 199.67 188.1 194.1 191.03C188.53 193.96 182.48 189.42 179.36 189.95C176.24 190.48 174.07 200.65 163.75 201.44C153.43 202.23 149.11 194.08 144.63 193.05C140.15 192.02 130.06 196.65 124.4 192.16C118.74 187.67 116.79 180.79 114.2 178.56C111.61 176.33 107.14 177.46 103.49 171.91C99.8401 166.36 104.78 161.68 104.74 156.37C104.74 152.67 100.97 149.86 102.34 143.98C104.23 135.9 113.77 136.04 116.07 127.68C117.87 121.13 119.36 93.6799 134.37 84.5299C144.77 78.2799 158.11 81.1799 158.11 81.1799Z" fill="#263238"/>
<path d="M198.34 128.78C199.169 130.032 200.291 131.062 201.61 131.78L205.38 134.11C207.929 135.496 210.244 137.274 212.24 139.38C213.169 140.385 213.853 141.591 214.238 142.904C214.623 144.218 214.699 145.602 214.46 146.95C214.139 148.316 213.61 149.625 212.89 150.83C212.054 152.153 211.417 153.591 211 155.1C210.86 156.76 211.275 158.42 212.18 159.82C212.87 161.16 213.61 162.42 214.23 163.72C215.48 166.28 216.15 169.11 215.23 171.72C214.826 173.016 213.999 174.14 212.88 174.91C211.684 175.667 210.353 176.187 208.96 176.44C207.54 176.77 206.08 176.96 204.61 177.21C203.112 177.336 201.687 177.911 200.52 178.86C201.764 178.079 203.202 177.663 204.67 177.66C206.14 177.53 207.62 177.47 209.11 177.25C210.64 177.058 212.118 176.569 213.46 175.81C214.838 174.96 215.894 173.676 216.46 172.16C217.73 169.16 216.87 165.74 215.61 163.05C214.99 161.67 214.25 160.36 213.61 159.05C212.889 157.955 212.539 156.658 212.61 155.35C213.11 152.89 215.4 150.35 215.92 147.21C216.194 145.638 216.085 144.023 215.603 142.501C215.121 140.98 214.279 139.597 213.15 138.47C210.967 136.384 208.466 134.659 205.74 133.36L201.74 131.36C200.433 130.756 199.273 129.876 198.34 128.78Z" fill="#263238"/>
<path d="M122 101.93C119.94 106.84 119 112.11 117.58 117.17C116.86 119.7 116.23 122.26 115.33 124.7C114.926 125.894 114.393 127.041 113.74 128.12C113.608 128.37 113.436 128.596 113.23 128.79C113.048 129.009 112.836 129.201 112.6 129.36C112.1 129.74 111.6 130.09 111.01 130.43C108.723 131.811 106.507 133.306 104.37 134.91C102.11 136.579 100.426 138.91 99.5501 141.58C99.1421 142.947 99.0871 144.396 99.3901 145.79C99.7567 147.127 100.374 148.383 101.21 149.49C102.8 151.62 104.32 153.76 104.82 156.41C104.72 153.71 103.24 151.27 101.9 149.04C101.202 147.984 100.707 146.807 100.44 145.57C100.25 144.356 100.374 143.113 100.8 141.96C101.715 139.614 103.288 137.582 105.33 136.11C107.456 134.579 109.659 133.157 111.93 131.85C112.49 131.48 113.05 131.1 113.6 130.67C114.172 130.21 114.647 129.643 115 129C115.702 127.807 116.269 126.539 116.69 125.22C117.536 122.685 118.224 120.1 118.75 117.48L120.27 109.68C120.695 107.065 121.272 104.477 122 101.93Z" fill="#263238"/>
<path d="M111.46 177.22C112.81 178.54 113.27 180.47 113.98 182.22C114.69 183.97 115.35 185.76 116.13 187.51C116.888 189.295 117.834 190.994 118.95 192.58C120.095 194.255 121.629 195.628 123.42 196.58C127.35 198.29 131.53 197.34 135.08 196.09C136.89 195.45 138.63 194.72 140.41 194.09C142.143 193.373 144.021 193.078 145.89 193.23C144.015 192.747 142.045 192.768 140.18 193.29C138.31 193.73 136.51 194.29 134.69 194.81C131.15 195.81 127.29 196.44 124.14 195.01C122.586 194.176 121.247 192.991 120.23 191.55C119.125 190.068 118.142 188.5 117.29 186.86C116.39 185.21 115.58 183.51 114.73 181.86C114.29 181.01 113.84 180.17 113.35 179.35C112.912 178.491 112.261 177.758 111.46 177.22Z" fill="#263238"/>
<path d="M209.65 406.09H123.03L117.88 298.95H195.28L209.65 406.09Z" fill="#37474F"/>
<path d="M171.04 298.95L161.89 371.51L161.88 371.62L161.68 373.13L161.31 376.1L160.89 379.41L160.74 380.59L160.62 381.54L157.53 406.09H123.03L117.88 298.95H171.04Z" fill="#263238"/>
<path d="M192.06 406.09H189.77C189.65 405.14 189.54 404.2 189.42 403.25C186.34 378.25 183.35 353.25 180.75 328.25C180.51 325.96 180.27 323.66 180.04 321.37C180.04 321.01 180.62 320.94 180.67 321.3C180.88 322.84 181.1 324.38 181.3 325.92C185 352.62 188.52 379.36 192.06 406.09Z" fill="#263238"/>
<path d="M187.42 298.87C187.423 298.896 187.423 298.923 187.42 298.95C187.19 300.02 184.66 311.76 181.32 325.95C181.14 326.72 180.96 327.5 180.77 328.28C179.29 334.47 177.68 341.02 176.05 347.28C172.53 360.87 168.92 373.05 166.46 377.06C166.192 377.557 165.82 377.99 165.37 378.33C164.57 378.8 162.87 379.64 160.76 380.63L159.36 381.28L158.16 381.83C153.36 384.03 147.59 386.55 144.92 387.66V387.87L143.99 406.11H62.4L71.04 354.11L81.47 298.92L187.42 298.87Z" fill="#37474F"/>
<path d="M172.42 374.76C162.928 378.215 153.753 382.488 145 387.53C144.933 387.569 144.883 387.631 144.86 387.705C144.837 387.779 144.842 387.858 144.875 387.928C144.907 387.999 144.965 388.054 145.036 388.084C145.107 388.114 145.187 388.116 145.26 388.09C154.49 384.09 163.91 380.33 172.91 375.86C173.056 375.795 173.17 375.675 173.227 375.526C173.284 375.376 173.28 375.211 173.215 375.065C173.15 374.919 173.03 374.805 172.881 374.748C172.732 374.691 172.566 374.695 172.42 374.76Z" fill="#263238"/>
<path d="M175.2 311.52C175.2 311.2 174.62 311.13 174.62 311.52C174.69 322.52 173.99 332.12 173.07 342.37C172.64 347.12 168.82 373.37 160.57 371.49C159.19 371.17 158.48 369.81 158.27 367.73C158.01 365.22 158.95 362.16 159.36 359.67C160.28 354.17 161.01 348.67 161.48 343.09C162.445 332.743 162.335 322.324 161.15 312C161.138 311.938 161.105 311.883 161.057 311.843C161.008 311.803 160.948 311.782 160.885 311.782C160.822 311.782 160.762 311.803 160.713 311.843C160.665 311.883 160.632 311.938 160.62 312C160.62 326.36 160.25 340.69 158.11 354.92C157.11 361.75 153.63 372.04 160.78 373.1C167.93 374.16 172.78 356.93 173.66 352.21C176.14 339 176.24 324.84 175.2 311.52Z" fill="#263238"/>
<path d="M160.79 372.16C160.051 373.93 159.43 375.747 158.93 377.6C158.404 379.034 158.143 380.552 158.16 382.08C158.16 382.37 158.58 382.4 158.73 382.2C159.589 380.856 160.236 379.389 160.65 377.85C161.28 376.16 161.94 374.49 162.52 372.79C162.604 372.56 162.593 372.307 162.489 372.086C162.386 371.865 162.199 371.693 161.97 371.61C161.741 371.526 161.487 371.537 161.266 371.64C161.045 371.744 160.874 371.93 160.79 372.16Z" fill="#263238"/>
<path d="M99.7601 377.62C98.9401 387.12 97.9701 396.62 96.9501 406.09H96.0601C97.0601 396.59 98.2001 387.09 99.4301 377.61C99.4601 377.4 99.7801 377.4 99.7601 377.62Z" fill="#263238"/>
<path d="M155.75 203.06C163.22 227.42 195.55 314.43 217.23 327.69C231.42 336.36 302.69 341.29 316.4 334.93C324.01 331.39 321.64 273.83 312.67 273.51C301.48 273.11 246.47 271.63 240.38 268.72C234.29 265.81 193.2 210.86 177.54 194.21C150.55 165.49 150.77 186.84 155.75 203.06Z" fill="#AD6359"/>
<path d="M295.62 269.19L285.46 339.59C285.46 339.59 227.58 341.29 211.8 328.38C189.31 310 157.06 217 153.4 202.45C144.73 167.95 164.05 173.71 179.25 190.45C189.12 201.35 227.95 257.11 242.33 267.38C246.41 270.33 295.62 269.19 295.62 269.19Z" fill="#EBEBEB"/>
<path d="M271.2 336.14C272.39 325.69 278.82 283.14 280.83 274.01C280.97 273.38 281.41 273.31 281.35 274.01C278.54 305.4 273.35 326.01 271.62 336.19C271.57 336.43 271.17 336.41 271.2 336.14Z" fill="#263238"/>
<path d="M195.31 272.81L204.98 339.31C204.98 339.31 96.6001 340.91 69.6901 339.02C69.6901 339.02 91.6401 214.69 120.57 183.27C135.04 167.56 152.03 168.74 162.86 179.72C165.6 182.5 198.29 225.72 201.73 242.21C204.73 256.77 195.31 272.81 195.31 272.81Z" fill="#6978F8"/>
<path d="M153.08 265.39C158.858 264.868 164.667 264.771 170.46 265.1C173.33 265.31 176.18 265.64 179.03 266.04C180.45 266.24 181.88 266.39 183.3 266.53C184.794 266.715 186.306 266.715 187.8 266.53C187.93 266.53 187.96 266.71 187.8 266.74C186.416 267.056 185.013 267.284 183.6 267.42C182.228 267.515 180.852 267.515 179.48 267.42C176.56 267.24 173.65 266.93 170.73 266.72C164.85 266.3 158.97 265.87 153.07 265.88C152.82 265.88 152.81 265.42 153.08 265.39Z" fill="#263238"/>
<path d="M140 273C144.603 271.66 149.277 270.578 154 269.76C156.36 269.36 158.73 269.1 161.12 268.9C162.25 268.81 163.4 268.73 164.54 268.67C165.68 268.61 167.06 268.67 168.31 268.67C168.44 268.67 168.48 268.86 168.31 268.88C167.13 268.99 165.96 269.3 164.79 269.49L161.25 270.03C158.9 270.4 156.55 270.8 154.18 271.15C149.46 271.84 144.76 272.58 140.06 273.44C139.76 273.41 139.72 273.05 140 273Z" fill="#263238"/>
<path d="M139.38 406.09H53.87C63.87 343.27 75.87 278.93 87.42 246.55C112.28 176.74 132.57 174.07 132.57 174.07V174.15C132.68 177.1 135.57 256.23 137.79 339.92C138.39 362.1 138.94 384.6 139.38 406.09Z" fill="#EBEBEB"/>
<path d="M125.26 368.6C125.26 366.16 124.72 354.6 124.5 352.27C124.5 352 124.4 351.46 124.18 351.46C120.99 351.46 109.92 352.59 98.7701 352.59C90.797 352.44 82.8398 351.819 74.9401 350.73C74.5701 350.84 74.57 363.54 74.37 369.68C73.97 382.49 74.56 396.98 77.29 399.68C82.39 404.68 95.98 404.25 100.29 404.21C104.6 404.17 119.79 404.16 123.36 396.32C124.88 392.81 125.3 374.93 125.26 368.6ZM123.26 381.6C123.08 387.92 122.88 393.6 120.45 396.93C118.37 399.74 112.5 402.57 98.9901 402.56C89.2301 402.56 80.9901 400.77 78.7401 398.17C76.0401 395.06 75.7401 386.12 75.7401 380.78C75.7401 373.41 75.7401 367.52 75.7401 360.16C94.6101 364.54 115.37 362.38 123.24 360.79C123.27 361.1 123.44 376.65 123.29 381.6H123.26ZM123.31 359.6C98.8001 362.75 83.6301 360.12 75.7701 358.6C75.7701 356.24 75.7701 354.4 75.7701 352.03C79.1401 352.88 90.48 354.23 98.98 354.23C106.89 354.23 118.51 353.13 123.44 352.54C123.3 354.48 123.4 358.7 123.34 359.59L123.31 359.6Z" fill="#DBDBDB"/>
<path d="M130 206.89C125.19 226.8 100.45 297.62 94.3 303.76C86.97 311.08 55.01 333.59 43.87 303.62C36.15 282.87 88.61 210.13 113.4 186.62C125.5 175.21 138.05 173.53 130 206.89Z" fill="#EBEBEB"/>
<path d="M121.54 243.17C120.04 245.94 118.39 248.63 116.77 251.33C117.15 250.33 117.52 249.33 117.88 248.33C119.44 244.02 120.88 239.66 122.47 235.33C122.53 235.19 122.31 235.14 122.25 235.27C120.58 239.02 118.81 242.74 117.18 246.52C115.55 250.3 114.18 253.94 112.7 257.69C109.79 265.24 106.84 272.78 104.14 280.41C102.542 284.626 101.174 288.926 100.04 293.29C100.04 293.41 100.19 293.5 100.25 293.38C102.04 289.77 103.45 285.97 104.89 282.21C106.33 278.45 107.77 274.73 109.17 270.97C110.57 267.21 112.06 263.32 113.54 259.51C114.28 257.59 115.05 255.69 115.8 253.78C118.097 250.446 120.05 246.888 121.63 243.16C121.65 243.16 121.56 243.12 121.54 243.17Z" fill="#263238"/>
<path d="M131.67 174.16C129.003 179.787 126.417 185.453 123.91 191.16C121.41 196.86 118.83 202.52 116.41 208.26L116.11 208.98L116.76 209.42L127.25 216.51L127 215C124.15 219.26 121.39 223.57 118.61 227.87L118.34 228.29L118.49 228.75C121.3 237.46 124.01 246.2 126.96 254.87C129.91 263.54 132.8 272.22 135.9 280.87C133.52 272.017 131.027 263.207 128.42 254.44C125.9 245.64 123.14 236.92 120.48 228.16L120.36 229.04C123.18 224.77 126.02 220.51 128.78 216.19L129.35 215.29L128.48 214.72L117.86 207.82L118.22 208.98C120.6 203.23 122.8 197.41 125.1 191.63C127.4 185.85 129.53 180 131.67 174.16Z" fill="#DBDBDB"/>
<path d="M215.43 406.09H184.55C182.72 384.46 180.84 361.85 178.98 339.62C176.33 307.85 173.71 276.85 171.27 250.55C169.089 226.075 165.237 201.778 159.74 177.83C159.6 177.22 159.51 176.83 159.49 176.78C160.725 177.549 161.829 178.511 162.76 179.63C162.791 179.666 162.824 179.699 162.86 179.73L163.19 180.1C163.279 180.188 163.362 180.282 163.44 180.38C168.75 186.21 177.63 198.13 185.53 210.38C193.15 222.18 199.87 234.27 201.53 241.45L201.62 241.85C201.67 242.08 201.71 242.3 201.75 242.52C202.077 244.423 202.26 246.349 202.3 248.28C202.374 256.17 200.333 263.936 196.39 270.77C196.364 270.828 196.334 270.885 196.3 270.94C196.04 271.38 195.88 271.61 195.88 271.61V271.72L206 341L215.43 406.09Z" fill="#EBEBEB"/>
<path d="M191.06 220.52C188.06 215.7 184.93 210.93 181.96 206.07C181.87 205.93 182.09 205.77 182.19 205.9C185.19 209.9 188.19 213.9 191.1 217.97C190.1 215.8 189.19 213.62 188.32 211.4C188.22 211.15 188.57 210.94 188.69 211.19C190.04 214.04 191.25 216.94 192.45 219.86C195.062 223.48 197.376 227.306 199.37 231.3C203.5 239.79 205.28 249.07 203.04 258.35C202.433 260.914 201.527 263.397 200.34 265.75C199.54 267.35 196.93 270.83 196.95 270.93C198.65 280.41 199.95 290 201.26 299.54C202.57 309.08 203.98 318.84 205.11 328.54C205.74 334.02 206.11 339.54 206.95 345.01C206.95 345.21 206.67 345.29 206.64 345.09C205.95 340.33 204.92 335.62 204.07 330.88C203.22 326.14 202.43 321.4 201.66 316.64C200.12 307.04 198.74 297.4 197.35 287.77C196.57 282.33 195.71 276.88 195.09 271.41C195.02 270.81 197.48 266.93 198.21 265.41C199.182 263.396 199.979 261.301 200.59 259.15C201.842 254.777 202.229 250.201 201.73 245.68C200.68 236.46 195.9 228.25 191.06 220.52Z" fill="#263238"/>
<path d="M159.74 177.83C162.927 182.67 166.17 187.466 169.47 192.22C172.79 196.96 176.03 201.76 179.41 206.45L179.48 205.33L171.36 213.84L170.69 214.54L171.4 215.23C174.82 218.54 178.3 221.79 181.77 225.05L181.48 224.21C180.22 233.03 178.87 241.83 177.75 250.67C176.63 259.51 175.44 268.34 174.47 277.2C176.15 268.44 177.68 259.67 179.15 250.88C180.62 242.09 181.99 233.29 183.39 224.5L183.47 224L183.1 223.65C179.67 220.35 176.24 217.04 172.76 213.8V215.19L180.76 206.53L181.26 205.99L180.83 205.41C177.42 200.74 173.83 196.17 170.39 191.54C166.95 186.91 163.35 182.37 159.74 177.83Z" fill="#DBDBDB"/>
<path d="M120.7 189.07C119.89 177.24 134.22 172.54 143.08 171.32C153.57 169.88 160.56 170.75 165.61 180.93C170.93 191.66 173.72 204.11 175.81 215.86C176.2 218.05 179.62 217.5 179.23 215.3C176.82 201.77 173.36 176.52 159.88 169.18C147.47 162.41 115.88 169.58 117.28 189.62C117.43 191.85 120.85 191.28 120.7 189.07Z" fill="#455A64"/>
<path d="M186.42 220.77C186.683 222.334 186.474 223.941 185.822 225.387C185.169 226.833 184.101 228.052 182.753 228.889C181.406 229.727 179.84 230.144 178.255 230.09C176.669 230.035 175.136 229.51 173.85 228.582C172.563 227.654 171.582 226.364 171.03 224.877C170.478 223.39 170.381 221.772 170.751 220.23C171.121 218.687 171.941 217.289 173.107 216.214C174.273 215.138 175.733 214.434 177.3 214.19C178.331 214.023 179.385 214.06 180.401 214.301C181.417 214.541 182.376 214.979 183.223 215.59C184.07 216.201 184.788 216.973 185.337 217.862C185.886 218.751 186.254 219.739 186.42 220.77Z" fill="#263238"/>
<path d="M183.29 221.28C183.434 222.215 183.298 223.172 182.899 224.03C182.5 224.888 181.856 225.608 181.048 226.101C180.24 226.593 179.304 226.835 178.358 226.796C177.413 226.757 176.5 226.438 175.735 225.881C174.971 225.324 174.388 224.553 174.061 223.665C173.734 222.777 173.677 221.812 173.898 220.892C174.119 219.972 174.608 219.137 175.302 218.495C175.996 217.852 176.866 217.429 177.8 217.28C178.424 217.179 179.061 217.202 179.675 217.349C180.29 217.496 180.869 217.763 181.379 218.135C181.89 218.507 182.321 218.976 182.649 219.516C182.977 220.056 183.195 220.655 183.29 221.28Z" fill="#EBEBEB"/>
<path d="M132.73 226.13C141.48 259.36 140.13 267.48 137.37 271.3C135.29 273.972 132.62 276.128 129.57 277.6L128.57 275.41C131.235 274.101 133.575 272.215 135.42 269.89C137.42 267.13 139.06 259.65 130.42 226.74L132.73 226.13Z" fill="#C7C7C7"/>
<path d="M124.301 277.426L125.715 279.98C126.012 280.516 126.688 280.71 127.224 280.413L132.595 277.439C133.132 277.141 133.326 276.466 133.029 275.93L131.614 273.375C131.317 272.839 130.641 272.645 130.105 272.942L124.734 275.917C124.198 276.214 124.004 276.889 124.301 277.426Z" fill="#263238"/>
<path d="M111 227C104.41 252 102.82 265.76 106 270.15C107.845 272.473 110.185 274.356 112.85 275.66L111.85 277.86C108.8 276.388 106.13 274.232 104.05 271.56C100.27 266.34 101.61 253.25 108.68 226.39L111 227Z" fill="#C7C7C7"/>
<path d="M109.828 273.628L108.415 276.183C108.119 276.72 108.313 277.395 108.85 277.692L114.223 280.663C114.759 280.959 115.435 280.765 115.731 280.228L117.144 277.673C117.441 277.137 117.247 276.461 116.71 276.165L111.337 273.194C110.8 272.897 110.125 273.091 109.828 273.628Z" fill="#263238"/>
<path d="M107.87 225.3C108.97 219.757 110.409 214.286 112.18 208.92C113.228 206.551 114.893 204.507 117 203C117.48 202.95 117.27 198.73 117 195.29C116.78 192.29 116.46 188.71 117.19 187.73C117.611 187.277 118.193 187.006 118.811 186.974C119.428 186.942 120.034 187.152 120.5 187.56C121.33 188.45 121.38 192.01 121.5 195.06C121.62 198.51 121.86 202.72 122.34 202.72C124.472 204.102 126.238 205.979 127.49 208.19C129.821 213.486 131.747 218.952 133.25 224.54C134.02 228.1 132.85 228.54 131.83 228.9C130.39 229.39 129.47 228.4 128.34 224.46C126.54 218.22 124.27 207.71 119.92 207.74C115.61 208.18 113.86 219.31 112.48 225.52C111.61 229.41 110.79 229.78 109.3 229.44C108.26 229.19 107.19 228.75 107.87 225.3Z" fill="#263238"/>
<path d="M160.45 174.79C160.45 174.79 161.45 194.06 157.89 194.38C147.1 195.38 135.1 180.54 134.44 178.19C134.27 177.59 135.14 162.63 135.85 151C136.3 143.52 136.69 137.42 136.69 137.42L164.26 153.22L160.71 173.35L160.45 174.79Z" fill="#AD6359"/>
<path d="M164.26 153.22L160.71 173.35C155.229 171.58 150.182 168.675 145.899 164.824C141.615 160.973 138.191 156.263 135.85 151C136.3 143.52 136.69 137.42 136.69 137.42L140.16 139.26L164.26 153.22Z" fill="#263238"/>
<path d="M192.64 121.16C198.39 156.58 177.82 164.02 170.18 165.25C163.25 166.37 139.5 169.3 130.12 134.66C120.74 100.02 135.39 86.16 151.12 82.76C166.85 79.36 186.89 85.74 192.64 121.16Z" fill="#AD6359"/>
<path d="M184 116.79C183.172 116.738 182.347 116.641 181.53 116.5C180.651 116.519 179.79 116.249 179.08 115.73C178.89 115.523 178.773 115.259 178.747 114.979C178.722 114.698 178.79 114.418 178.94 114.18C179.308 113.764 179.779 113.452 180.305 113.276C180.832 113.101 181.396 113.067 181.94 113.18C183.096 113.234 184.189 113.724 185 114.55C185.166 114.745 185.273 114.984 185.31 115.238C185.346 115.492 185.31 115.751 185.205 115.985C185.101 116.219 184.932 116.419 184.719 116.561C184.506 116.704 184.256 116.783 184 116.79Z" fill="#263238"/>
<path d="M160 119.87C160.83 119.69 161.56 119.39 162.36 119.14C163.233 119 164.035 118.574 164.64 117.93C164.791 117.692 164.858 117.41 164.831 117.129C164.803 116.849 164.684 116.585 164.49 116.38C164.051 116.028 163.524 115.8 162.967 115.721C162.409 115.641 161.84 115.714 161.32 115.93C160.196 116.198 159.212 116.876 158.56 117.83C158.426 118.057 158.361 118.318 158.372 118.581C158.383 118.845 158.47 119.099 158.622 119.315C158.774 119.53 158.985 119.697 159.229 119.796C159.474 119.894 159.741 119.92 160 119.87Z" fill="#263238"/>
<path d="M166.73 127.94C166.73 127.85 166.56 128.07 166.57 128.17C166.93 130.59 166.93 133.42 164.82 134.48C164.76 134.48 164.82 134.63 164.82 134.61C167.49 133.93 167.46 130.17 166.73 127.94Z" fill="#263238"/>
<path d="M164.27 125.65C160.34 125.8 160.93 133.65 164.58 133.53C168.23 133.41 167.57 125.52 164.27 125.65Z" fill="#263238"/>
<path d="M162.76 126.18C162.11 126.68 161.49 127.52 160.67 127.66C159.85 127.8 158.93 127.06 158.25 126.31C158.18 126.24 158.11 126.31 158.12 126.42C158.21 127.92 158.91 129.42 160.54 129.53C162.17 129.64 162.99 128.21 163.25 126.66C163.3 126.38 163 126 162.76 126.18Z" fill="#263238"/>
<path d="M180.12 126.13C180.12 126.03 180.32 126.23 180.32 126.33C180.41 128.77 180.92 131.55 183.18 132.21C183.25 132.21 183.25 132.36 183.18 132.35C180.45 132.16 179.81 128.45 180.12 126.13Z" fill="#263238"/>
<path d="M182.12 123.43C186.02 122.87 186.86 130.71 183.25 131.23C179.64 131.75 178.85 123.91 182.12 123.43Z" fill="#263238"/>
<path d="M183.81 123.77C184.48 124.12 185.17 124.77 185.92 124.77C186.67 124.77 187.32 123.77 187.78 122.95C187.83 122.86 187.9 122.95 187.91 123.02C188.12 124.52 187.79 126.13 186.38 126.57C184.97 127.01 183.99 125.79 183.47 124.34C183.38 124.08 183.54 123.63 183.81 123.77Z" fill="#263238"/>
<path d="M168.76 147C169.36 147.55 169.97 148.32 170.86 148.37C171.769 148.325 172.658 148.09 173.47 147.68C173.486 147.672 173.505 147.669 173.523 147.673C173.54 147.676 173.557 147.686 173.568 147.7C173.58 147.714 173.586 147.731 173.587 147.75C173.587 147.768 173.581 147.786 173.57 147.8C173.241 148.282 172.79 148.668 172.263 148.917C171.736 149.167 171.151 149.272 170.57 149.22C170.066 149.108 169.606 148.849 169.25 148.475C168.894 148.101 168.657 147.629 168.57 147.12C168.49 147 168.67 147 168.76 147Z" fill="#263238"/>
<path d="M178.17 137.34C178.17 137.34 178.99 140.93 179.17 142.65C179.17 142.81 178.77 142.92 178.17 143.01C178.17 143.01 178.17 143.01 178.11 143.01C176.662 143.409 175.133 143.4 173.689 142.986C172.246 142.571 170.945 141.766 169.93 140.66C169.79 140.5 169.99 140.31 170.16 140.4C172.478 141.701 175.154 142.221 177.79 141.88C177.87 141.4 176.18 135.78 176.45 135.74C177.802 135.733 179.148 135.915 180.45 136.28C178.96 128.75 176.27 121.52 174.9 114C174.896 113.947 174.91 113.894 174.939 113.849C174.968 113.805 175.011 113.771 175.062 113.754C175.112 113.737 175.167 113.737 175.217 113.754C175.268 113.772 175.311 113.805 175.34 113.85C178.69 121.23 180.6 129.85 182.34 137.59C182.52 138.55 178.88 137.57 178.17 137.34Z" fill="#263238"/>
<path d="M176.22 142.67C175.415 143.827 174.323 144.754 173.05 145.36C172.348 145.676 171.563 145.76 170.81 145.6C169.17 145.25 169.07 143.76 169.31 142.47C169.442 141.78 169.657 141.108 169.95 140.47C171.749 141.86 173.948 142.631 176.22 142.67Z" fill="#263238"/>
<path d="M173.05 145.36C172.348 145.676 171.563 145.76 170.81 145.6C169.17 145.25 169.07 143.76 169.31 142.47C171.05 142.58 172.83 143.68 173.05 145.36Z" fill="#FF99BA"/>
<path d="M130.12 136C132.429 134.893 134.411 133.205 135.871 131.101C137.331 128.997 138.22 126.55 138.45 124C144.731 121.283 150.175 116.94 154.22 111.42C153.98 112.16 152.22 117.49 151.22 120.17C173.98 116.03 181.1 98.6599 181.1 98.6599C188.45 106.05 189.9 110.77 190.95 113.12C190.95 113.12 191.19 99.1199 184.05 89.7899C181.65 86.5517 178.353 84.088 174.567 82.7035C170.782 81.319 166.673 81.0743 162.75 81.9999C157.393 80.1497 151.609 79.9218 146.122 81.345C140.636 82.7681 135.692 85.7788 131.91 89.9999C117.06 106 130.12 136 130.12 136Z" fill="#263238"/>
<path d="M168.54 116.54C164.878 118.521 160.941 119.947 156.86 120.77C156.81 120.77 156.86 120.77 156.86 120.77C163.259 119.053 169.055 115.59 173.6 110.77C175.53 108.709 177.19 106.41 178.54 103.93C180.124 101.274 181.167 98.3307 181.61 95.2699C181.619 95.2307 181.642 95.1957 181.674 95.1707C181.705 95.1457 181.745 95.1321 181.785 95.1321C181.825 95.1321 181.865 95.1457 181.896 95.1707C181.928 95.1957 181.951 95.2307 181.96 95.2699C181.855 98.3527 181.229 101.396 180.11 104.27C178.871 107.036 177.14 109.553 175 111.7C173.082 113.61 170.904 115.24 168.53 116.54" fill="#263238"/>
<path d="M162.29 141C160.194 141.048 158.127 140.507 156.324 139.438C154.52 138.37 153.053 136.816 152.088 134.955C151.124 133.094 150.701 130.999 150.869 128.909C151.036 126.82 151.786 124.819 153.034 123.135C154.282 121.45 155.978 120.15 157.929 119.382C159.879 118.614 162.006 118.408 164.068 118.789C166.129 119.17 168.042 120.122 169.59 121.536C171.137 122.951 172.256 124.771 172.82 126.79C173.616 129.651 173.244 132.712 171.785 135.3C170.326 137.887 167.9 139.79 165.04 140.59C164.143 140.838 163.22 140.975 162.29 141ZM161.81 120.1C161.001 120.117 160.198 120.238 159.42 120.46C157.047 121.128 155.018 122.676 153.746 124.787C152.475 126.899 152.055 129.416 152.574 131.826C153.093 134.236 154.511 136.358 156.539 137.759C158.567 139.16 161.053 139.736 163.49 139.369C165.928 139.002 168.134 137.719 169.659 135.783C171.185 133.846 171.915 131.401 171.7 128.945C171.486 126.489 170.344 124.207 168.507 122.564C166.669 120.921 164.274 120.04 161.81 120.1Z" fill="#6978F8"/>
<path d="M187.72 137.3C183.44 137.4 179.45 133.1 178.63 127.3C178.195 124.541 178.636 121.715 179.89 119.22C180.367 118.121 181.117 117.163 182.07 116.437C183.023 115.712 184.146 115.243 185.332 115.075C186.518 114.907 187.727 115.047 188.844 115.48C189.961 115.914 190.948 116.626 191.71 117.55C193.606 119.606 194.809 122.204 195.15 124.98C196.01 131.09 193.01 136.59 188.45 137.23C188.209 137.274 187.965 137.297 187.72 137.3ZM186.11 116.5C185.92 116.49 185.73 116.49 185.54 116.5C184.6 116.679 183.717 117.08 182.964 117.67C182.211 118.259 181.609 119.021 181.21 119.89C180.108 122.108 179.726 124.615 180.12 127.06C180.86 132.36 184.5 136.25 188.24 135.72C191.98 135.19 194.41 130.45 193.67 125.16C193.374 122.703 192.327 120.398 190.67 118.56C190.097 117.916 189.395 117.4 188.609 117.045C187.823 116.69 186.972 116.505 186.11 116.5Z" fill="#6978F8"/>
<path d="M172.63 128.14L171.51 127.14C173 125.49 176.62 123.05 179.73 125.56L178.79 126.73C176 124.47 172.76 128 172.63 128.14Z" fill="#6978F8"/>
<path d="M123.61 138L122.2 137.5C122.43 136.84 124.55 131.03 127.78 130.03C130.78 129.1 150.95 128.16 151.78 128.13L151.85 129.62C146.08 129.88 130.54 130.74 128.21 131.46C126.09 132.08 124.17 136.36 123.61 138Z" fill="#6978F8"/>
<path d="M136.19 136.47C136.19 136.47 127.55 125.88 122.68 129.05C117.81 132.22 124.9 148 131 149.73C131.768 150.011 132.585 150.135 133.401 150.092C134.218 150.05 135.017 149.842 135.752 149.482C136.486 149.123 137.14 148.618 137.674 147.999C138.208 147.38 138.612 146.659 138.86 145.88L136.19 136.47Z" fill="#AD6359"/>
<path d="M124.83 133.51C124.809 133.51 124.788 133.518 124.773 133.533C124.758 133.548 124.75 133.569 124.75 133.59C124.75 133.611 124.758 133.632 124.773 133.647C124.788 133.662 124.809 133.67 124.83 133.67C129.12 135.05 131.61 138.76 133.45 142.67C132.09 141.22 130.34 140.5 128.38 142.13C128.28 142.22 128.38 142.38 128.51 142.35C129.226 142.061 130.014 142.003 130.764 142.182C131.515 142.361 132.192 142.769 132.7 143.35C133.548 144.324 134.289 145.387 134.91 146.52C135.13 146.88 135.79 146.63 135.62 146.21V146.11C135.27 140.76 130.58 133.62 124.83 133.51Z" fill="#263238"/>
<path d="M134.26 147.9C134.281 148.072 134.267 148.247 134.217 148.413C134.168 148.579 134.085 148.733 133.973 148.866C133.861 148.999 133.724 149.107 133.568 149.184C133.413 149.261 133.243 149.305 133.07 149.313C132.896 149.321 132.723 149.294 132.561 149.232C132.399 149.17 132.252 149.076 132.128 148.954C132.004 148.833 131.906 148.687 131.841 148.527C131.776 148.366 131.745 148.193 131.75 148.02C131.759 147.702 131.887 147.4 132.11 147.173C132.332 146.946 132.632 146.811 132.949 146.796C133.267 146.781 133.578 146.886 133.821 147.091C134.064 147.295 134.221 147.584 134.26 147.9Z" fill="white"/>
<path d="M130.64 145.9C130.645 146.004 130.63 146.107 130.595 146.205C130.56 146.303 130.507 146.393 130.437 146.47C130.367 146.547 130.283 146.61 130.189 146.655C130.095 146.699 129.994 146.725 129.89 146.73C129.786 146.735 129.682 146.72 129.585 146.685C129.487 146.65 129.397 146.596 129.32 146.527C129.243 146.457 129.18 146.373 129.135 146.279C129.091 146.185 129.065 146.084 129.06 145.98C129.049 145.77 129.122 145.565 129.263 145.41C129.404 145.254 129.6 145.161 129.81 145.15C130.019 145.139 130.225 145.212 130.38 145.353C130.536 145.494 130.629 145.69 130.64 145.9Z" fill="white"/>
<path d="M160.46 175.76L154.46 191.48L134.7 172.11L129.33 178.55C129.33 178.55 148.89 209.55 148.98 208.13L155.15 194.56L164.61 203.74L163.41 180.27L160.46 175.76Z" fill="#6978F8"/>
<path d="M164.7 192.1C164.38 188.23 164.15 184.33 163.7 180.48C163.7 180.34 163.46 180.28 163.43 180.48C162.73 184.23 164.06 199.02 164.11 202.57C163.72 202.17 155.35 194.5 155.27 194.63C153.92 196.79 149.39 206.63 149.08 207.57C145.99 202.65 132.89 183.25 129.25 178.57C129.231 178.54 129.202 178.518 129.167 178.509C129.132 178.501 129.096 178.506 129.065 178.525C129.035 178.544 129.013 178.573 129.004 178.608C128.996 178.643 129.001 178.68 129.02 178.71C131.77 183.92 148.71 209.52 148.94 209.44C151.335 204.774 153.488 199.988 155.39 195.1C156.81 196.78 165.27 205.45 165.29 204.88C165.32 200.613 165.123 196.347 164.7 192.1Z" fill="#263238"/>
<path d="M161.86 226.6C161.86 226.6 154.13 216.4 161.51 211.69C168.89 206.98 174.88 218.29 174.88 218.29L161.86 226.6Z" fill="#455A64"/>
<path d="M223 293.72L224.07 306.19L224.45 310.31L220.84 308.26L210 302L161.61 226.16L174.61 217.85L223 293.72Z" fill="#455A64"/>
<path d="M224.1 306.21L224.46 310.32L220.86 308.27L224.1 306.21Z" fill="#37474F"/>
<path d="M175.444 216.763L160.245 226.461L162.17 229.479L177.37 219.781L175.444 216.763Z" fill="#263238"/>
<path d="M177.562 220.11L162.363 229.808L164.289 232.826L179.488 223.128L177.562 220.11Z" fill="#263238"/>
<path d="M164.29 232.81L169.19 229.68L184 258.85L182.13 259.89L164.29 232.81Z" fill="#263238"/>
<path d="M134 253.37C141.43 251.9 164 315.42 153.15 318.11C104.99 330.11 65.5601 322.55 56.2201 318.11C43.9701 312.24 42.9501 296.51 48.0701 289.25C57.0001 276.66 122.48 255.66 134 253.37Z" fill="#AD6359"/>
<path d="M226.49 250C226.37 257.33 208.32 255.51 208.32 255.51C210.926 257.303 212.819 259.954 213.67 263C214.92 268.43 206.96 272.77 206.96 272.77C209.268 275.195 210.794 278.257 211.34 281.56C212.01 286.88 204.6 292.4 204.6 292.4C205.498 295.797 205.143 299.403 203.6 302.56C199.13 310.82 149.25 318.8 143.04 319.93L131.04 254.93C131.04 254.93 170.23 232.77 181.04 233.51C190.13 234.06 226.67 238.77 226.49 250Z" fill="#AD6359"/>
<path d="M208.18 255.27C198.66 252.27 188.44 251.58 178.58 251.01C178.535 251.01 178.492 251.028 178.46 251.06C178.428 251.091 178.41 251.135 178.41 251.18C178.41 251.225 178.428 251.268 178.46 251.3C178.492 251.332 178.535 251.35 178.58 251.35C188.4 251.8 198.33 254.89 208.11 255.74C208.168 255.74 208.224 255.72 208.268 255.682C208.312 255.644 208.34 255.592 208.349 255.535C208.357 255.478 208.345 255.42 208.314 255.371C208.283 255.322 208.235 255.286 208.18 255.27Z" fill="#263238"/>
<path d="M206.71 272C204.482 271.532 202.203 271.357 199.93 271.48C197.517 271.48 195.107 271.5 192.7 271.54C187.873 271.66 183.053 271.903 178.24 272.27C178.03 272.27 178 272.61 178.24 272.61C183.04 272.5 187.85 272.46 192.66 272.55C195.07 272.55 197.47 272.66 199.88 272.74C202.143 272.964 204.423 272.937 206.68 272.66C206.749 272.639 206.811 272.597 206.855 272.54C206.9 272.483 206.926 272.413 206.929 272.341C206.932 272.268 206.913 272.196 206.874 272.135C206.835 272.074 206.777 272.027 206.71 272Z" fill="#263238"/>
<path d="M204.39 292.37C202.53 291.77 200.2 292.14 198.27 292.23L191.67 292.5C187.28 292.65 182.89 292.8 178.49 292.8C178.27 292.8 178.25 293.14 178.49 293.14C182.96 293.14 187.43 293.25 191.89 293.23C194.09 293.23 196.28 293.23 198.48 293.17C200.34 293.17 202.68 293.32 204.48 292.59C204.505 292.575 204.524 292.552 204.533 292.525C204.543 292.497 204.542 292.468 204.531 292.441C204.52 292.414 204.499 292.392 204.474 292.379C204.448 292.366 204.418 292.363 204.39 292.37Z" fill="#263238"/>
<path d="M126.68 254.21L148.25 325.78C148.25 325.78 69.69 329.61 52.84 317.36C41.13 308.84 42.1 292.81 47.39 287.29C58.94 275.24 126.68 254.21 126.68 254.21Z" fill="#EBEBEB"/>
<path d="M127.55 323C124.16 313 111.77 271.8 109.69 262.71C109.55 262.08 109.91 261.84 110.15 262.47C121.03 292.06 125.15 312.92 127.94 322.85C128 323.12 127.64 323.27 127.55 323Z" fill="#263238"/>
<path d="M126.7 253.47C126.27 253.38 118.7 255.34 116.28 256.05C111.553 257.456 106.86 258.983 102.2 260.63C92.9202 263.899 83.8148 267.644 74.92 271.85L73.59 272.49C70.34 273.27 67.17 274.39 64.01 275.43C63.92 275.43 64.01 275.6 64.01 275.57C66.54 274.73 69.11 274.07 71.68 273.39C70.26 274.08 68.83 274.78 67.43 275.51C64.94 276.8 62.51 278.19 60.04 279.51C60.0309 279.514 60.0227 279.519 60.016 279.527C60.0093 279.534 60.0042 279.543 60.0011 279.552C59.998 279.562 59.9969 279.572 59.9979 279.581C59.999 279.591 60.0021 279.601 60.0071 279.609C60.0121 279.618 60.0189 279.625 60.0269 279.631C60.035 279.637 60.0442 279.641 60.054 279.643C60.0637 279.645 60.0738 279.645 60.0834 279.642C60.0931 279.64 60.1022 279.636 60.11 279.63C64.26 277.48 68.57 275.57 72.83 273.63C77.09 271.69 81.53 269.8 85.93 268.02C94.6 264.51 103.44 261.37 112.39 258.61C114.91 257.84 117.39 257.1 119.97 256.38C121.21 256.03 126.37 254.28 126.59 254.26C126.71 254.445 126.801 254.647 126.86 254.86C126.92 255.07 127.16 255.07 127.11 254.86C127.028 254.382 126.89 253.916 126.7 253.47Z" fill="#263238"/>
<path d="M137.34 326.1C135.06 325.94 126.65 326.35 124.4 326.35C119.86 326.35 115.33 326.35 110.79 326.27C101.67 326.03 92.59 325.37 83.51 324.5C81 324.26 78.51 323.99 75.97 323.72C73.43 323.45 70.7 323.25 68.12 322.78C68.02 322.78 67.98 322.92 68.12 322.94C70.38 323.27 72.6 323.8 74.85 324.19C77.1 324.58 79.36 324.92 81.63 325.24C86.17 325.88 90.73 326.33 95.3 326.71C104.42 327.46 113.6 327.71 122.75 327.54C125.33 327.49 134.96 327.09 137.46 326.54C137.71 326.53 137.6 326.12 137.34 326.1Z" fill="#263238"/>
<path d="M288.37 340.17L205.87 346.15L236.71 237.53L319.21 231.55L288.37 340.17Z" fill="white"/>
<path d="M294.01 339.76L211.52 345.74L242.36 237.12L324.85 231.14L294.01 339.76Z" fill="#37474F"/>
<path d="M251.12 236.5C250.911 237.435 250.519 238.319 249.966 239.102C249.414 239.885 248.711 240.55 247.9 241.06C247.15 241.54 246.9 240.53 247.61 240.06C248.65 239.374 249.426 238.355 249.81 237.17C249.86 236.98 249.92 236.76 249.95 236.57C250.127 235.915 250.127 235.225 249.95 234.57C249.864 234.288 249.684 234.044 249.44 233.88C249.417 233.868 249.396 233.851 249.38 233.83C249.38 233.83 249.29 233.83 249.28 233.83C249.227 233.837 249.173 233.837 249.12 233.83C248.922 233.806 248.722 233.837 248.54 233.92C248.19 234.071 247.881 234.305 247.64 234.6C247.343 234.952 247.094 235.342 246.9 235.76C246.781 235.964 246.675 236.174 246.58 236.39V236.54C246.543 236.609 246.516 236.683 246.5 236.76C246.5 236.76 246.44 236.85 246.45 236.9L245.28 236.99C245.518 236.242 245.855 235.529 246.28 234.87C246.59 234.302 247.018 233.807 247.536 233.419C248.053 233.031 248.648 232.758 249.28 232.62C249.751 232.569 250.223 232.703 250.597 232.994C250.97 233.285 251.215 233.711 251.28 234.18C251.421 234.954 251.366 235.752 251.12 236.5Z" fill="#6978F8"/>
<path d="M257.58 236C257.15 237.885 255.993 239.524 254.36 240.56C253.6 241.04 253.36 240.03 254.07 239.56C255.11 238.877 255.883 237.856 256.26 236.67C256.324 236.474 256.374 236.273 256.41 236.07C256.587 235.415 256.587 234.725 256.41 234.07C256.321 233.787 256.138 233.543 255.89 233.38C255.874 233.383 255.857 233.383 255.84 233.38C255.84 233.38 255.75 233.38 255.73 233.38H255.58C255.382 233.356 255.181 233.387 255 233.47C254.65 233.622 254.341 233.855 254.1 234.15C253.796 234.497 253.546 234.888 253.36 235.31C253.241 235.517 253.135 235.731 253.04 235.95V236.09C252.997 236.157 252.967 236.232 252.95 236.31C252.95 236.36 252.9 236.41 252.95 236.45L251.78 236.54C252.014 235.791 252.351 235.077 252.78 234.42C253.089 233.851 253.517 233.356 254.034 232.968C254.552 232.579 255.148 232.307 255.78 232.17C256.25 232.121 256.721 232.256 257.094 232.547C257.467 232.838 257.713 233.262 257.78 233.73C257.895 234.492 257.827 235.27 257.58 236Z" fill="#6978F8"/>
<path d="M264 235.56C263.568 237.45 262.407 239.092 260.77 240.13C260.02 240.6 259.77 239.59 260.48 239.13C261.523 238.447 262.299 237.427 262.68 236.24C262.68 236.05 262.8 235.84 262.83 235.65C262.999 234.994 262.999 234.306 262.83 233.65C262.748 233.366 262.567 233.121 262.32 232.96H262.26C262.26 232.96 262.18 232.96 262.16 232.96H262C261.806 232.93 261.608 232.958 261.43 233.04C261.077 233.191 260.765 233.424 260.52 233.72C260.223 234.072 259.974 234.462 259.78 234.88C259.66 235.08 259.57 235.3 259.46 235.52V235.66C259.425 235.73 259.398 235.804 259.38 235.88C259.38 235.93 259.33 235.98 259.38 236.02L258.21 236.11C258.444 235.36 258.78 234.647 259.21 233.99C259.519 233.423 259.948 232.929 260.465 232.542C260.983 232.156 261.578 231.885 262.21 231.75C262.68 231.696 263.152 231.828 263.526 232.117C263.9 232.407 264.145 232.832 264.21 233.3C264.321 234.059 264.249 234.834 264 235.56Z" fill="#6978F8"/>
<path d="M270.49 235.09C270.28 236.026 269.887 236.911 269.335 237.695C268.782 238.48 268.081 239.147 267.27 239.66C266.52 240.14 266.27 239.12 266.98 238.66C268.018 237.972 268.793 236.954 269.18 235.77C269.23 235.57 269.29 235.36 269.32 235.17C269.496 234.515 269.496 233.825 269.32 233.17C269.232 232.889 269.053 232.646 268.81 232.48H268.75C268.75 232.48 268.66 232.48 268.65 232.48H268.49C268.292 232.447 268.088 232.478 267.91 232.57C267.558 232.714 267.249 232.945 267.01 233.24C266.713 233.592 266.464 233.982 266.27 234.4C266.151 234.607 266.044 234.821 265.95 235.04V235.18C265.916 235.25 265.889 235.324 265.87 235.4C265.87 235.45 265.81 235.5 265.82 235.55L264.65 235.63C264.888 234.882 265.225 234.169 265.65 233.51C265.96 232.943 266.388 232.45 266.906 232.063C267.424 231.677 268.018 231.406 268.65 231.27C269.12 231.216 269.592 231.348 269.966 231.637C270.34 231.927 270.585 232.352 270.65 232.82C270.783 233.578 270.728 234.358 270.49 235.09Z" fill="#6978F8"/>
<path d="M277 234.62C276.568 236.507 275.412 238.149 273.78 239.19C273.02 239.67 272.78 238.65 273.49 238.19C274.528 237.504 275.3 236.485 275.68 235.3C275.744 235.104 275.794 234.903 275.83 234.7C276.008 234.045 276.008 233.355 275.83 232.7C275.741 232.414 275.558 232.168 275.31 232C275.293 232.003 275.276 232.003 275.26 232C275.26 232 275.17 232 275.15 232H275C274.802 231.971 274.6 232.003 274.42 232.09C274.07 232.238 273.762 232.467 273.52 232.76C273.218 233.112 272.969 233.506 272.78 233.93C272.659 234.133 272.552 234.343 272.46 234.56V234.7C272.419 234.768 272.389 234.842 272.37 234.92C272.37 234.97 272.32 235.02 272.37 235.07L271.2 235.15C271.434 234.401 271.771 233.687 272.2 233.03C272.51 232.463 272.939 231.97 273.457 231.584C273.974 231.197 274.569 230.927 275.2 230.79C275.669 230.738 276.14 230.871 276.513 231.161C276.887 231.45 277.133 231.873 277.2 232.34C277.317 233.105 277.248 233.887 277 234.62Z" fill="#6978F8"/>
<path d="M283.41 234.16C282.975 236.046 281.814 237.684 280.18 238.72C279.43 239.2 279.18 238.18 279.89 237.72C280.931 237.035 281.707 236.015 282.09 234.83C282.14 234.64 282.21 234.42 282.24 234.23C282.413 233.574 282.413 232.885 282.24 232.23C282.156 231.945 281.976 231.698 281.73 231.53H281.67C281.67 231.53 281.59 231.53 281.57 231.53C281.517 231.537 281.463 231.537 281.41 231.53C281.215 231.503 281.017 231.535 280.84 231.62C280.485 231.768 280.172 232.001 279.93 232.3C279.633 232.652 279.384 233.042 279.19 233.46C279.07 233.65 278.98 233.87 278.87 234.09V234.24C278.835 234.306 278.808 234.377 278.79 234.45C278.776 234.499 278.776 234.551 278.79 234.6L277.62 234.68C277.856 233.934 278.192 233.225 278.62 232.57C278.931 232.003 279.359 231.508 279.876 231.12C280.394 230.732 280.988 230.459 281.62 230.32C282.09 230.266 282.562 230.398 282.936 230.687C283.31 230.977 283.555 231.402 283.62 231.87C283.734 232.639 283.662 233.424 283.41 234.16Z" fill="#6978F8"/>
<path d="M289.86 233.69C289.651 234.625 289.259 235.51 288.707 236.292C288.154 237.075 287.451 237.74 286.64 238.25C285.89 238.73 285.64 237.72 286.35 237.25C287.39 236.564 288.166 235.545 288.55 234.36C288.6 234.17 288.66 233.95 288.69 233.76C288.867 233.105 288.867 232.415 288.69 231.76C288.605 231.478 288.424 231.235 288.18 231.07C288.157 231.058 288.136 231.041 288.12 231.02C288.12 231.02 288.03 231.02 288.02 231.02C287.967 231.027 287.913 231.027 287.86 231.02C287.662 230.996 287.462 231.028 287.28 231.11C286.93 231.262 286.622 231.495 286.38 231.79C286.079 232.139 285.83 232.53 285.64 232.95C285.522 233.154 285.415 233.364 285.32 233.58V233.73C285.284 233.801 285.254 233.874 285.23 233.95C285.23 233.95 285.18 234.04 285.23 234.09L284.06 234.18C284.298 233.432 284.635 232.72 285.06 232.06C285.37 231.492 285.798 230.997 286.316 230.609C286.833 230.221 287.428 229.949 288.06 229.81C288.531 229.759 289.003 229.893 289.377 230.184C289.75 230.476 289.995 230.901 290.06 231.37C290.189 232.148 290.12 232.946 289.86 233.69Z" fill="#6978F8"/>
<path d="M296.32 233.22C295.89 235.105 294.733 236.744 293.1 237.78C292.34 238.26 292.1 237.25 292.81 236.78C293.848 236.099 294.621 235.082 295 233.9C295.064 233.704 295.114 233.503 295.15 233.3C295.322 232.644 295.322 231.955 295.15 231.3C295.061 231.017 294.878 230.773 294.63 230.61C294.614 230.613 294.597 230.613 294.58 230.61C294.58 230.61 294.49 230.61 294.47 230.61H294.32C294.122 230.586 293.921 230.617 293.74 230.7C293.39 230.851 293.081 231.085 292.84 231.38C292.536 231.727 292.286 232.118 292.1 232.54C291.981 232.747 291.875 232.961 291.78 233.18V233.32C291.737 233.387 291.707 233.462 291.69 233.54C291.69 233.59 291.64 233.64 291.69 233.68L290.52 233.77C290.754 233.021 291.091 232.307 291.52 231.65C291.829 231.081 292.257 230.586 292.775 230.198C293.292 229.809 293.888 229.537 294.52 229.4C294.99 229.351 295.461 229.486 295.834 229.777C296.207 230.068 296.453 230.492 296.52 230.96C296.634 231.718 296.565 232.493 296.32 233.22Z" fill="#6978F8"/>
<path d="M302.78 232.75C302.348 234.64 301.187 236.282 299.55 237.32C298.8 237.79 298.55 236.78 299.26 236.32C300.303 235.637 301.079 234.617 301.46 233.43C301.51 233.24 301.58 233.03 301.61 232.84C301.779 232.184 301.779 231.496 301.61 230.84C301.528 230.556 301.347 230.311 301.1 230.15H301.04C301.04 230.15 300.96 230.15 300.94 230.15H300.78C300.586 230.12 300.388 230.148 300.21 230.23C299.857 230.381 299.545 230.614 299.3 230.91C299.003 231.262 298.754 231.652 298.56 232.07C298.44 232.27 298.35 232.49 298.24 232.71V232.85C298.206 232.92 298.179 232.994 298.16 233.07C298.16 233.12 298.16 233.17 298.16 233.21L296.99 233.3C297.224 232.55 297.56 231.837 297.99 231.18C298.299 230.613 298.728 230.119 299.245 229.732C299.763 229.346 300.358 229.075 300.99 228.94C301.46 228.886 301.932 229.018 302.306 229.307C302.68 229.597 302.925 230.021 302.99 230.49C303.101 231.249 303.029 232.024 302.78 232.75Z" fill="#6978F8"/>
<path d="M309.23 232.28C309.02 233.216 308.627 234.101 308.075 234.885C307.522 235.669 306.821 236.337 306.01 236.85C305.26 237.33 305.01 236.31 305.72 235.85C306.756 235.159 307.53 234.142 307.92 232.96C307.97 232.76 308.03 232.55 308.06 232.36C308.236 231.705 308.236 231.015 308.06 230.36C307.972 230.079 307.793 229.836 307.55 229.67H307.49C307.49 229.67 307.4 229.67 307.39 229.67H307.23C307.032 229.636 306.828 229.668 306.65 229.76C306.298 229.904 305.989 230.134 305.75 230.43C305.449 230.779 305.2 231.17 305.01 231.59C304.891 231.797 304.785 232.011 304.69 232.23V232.37C304.653 232.44 304.623 232.514 304.6 232.59C304.6 232.64 304.55 232.69 304.6 232.74L303.43 232.82C303.668 232.072 304.005 231.359 304.43 230.7C304.74 230.133 305.168 229.64 305.686 229.253C306.204 228.867 306.798 228.596 307.43 228.46C307.9 228.406 308.372 228.538 308.746 228.827C309.12 229.117 309.365 229.541 309.43 230.01C309.55 230.772 309.481 231.551 309.23 232.28Z" fill="#6978F8"/>
<path d="M315.69 231.81C315.259 233.697 314.102 235.339 312.47 236.38C311.71 236.86 311.47 235.84 312.18 235.38C313.218 234.694 313.991 233.675 314.37 232.49C314.434 232.294 314.484 232.093 314.52 231.89C314.693 231.234 314.693 230.545 314.52 229.89C314.431 229.604 314.248 229.358 314 229.19C313.984 229.193 313.967 229.193 313.95 229.19C313.95 229.19 313.86 229.19 313.84 229.19H313.69C313.492 229.161 313.29 229.193 313.11 229.28C312.761 229.428 312.452 229.657 312.21 229.95C311.908 230.304 311.656 230.698 311.46 231.12C311.343 231.323 311.239 231.533 311.15 231.75V231.89C311.109 231.958 311.079 232.032 311.06 232.11C311.06 232.16 311.01 232.21 311.06 232.26L309.89 232.34C310.124 231.591 310.461 230.877 310.89 230.22C311.201 229.653 311.629 229.16 312.147 228.774C312.664 228.387 313.259 228.117 313.89 227.98C314.359 227.928 314.83 228.061 315.204 228.35C315.577 228.64 315.823 229.063 315.89 229.53C316.007 230.295 315.938 231.077 315.69 231.81Z" fill="#6978F8"/>
<path d="M322.15 231.35C321.715 233.235 320.554 234.874 318.92 235.91C318.17 236.39 317.92 235.37 318.63 234.91C319.671 234.225 320.447 233.205 320.83 232.02C320.88 231.83 320.94 231.61 320.98 231.42C321.153 230.764 321.153 230.075 320.98 229.42C320.896 229.135 320.716 228.888 320.47 228.72H320.41C320.41 228.72 320.33 228.72 320.31 228.72C320.257 228.727 320.203 228.727 320.15 228.72C319.955 228.693 319.757 228.725 319.58 228.81C319.225 228.958 318.912 229.191 318.67 229.49C318.373 229.842 318.124 230.232 317.93 230.65C317.81 230.84 317.72 231.06 317.61 231.28V231.43C317.575 231.496 317.548 231.567 317.53 231.64C317.516 231.689 317.516 231.741 317.53 231.79L316.36 231.87C316.598 231.122 316.934 230.409 317.36 229.75C317.673 229.185 318.102 228.693 318.619 228.307C319.136 227.921 319.73 227.649 320.36 227.51C320.83 227.456 321.302 227.588 321.676 227.877C322.05 228.167 322.295 228.592 322.36 229.06C322.474 229.829 322.402 230.614 322.15 231.35Z" fill="#6978F8"/>
<path d="M320.79 255.56C325.16 264.49 336.02 275.56 336.99 282.85C337.292 284.646 337.006 286.492 336.175 288.113C335.345 289.734 334.014 291.045 332.38 291.85C332.38 291.85 339.75 295.42 339.53 302.21C339.41 305.71 333.73 308.59 333.73 308.59C333.73 308.59 339.5 311.71 338.94 317.74C338.48 322.54 332.86 324.74 332.86 324.74C332.86 324.74 337 330.29 335 335C330.89 344.62 289.48 345.1 282.91 329.92C279.84 322.85 289.96 323.28 289.96 323.28C289.96 323.28 275.56 319.15 275.24 310.61C274.92 302.07 288.04 303.43 288.04 303.43C288.04 303.43 274.12 299.3 274.68 290.43C275.27 281.19 288.16 284.79 288.16 284.79C288.16 284.79 278.88 278.65 280.87 271.95C284.15 260.89 301.74 274.55 310.87 272.29L315.72 257.22L320.79 255.56Z" fill="#AD6359"/>
<path d="M329.24 268.51C325.85 259.69 336.69 248.63 334.65 239.74C331.9 227.74 318.45 239.68 315.65 257.24L315.85 271.24L329.24 268.51Z" fill="#AD6359"/>
<path d="M332 325.19C332.13 325.19 332.18 325.37 332 325.4C318.42 328.88 302.43 328.54 289.32 323.4C288.89 323.23 288.98 322.46 289.49 322.56C304.09 325.26 317.21 326.55 332 325.19Z" fill="#263238"/>
<path d="M333.93 308.68C334.09 308.68 334.12 308.93 333.93 308.97C319.93 312.48 301.93 311.6 287.51 303.84C287.01 303.58 286.84 302.84 287.43 303.11C297.42 307.53 320.61 310 333.93 308.68Z" fill="#263238"/>
<path d="M287.25 283.91C301.36 290.81 316.25 292.5 331.82 292.03C332.02 292.03 332.01 292.31 331.82 292.36C324.27 294.66 314.33 293.93 306.64 292.7C299.482 291.698 292.711 288.84 287 284.41C286.78 284.23 287 283.77 287.25 283.91Z" fill="#263238"/>
<path d="M-20.64 406.09L29.77 405.85L80.18 405.76L181 405.59L281.82 405.76L332.23 405.85L382.64 406.09L332.23 406.34L281.82 406.42L181 406.59L80.18 406.42L29.77 406.33L-20.64 406.09Z" fill="#263238"/>
<path d="M41.21 363.64H-3.20996V430.28H41.21V363.64Z" fill="#6978F8"/>
<path d="M46.5801 345.74H-8.56995V363.63H46.5801V345.74Z" fill="#455A64"/>
<path d="M33.79 382.81H4.21997V412.38H33.79V382.81Z" fill="white"/>
<path opacity="0.1" d="M-3.20996 363.64V368.83L21.8 378.28V430.27H33.79V363.64H-3.20996Z" fill="black"/>
<path d="M-17 428.75C-17 428.016 -16.8553 427.29 -16.5743 426.612C-16.2932 425.935 -15.8813 425.319 -15.3621 424.801C-14.8429 424.282 -14.2266 423.872 -13.5484 423.592C-12.8703 423.312 -12.1436 423.169 -11.41 423.17H-0.290001C0.444088 423.169 1.17125 423.312 1.84996 423.592C2.52867 423.871 3.14565 424.282 3.66566 424.8C4.18567 425.318 4.59852 425.934 4.88066 426.611C5.1628 427.289 5.30869 428.016 5.31 428.75C5.30735 430.233 4.71618 431.655 3.66627 432.703C2.61635 433.751 1.19348 434.34 -0.290001 434.34H-11.37C-12.1071 434.344 -12.8377 434.202 -13.5199 433.923C-14.2022 433.644 -14.8226 433.233 -15.3457 432.714C-15.8687 432.195 -16.2841 431.577 -16.568 430.897C-16.8519 430.217 -16.9987 429.487 -17 428.75Z" fill="#455A64"/>
<path d="M59 428.75C58.9987 429.484 58.8528 430.211 58.5707 430.888C58.2885 431.566 57.8757 432.182 57.3557 432.7C56.8357 433.218 56.2187 433.629 55.54 433.908C54.8613 434.188 54.1341 434.331 53.4 434.33H42.37C41.6359 434.331 40.9088 434.188 40.2301 433.908C39.5513 433.629 38.9344 433.218 38.4144 432.7C37.8944 432.182 37.4815 431.566 37.1994 430.888C36.9172 430.211 36.7713 429.484 36.77 428.75C36.77 427.265 37.36 425.84 38.4102 424.79C39.4604 423.74 40.8848 423.15 42.37 423.15H53.44C54.9183 423.16 56.3324 423.755 57.374 424.804C58.4156 425.853 59.0001 427.272 59 428.75Z" fill="#455A64"/>
<path d="M59 428.75C58.9987 429.484 58.8528 430.211 58.5707 430.888C58.2885 431.566 57.8757 432.182 57.3557 432.7C56.8357 433.218 56.2187 433.629 55.54 433.908C54.8613 434.188 54.1341 434.331 53.4 434.33H47.9V423.15H53.44C54.9183 423.16 56.3324 423.755 57.374 424.804C58.4156 425.853 59.0001 427.272 59 428.75Z" fill="#6978F8"/>
<path d="M71.61 431C71.0917 431.52 70.476 431.932 69.7982 432.213C69.1204 432.494 68.3938 432.639 67.66 432.639C66.9262 432.639 66.1996 432.494 65.5218 432.213C64.844 431.932 64.2283 431.52 63.71 431L55.87 423.17C54.8234 422.122 54.2355 420.701 54.2355 419.22C54.2355 417.739 54.8234 416.318 55.87 415.27C56.9215 414.222 58.3455 413.634 59.83 413.634C61.3145 413.634 62.7385 414.222 63.79 415.27L71.62 423.1C72.6629 424.151 73.2473 425.572 73.2455 427.052C73.2436 428.533 72.6556 429.952 71.61 431Z" fill="#455A64"/>
<path d="M71.61 431C71.0917 431.519 70.4761 431.931 69.7983 432.213C69.1205 432.494 68.3939 432.639 67.66 432.639C66.9262 432.639 66.1996 432.494 65.5218 432.213C64.844 431.931 64.2284 431.519 63.7101 431L59.79 427.08L67.7 419.17L71.62 423.09C72.666 424.141 73.2523 425.564 73.2505 427.047C73.2486 428.53 72.6586 429.951 71.61 431Z" fill="#6978F8"/>
<path d="M20.9401 439.94C20.9414 439.206 21.0873 438.479 21.3694 437.801C21.6515 437.124 22.0644 436.508 22.5844 435.99C23.1044 435.472 23.7214 435.061 24.4001 434.782C25.0788 434.502 25.806 434.359 26.5401 434.36H37.6101C38.3442 434.359 39.0713 434.502 39.75 434.782C40.4287 435.061 41.0457 435.472 41.5657 435.99C42.0857 436.508 42.4986 437.124 42.7807 437.801C43.0629 438.479 43.2087 439.206 43.2101 439.94C43.2074 441.423 42.6162 442.845 41.5663 443.893C40.5164 444.941 39.0935 445.53 37.6101 445.53H26.5401C25.0566 445.53 23.6337 444.941 22.5838 443.893C21.5339 442.845 20.9427 441.423 20.9401 439.94Z" fill="#455A64"/>
<path d="M20.94 439.94C20.9413 439.206 21.0872 438.479 21.3693 437.801C21.6514 437.124 22.0643 436.508 22.5843 435.99C23.1043 435.472 23.7213 435.061 24.4 434.782C25.0787 434.502 25.8059 434.359 26.5399 434.36H32.0799V445.55H26.5399C25.8037 445.55 25.0747 445.405 24.3946 445.123C23.7145 444.841 23.0967 444.427 22.5766 443.906C22.0565 443.385 21.6442 442.767 21.3634 442.086C21.0825 441.405 20.9386 440.676 20.94 439.94Z" fill="#6978F8"/>
<path d="M250.16 427.69L249.88 431.61C249.88 431.67 249.88 431.74 249.88 431.81C249.67 433.05 248.26 434.08 246.15 434.72C243.903 435.345 241.568 435.589 239.24 435.44L238.24 435.37C237.9 435.37 237.55 435.31 237.24 435.26C231.9 434.57 227.96 432.37 228.12 430.08L228.39 426.17C228.23 428.46 232.17 430.66 237.51 431.35L238.51 431.45C238.85 431.45 239.2 431.51 239.51 431.52C241.838 431.674 244.174 431.43 246.42 430.8C248.53 430.17 249.93 429.15 250.15 427.9C250.15 427.82 250.15 427.77 250.16 427.69Z" fill="#DBDBDB"/>
<path d="M232.1 423.06C234.34 422.435 236.669 422.191 238.99 422.34L237.46 431.34C237.79 431.34 238.14 431.42 238.46 431.44C238.78 431.46 239.14 431.5 239.46 431.52L240.99 422.52C246.49 423.22 250.5 425.52 250.09 427.89C249.89 429.14 248.48 430.16 246.37 430.81C244.123 431.435 241.788 431.679 239.46 431.53C239.12 431.53 238.77 431.53 238.46 431.45C238.15 431.37 237.77 431.39 237.46 431.35C231.96 430.65 227.95 428.35 228.36 425.98C228.57 424.73 230 423.7 232.1 423.06Z" fill="white"/>
<path d="M239 422.34L240 422.41L241 422.52L239.47 431.52C239.13 431.52 238.78 431.52 238.47 431.44C238.16 431.36 237.78 431.38 237.47 431.34L239 422.34Z" fill="#DBDBDB"/>
<path d="M249.54 434.91V438.83C249.535 438.896 249.535 438.963 249.54 439.03C249.65 440.28 250.98 441.43 253.02 442.23C255.209 443.034 257.518 443.463 259.85 443.5H260.85C261.19 443.5 261.54 443.5 261.85 443.5C267.23 443.24 271.34 441.36 271.36 439.06V435.14C271.36 437.43 267.23 439.31 261.85 439.58H260.85C260.517 439.599 260.183 439.599 259.85 439.58C257.519 439.546 255.21 439.12 253.02 438.32C250.96 437.52 249.65 436.38 249.54 435.12C249.535 435.05 249.535 434.98 249.54 434.91Z" fill="#DBDBDB"/>
<path d="M267.92 431.73C265.734 430.926 263.429 430.497 261.1 430.46L261.91 439.56C261.57 439.56 261.22 439.56 260.91 439.56H259.91L259.1 430.46C253.56 430.72 249.38 432.7 249.6 435.08C249.71 436.35 251.03 437.48 253.08 438.29C255.269 439.094 257.578 439.523 259.91 439.56H260.91C261.25 439.56 261.6 439.56 261.91 439.56C267.44 439.3 271.63 437.32 271.41 434.94C271.3 433.67 270 432.54 267.92 431.73Z" fill="white"/>
<path d="M261.1 430.46H260.1C259.76 430.46 259.427 430.46 259.1 430.46L259.91 439.56H260.91C261.25 439.56 261.6 439.56 261.91 439.56L261.1 430.46Z" fill="#DBDBDB"/>
<path d="M220.33 433.65C217.94 435.001 215.263 435.762 212.52 435.87C210.174 436.031 207.821 435.672 205.63 434.82C205.39 434.72 205.14 434.59 204.9 434.47C204.66 434.35 204.44 434.21 204.23 434.07C203.633 433.732 203.121 433.262 202.734 432.695C202.348 432.128 202.096 431.48 202 430.8L201.64 427.23C201.743 427.918 202.005 428.572 202.404 429.141C202.803 429.71 203.329 430.179 203.94 430.51C204.14 430.637 204.36 430.767 204.6 430.9C204.833 431.031 205.073 431.148 205.32 431.25C207.511 432.102 209.864 432.461 212.21 432.3C214.95 432.194 217.627 431.44 220.02 430.1C222.45 428.64 223.59 426.79 223.41 425.1L223.77 428.67C223.9 430.35 222.76 432.2 220.33 433.65Z" fill="#DBDBDB"/>
<path d="M205.28 431.25L205.48 433.33L220 424.62L219.65 421.05L203.87 430.51C204.06 430.64 204.29 430.77 204.53 430.9C204.77 431.03 205 431.14 205.28 431.25Z" fill="#6978F8"/>
<path d="M219.67 421.05C219.92 421.16 220.17 421.27 220.41 421.4C220.65 421.53 220.86 421.65 221.07 421.79L205.28 431.25C205.02 431.14 204.79 431.03 204.55 430.9C204.31 430.77 204.08 430.64 203.89 430.51L219.67 421.05Z" fill="#DBDBDB"/>
<path d="M221.07 421.79L221.43 425.35L205.63 434.81L205.28 431.25L221.07 421.79Z" fill="#DBDBDB"/>
<path d="M212.78 420C215.126 419.843 217.478 420.201 219.67 421.05L203.89 430.51C204.08 430.64 204.31 430.77 204.55 430.9C204.79 431.03 205.02 431.14 205.28 431.25L221.07 421.79C224.51 424.01 224.07 427.62 219.97 430.09C217.581 431.432 214.908 432.19 212.17 432.3C209.824 432.458 207.472 432.1 205.28 431.25C205.02 431.14 204.79 431.03 204.55 430.9C204.31 430.77 204.08 430.64 203.89 430.51C200.45 428.28 200.89 424.68 204.99 422.21C207.376 420.869 210.045 420.112 212.78 420Z" fill="white"/>
<path d="M278.05 430.77C280.436 432.12 283.111 432.881 285.85 432.99C288.199 433.152 290.555 432.794 292.75 431.94C292.99 431.84 293.24 431.71 293.48 431.59C293.72 431.47 293.94 431.33 294.14 431.19C294.748 430.859 295.271 430.391 295.668 429.824C296.066 429.256 296.326 428.605 296.43 427.92L296.79 424.35C296.685 425.037 296.423 425.691 296.024 426.26C295.625 426.829 295.1 427.298 294.49 427.63C294.29 427.757 294.07 427.887 293.83 428.02C293.597 428.151 293.357 428.268 293.11 428.37C290.915 429.224 288.559 429.582 286.21 429.42C283.472 429.318 280.798 428.564 278.41 427.22C275.98 425.76 274.84 423.91 275.01 422.22L274.65 425.79C274.48 427.48 275.62 429.32 278.05 430.77Z" fill="#DBDBDB"/>
<path d="M293.1 428.37L292.89 430.45L278.35 421.74L278.71 418.18L294.49 427.63C294.278 427.773 294.057 427.903 293.83 428.02C293.59 428.15 293.35 428.26 293.1 428.37Z" fill="#6978F8"/>
<path d="M278.71 418.18C278.46 418.28 278.21 418.4 277.97 418.52C277.73 418.64 277.52 418.77 277.3 418.91L293.1 428.37C293.35 428.26 293.59 428.15 293.83 428.02C294.057 427.903 294.278 427.773 294.49 427.63L278.71 418.18Z" fill="#DBDBDB"/>
<path d="M277.31 418.91L276.95 422.47L292.75 431.93L293.1 428.37L277.31 418.91Z" fill="#DBDBDB"/>
<path d="M285.59 417.13C283.247 416.963 280.896 417.322 278.71 418.18L294.49 427.63C294.278 427.772 294.057 427.903 293.83 428.02C293.59 428.15 293.35 428.26 293.1 428.37L277.3 418.91C273.87 421.14 274.3 424.74 278.41 427.21C280.799 428.552 283.472 429.31 286.21 429.42C288.556 429.588 290.91 429.229 293.1 428.37C293.35 428.26 293.59 428.15 293.83 428.02C294.057 427.903 294.278 427.772 294.49 427.63C297.93 425.4 297.49 421.8 293.39 419.33C291.002 417.987 288.328 417.232 285.59 417.13Z" fill="white"/>
<path d="M211.54 417.4L211.49 421.55C211.477 421.822 211.363 422.078 211.17 422.27C210.45 423.09 208.61 423.74 206.22 424.11C203.807 424.461 201.365 424.572 198.93 424.44L197.93 424.37L196.93 424.27C192.47 423.78 189.56 422.56 189.57 421.27L189.63 417.14C189.63 418.42 192.54 419.64 196.99 420.14C197.3 420.19 197.65 420.22 197.99 420.24L198.99 420.32C201.425 420.461 203.868 420.35 206.28 419.99C208.66 419.61 210.51 418.99 211.28 418.14C211.459 417.936 211.552 417.671 211.54 417.4Z" fill="#DBDBDB"/>
<path d="M198 420.23L197.94 424.37L196.94 424.27L196.99 420.13L198 420.23Z" fill="#DBDBDB"/>
<path d="M202.21 414.23L203.21 414.3C203.55 414.3 203.883 414.33 204.21 414.39L199.01 420.29L198.01 420.23L197.01 420.13L202.21 414.23Z" fill="#DBDBDB"/>
<path d="M204.2 414.39L204.14 418.53L198.94 424.44L199 420.29L204.2 414.39Z" fill="#DBDBDB"/>
<path d="M194.94 414.55C197.346 414.193 199.782 414.086 202.21 414.23L197 420.13L198 420.23L199 420.29L204.2 414.39C209.47 414.97 212.59 416.59 211.2 418.13C210.48 418.95 208.64 419.59 206.2 419.97C203.794 420.327 201.358 420.434 198.93 420.29L197.93 420.23L196.93 420.13C191.65 419.55 188.54 417.94 189.93 416.39C190.7 415.57 192.54 414.93 194.94 414.55Z" fill="white"/>
<path d="M238.57 417.72L238.63 421.86C238.632 421.996 238.661 422.129 238.716 422.253C238.771 422.377 238.851 422.488 238.95 422.58C239.67 423.4 241.51 424.05 243.9 424.43C246.31 424.781 248.748 424.891 251.18 424.76L252.18 424.68C252.5 424.68 252.84 424.63 253.18 424.58C257.64 424.09 260.55 422.87 260.53 421.58V417.44C260.53 418.73 257.62 419.95 253.17 420.44L252.17 420.54L251.17 420.61C248.739 420.761 246.298 420.651 243.89 420.28C241.5 419.91 239.66 419.28 238.94 418.44C238.832 418.353 238.743 418.243 238.679 418.119C238.615 417.995 238.578 417.859 238.57 417.72Z" fill="#DBDBDB"/>
<path d="M252.13 420.54L252.18 424.68C252.51 424.68 252.85 424.62 253.18 424.59L253.12 420.45L252.13 420.54Z" fill="#DBDBDB"/>
<path d="M247.91 414.54L246.91 414.61L245.91 414.7L251.11 420.61L252.11 420.54L253.11 420.45L247.91 414.54Z" fill="#DBDBDB"/>
<path d="M245.92 414.7L245.97 418.85L251.18 424.75L251.12 420.61L245.92 414.7Z" fill="#DBDBDB"/>
<path d="M255.17 414.86C252.767 414.508 250.335 414.401 247.91 414.54L253.11 420.45L252.11 420.54L251.11 420.61L245.91 414.7C240.63 415.29 237.52 416.9 238.91 418.44C239.63 419.26 241.47 419.91 243.86 420.28C246.269 420.64 248.708 420.751 251.14 420.61L252.14 420.54L253.14 420.45C258.43 419.87 261.54 418.25 260.14 416.71C259.42 415.89 257.57 415.24 255.17 414.86Z" fill="white"/>
<path d="M213.36 438.14L213.41 442.29C213.412 442.426 213.441 442.559 213.496 442.683C213.551 442.807 213.631 442.918 213.73 443.01C214.45 443.83 216.29 444.47 218.68 444.85C221.09 445.201 223.529 445.311 225.96 445.18L226.96 445.11L227.96 445.01C232.42 444.52 235.33 443.29 235.32 442.01L235.26 437.88C235.26 439.16 232.35 440.38 227.9 440.88L226.9 440.98L225.9 441.05C223.465 441.201 221.021 441.091 218.61 440.72C216.22 440.35 214.38 439.72 213.66 438.88C213.467 438.683 213.359 438.417 213.36 438.14Z" fill="#DBDBDB"/>
<path d="M222.69 435L221.69 435.07L220.69 435.17L225.89 441.07L226.89 441L227.89 440.91L222.69 435Z" fill="#DBDBDB"/>
<path d="M220.7 435.13L220.75 439.27L225.96 445.17L225.9 441.03L220.7 435.13Z" fill="#DBDBDB"/>
<path d="M230 435.29C227.595 434.93 225.158 434.819 222.73 434.96L227.93 440.87L226.93 440.96L225.93 441.03L220.73 435.13C215.46 435.71 212.34 437.32 213.73 438.87C214.45 439.68 216.29 440.33 218.68 440.71C221.09 441.062 223.529 441.169 225.96 441.03L226.96 440.96L227.96 440.87C233.25 440.29 236.36 438.67 234.96 437.13C234.2 436.31 232.35 435.67 230 435.29Z" fill="white"/>
<path d="M318.26 347.8H352.91C355.159 347.8 357.316 348.693 358.906 350.284C360.497 351.874 361.39 354.031 361.39 356.28V432.54C361.39 433.381 361.056 434.187 360.462 434.782C359.867 435.376 359.061 435.71 358.22 435.71H313C312.159 435.71 311.353 435.376 310.759 434.782C310.164 434.187 309.83 433.381 309.83 432.54V356.27C309.833 354.031 310.72 351.885 312.3 350.298C313.879 348.711 316.021 347.813 318.26 347.8Z" fill="#6978F8"/>
<path d="M350.53 336.64H320.65V350.33H350.53V336.64Z" fill="#6978F8"/>
<path d="M361.39 376.43H309.79V411.22H361.39V376.43Z" fill="#EBEBEB"/>
<path d="M361.39 404.11H309.79V407.26H361.39V404.11Z" fill="#455A64"/>
<path d="M361.39 380.4H309.79V383.55H361.39V380.4Z" fill="#455A64"/>
<path d="M352.61 327.06H318.57V339.74H352.61V327.06Z" fill="#455A64"/>
<path d="M354.39 339.73H316.78V343.48H354.39V339.73Z" fill="#37474F"/>
<path d="M321.29 328.83H320.85C320.541 328.83 320.29 329.081 320.29 329.39V337.41C320.29 337.719 320.541 337.97 320.85 337.97H321.29C321.599 337.97 321.85 337.719 321.85 337.41V329.39C321.85 329.081 321.599 328.83 321.29 328.83Z" fill="#37474F"/>
<path d="M324.19 328.83H323.75C323.441 328.83 323.19 329.081 323.19 329.39V337.41C323.19 337.719 323.441 337.97 323.75 337.97H324.19C324.499 337.97 324.75 337.719 324.75 337.41V329.39C324.75 329.081 324.499 328.83 324.19 328.83Z" fill="#37474F"/>
<path d="M326.65 328.83H327.1C327.246 328.83 327.386 328.888 327.489 328.991C327.592 329.094 327.65 329.234 327.65 329.38V337.38C327.65 337.529 327.591 337.671 327.486 337.776C327.381 337.881 327.239 337.94 327.09 337.94H326.64C326.492 337.94 326.349 337.881 326.244 337.776C326.139 337.671 326.08 337.529 326.08 337.38V329.38C326.081 329.307 326.097 329.234 326.127 329.167C326.156 329.099 326.198 329.038 326.251 328.987C326.304 328.936 326.367 328.896 326.435 328.869C326.503 328.842 326.577 328.829 326.65 328.83Z" fill="#37474F"/>
<path d="M330 328.83H329.56C329.251 328.83 329 329.081 329 329.39V337.41C329 337.719 329.251 337.97 329.56 337.97H330C330.309 337.97 330.56 337.719 330.56 337.41V329.39C330.56 329.081 330.309 328.83 330 328.83Z" fill="#37474F"/>
<path d="M332.91 328.83H332.47C332.161 328.83 331.91 329.081 331.91 329.39V337.41C331.91 337.719 332.161 337.97 332.47 337.97H332.91C333.219 337.97 333.47 337.719 333.47 337.41V329.39C333.47 329.081 333.219 328.83 332.91 328.83Z" fill="#37474F"/>
<path d="M335.36 328.83H335.81C335.959 328.83 336.101 328.889 336.206 328.994C336.311 329.099 336.37 329.242 336.37 329.39V337.39C336.37 337.539 336.311 337.681 336.206 337.786C336.101 337.891 335.959 337.95 335.81 337.95H335.36C335.214 337.95 335.074 337.892 334.971 337.789C334.868 337.686 334.81 337.546 334.81 337.4V329.4C334.809 329.327 334.822 329.253 334.849 329.185C334.876 329.117 334.916 329.054 334.967 329.001C335.018 328.948 335.079 328.906 335.147 328.877C335.214 328.847 335.287 328.831 335.36 328.83Z" fill="#37474F"/>
<path d="M338.71 328.83H338.27C337.961 328.83 337.71 329.081 337.71 329.39V337.41C337.71 337.719 337.961 337.97 338.27 337.97H338.71C339.019 337.97 339.27 337.719 339.27 337.41V329.39C339.27 329.081 339.019 328.83 338.71 328.83Z" fill="#37474F"/>
<path d="M341.62 328.83H341.18C340.871 328.83 340.62 329.081 340.62 329.39V337.41C340.62 337.719 340.871 337.97 341.18 337.97H341.62C341.929 337.97 342.18 337.719 342.18 337.41V329.39C342.18 329.081 341.929 328.83 341.62 328.83Z" fill="#37474F"/>
<path d="M344.08 328.83H344.53C344.679 328.83 344.821 328.889 344.926 328.994C345.031 329.099 345.09 329.242 345.09 329.39V337.39C345.09 337.539 345.031 337.681 344.926 337.786C344.821 337.891 344.679 337.95 344.53 337.95H344.08C343.934 337.95 343.794 337.892 343.691 337.789C343.588 337.686 343.53 337.546 343.53 337.4V329.4C343.529 329.327 343.542 329.253 343.569 329.185C343.596 329.117 343.636 329.054 343.687 329.001C343.738 328.948 343.799 328.906 343.867 328.877C343.934 328.847 344.007 328.831 344.08 328.83Z" fill="#37474F"/>
<path d="M347.42 328.83H346.98C346.671 328.83 346.42 329.081 346.42 329.39V337.41C346.42 337.719 346.671 337.97 346.98 337.97H347.42C347.729 337.97 347.98 337.719 347.98 337.41V329.39C347.98 329.081 347.729 328.83 347.42 328.83Z" fill="#37474F"/>
<path d="M350.33 328.83H349.89C349.581 328.83 349.33 329.081 349.33 329.39V337.41C349.33 337.719 349.581 337.97 349.89 337.97H350.33C350.639 337.97 350.89 337.719 350.89 337.41V329.39C350.89 329.081 350.639 328.83 350.33 328.83Z" fill="#37474F"/>
<path d="M103.38 456.641L103.669 427.653L99.839 427.615L99.5506 456.603L103.38 456.641Z" fill="#6978F8"/>
<path opacity="0.1" d="M103.38 456.641L103.669 427.653L99.839 427.615L99.5506 456.603L103.38 456.641Z" fill="black"/>
<path d="M77.4151 451.261L77.5917 433.512L73.7618 433.474L73.5853 451.223L77.4151 451.261Z" fill="#6978F8"/>
<path opacity="0.1" d="M77.4151 451.261L77.5917 433.512L73.7618 433.474L73.5853 451.223L77.4151 451.261Z" fill="black"/>
<path d="M99.6568 447.3L99.7505 437.881L77.5516 437.66L77.4579 447.08L99.6568 447.3Z" fill="#6978F8"/>
<path opacity="0.2" d="M96.0601 447.26L97.3701 437.85L99.7401 437.88L99.6401 447.29L96.0601 447.26Z" fill="black"/>
<path d="M182.169 453.318L182.375 432.569L103.629 431.786L103.423 452.535L182.169 453.318Z" fill="#6978F8"/>
<path opacity="0.6" d="M182.169 453.318L182.375 432.569L103.629 431.786L103.423 452.535L182.169 453.318Z" fill="white"/>
<path d="M182.198 450.59L182.35 435.3L107.333 434.554L107.181 449.843L182.198 450.59Z" fill="#6978F8"/>
<path d="M174.195 437.141L174.233 433.281L173.773 433.276L173.735 437.136L174.195 437.141Z" fill="#263238"/>
<path d="M172.66 437.151L172.699 433.291L172.239 433.286L172.2 437.146L172.66 437.151Z" fill="#263238"/>
<path d="M171.106 437.131L171.144 433.271L170.684 433.267L170.646 437.126L171.106 437.131Z" fill="#263238"/>
<path d="M169.561 437.121L169.6 433.261L169.14 433.257L169.101 437.117L169.561 437.121Z" fill="#263238"/>
<path d="M167.983 439.917L168.049 433.228L167.589 433.223L167.523 439.913L167.983 439.917Z" fill="#263238"/>
<path d="M166.541 437.092L166.58 433.232L166.12 433.227L166.081 437.087L166.541 437.092Z" fill="#263238"/>
<path d="M164.987 437.072L165.025 433.212L164.565 433.207L164.527 437.067L164.987 437.072Z" fill="#263238"/>
<path d="M163.442 437.042L163.481 433.182L163.021 433.178L162.982 437.038L163.442 437.042Z" fill="#263238"/>
<path d="M161.864 437.021L161.903 433.161L161.443 433.157L161.404 437.017L161.864 437.021Z" fill="#263238"/>
<path d="M160.309 439.848L160.376 433.159L159.916 433.154L159.849 439.844L160.309 439.848Z" fill="#263238"/>
<path d="M158.878 437.013L158.916 433.153L158.456 433.149L158.418 437.008L158.878 437.013Z" fill="#263238"/>
<path d="M157.313 436.973L157.351 433.113L156.891 433.109L156.853 436.969L157.313 436.973Z" fill="#263238"/>
<path d="M155.768 436.963L155.807 433.104L155.347 433.099L155.308 436.959L155.768 436.963Z" fill="#263238"/>
<path d="M154.224 436.973L154.262 433.114L153.802 433.109L153.764 436.969L154.224 436.973Z" fill="#263238"/>
<path d="M152.645 439.779L152.712 433.09L152.252 433.085L152.185 439.775L152.645 439.779Z" fill="#263238"/>
<path d="M151.204 436.934L151.242 433.074L150.782 433.069L150.744 436.929L151.204 436.934Z" fill="#263238"/>
<path d="M149.649 436.904L149.688 433.044L149.228 433.04L149.189 436.9L149.649 436.904Z" fill="#263238"/>
<path d="M148.105 436.904L148.143 433.044L147.683 433.04L147.645 436.9L148.105 436.904Z" fill="#263238"/>
<path d="M146.55 436.865L146.589 433.005L146.129 433L146.09 436.86L146.55 436.865Z" fill="#263238"/>
<path d="M144.982 439.691L145.048 433.001L144.588 432.996L144.522 439.686L144.982 439.691Z" fill="#263238"/>
<path d="M143.53 436.855L143.568 432.995L143.109 432.991L143.07 436.851L143.53 436.855Z" fill="#263238"/>
<path d="M141.976 436.825L142.014 432.965L141.554 432.961L141.516 436.821L141.976 436.825Z" fill="#263238"/>
<path d="M140.441 436.826L140.479 432.966L140.019 432.961L139.981 436.821L140.441 436.826Z" fill="#263238"/>
<path d="M138.886 436.786L138.925 432.926L138.465 432.921L138.426 436.781L138.886 436.786Z" fill="#263238"/>
<path d="M137.308 439.622L137.375 432.932L136.915 432.928L136.848 439.617L137.308 439.622Z" fill="#263238"/>
<path d="M135.866 436.776L135.905 432.917L135.445 432.912L135.406 436.772L135.866 436.776Z" fill="#263238"/>
<path d="M134.322 436.766L134.36 432.906L133.9 432.902L133.862 436.762L134.322 436.766Z" fill="#263238"/>
<path d="M132.777 436.747L132.816 432.887L132.356 432.882L132.317 436.742L132.777 436.747Z" fill="#263238"/>
<path d="M131.213 436.717L131.251 432.857L130.791 432.853L130.753 436.712L131.213 436.717Z" fill="#263238"/>
<path d="M129.644 439.553L129.711 432.863L129.251 432.859L129.184 439.548L129.644 439.553Z" fill="#263238"/>
<path d="M128.193 436.687L128.231 432.828L127.771 432.823L127.733 436.683L128.193 436.687Z" fill="#263238"/>
<path d="M126.648 436.678L126.687 432.818L126.227 432.813L126.188 436.673L126.648 436.678Z" fill="#263238"/>
<path d="M125.094 436.658L125.132 432.798L124.672 432.793L124.634 436.653L125.094 436.658Z" fill="#263238"/>
<path d="M123.549 436.648L123.587 432.788L123.127 432.784L123.089 436.644L123.549 436.648Z" fill="#263238"/>
<path d="M121.981 439.464L122.047 432.774L121.587 432.77L121.521 439.46L121.981 439.464Z" fill="#263238"/>
<path d="M120.529 436.619L120.567 432.759L120.107 432.754L120.069 436.614L120.529 436.619Z" fill="#263238"/>
<path d="M118.974 436.599L119.013 432.739L118.553 432.734L118.514 436.594L118.974 436.599Z" fill="#263238"/>
<path d="M117.42 436.569L117.458 432.709L116.998 432.705L116.96 436.564L117.42 436.569Z" fill="#263238"/>
<path d="M115.885 436.589L115.924 432.729L115.464 432.725L115.425 436.584L115.885 436.589Z" fill="#263238"/>
<path d="M114.297 439.385L114.363 432.696L113.903 432.691L113.837 439.381L114.297 439.385Z" fill="#263238"/>
<path d="M112.855 436.54L112.894 432.68L112.434 432.675L112.395 436.535L112.855 436.54Z" fill="#263238"/>
<path d="M111.311 436.54L111.349 432.68L110.889 432.675L110.851 436.535L111.311 436.54Z" fill="#263238"/>
<path d="M109.766 436.51L109.804 432.65L109.344 432.646L109.306 436.506L109.766 436.51Z" fill="#263238"/>
<path d="M108.211 436.51L108.25 432.65L107.79 432.646L107.752 436.506L108.211 436.51Z" fill="#263238"/>
<path d="M106.633 439.316L106.7 432.627L106.24 432.622L106.173 439.312L106.633 439.316Z" fill="#263238"/>
<path d="M182.169 453.311L182.375 432.562L176.435 432.502L176.229 453.251L182.169 453.311Z" fill="#263238"/>
<path d="M189.008 450.024L189.148 436.005L182.348 435.937L182.209 449.957L189.008 450.024Z" fill="#6978F8"/>
</svg>
