<svg width="34" height="34" viewBox="0 0 34 34" fill="none" xmlns="http://www.w3.org/2000/svg">
<circle cx="17" cy="17" r="17" fill="#6978F8"/>
<g clip-path="url(#clip0_115_22)">
<path d="M16.9999 8.71796C18.0734 8.71796 19.1029 9.1772 19.862 9.99467C20.621 10.8121 21.0475 11.9209 21.0475 13.0769V15.6923C21.6916 15.6923 22.3093 15.9679 22.7648 16.4583C23.2202 16.9488 23.4761 17.6141 23.4761 18.3077V23.5385C23.4761 24.2321 23.2202 24.8973 22.7648 25.3878C22.3093 25.8783 21.6916 26.1539 21.0475 26.1539H12.9523C12.3082 26.1539 11.6904 25.8783 11.235 25.3878C10.7795 24.8973 10.5237 24.2321 10.5237 23.5385V18.3077C10.5237 17.6141 10.7795 16.9488 11.235 16.4583C11.6904 15.9679 12.3082 15.6923 12.9523 15.6923V13.0769C12.9523 11.9209 13.3787 10.8121 14.1378 9.99467C14.8968 9.1772 15.9264 8.71796 16.9999 8.71796ZM16.9999 19.1795C16.5914 19.1794 16.198 19.3455 15.8985 19.6446C15.599 19.9437 15.4155 20.3537 15.3849 20.7923L15.3808 20.9231C15.3808 21.2679 15.4758 21.605 15.6537 21.8918C15.8316 22.1785 16.0844 22.402 16.3803 22.534C16.6761 22.6659 17.0017 22.7004 17.3157 22.6332C17.6298 22.5659 17.9183 22.3998 18.1447 22.156C18.3711 21.9121 18.5253 21.6015 18.5878 21.2632C18.6503 20.925 18.6182 20.5744 18.4957 20.2558C18.3731 19.9372 18.1656 19.6649 17.8994 19.4733C17.6331 19.2818 17.3201 19.1795 16.9999 19.1795ZM16.9999 10.4615C16.3558 10.4615 15.7381 10.7371 15.2826 11.2276C14.8272 11.7181 14.5713 12.3833 14.5713 13.0769V15.6923H19.4284V13.0769C19.4284 12.3833 19.1726 11.7181 18.7171 11.2276C18.2617 10.7371 17.644 10.4615 16.9999 10.4615Z" fill="white"/>
</g>
<defs>
<clipPath id="clip0_115_22">
<rect width="19.4286" height="20.9231" fill="white" transform="translate(7.28564 6.97437)"/>
</clipPath>
</defs>
</svg>
