<svg width="56" height="58" viewBox="0 0 56 58" fill="none" xmlns="http://www.w3.org/2000/svg">
<g clip-path="url(#clip0_144_20)">
<path d="M7 16.9167C7 14.3529 7.98333 11.8942 9.73367 10.0813C11.484 8.26845 13.858 7.25 16.3333 7.25H39.6667C42.142 7.25 44.516 8.26845 46.2663 10.0813C48.0167 11.8942 49 14.3529 49 16.9167V41.0833C49 43.6471 48.0167 46.1058 46.2663 47.9187C44.516 49.7316 42.142 50.75 39.6667 50.75H16.3333C13.858 50.75 11.484 49.7316 9.73367 47.9187C7.98333 46.1058 7 43.6471 7 41.0833V16.9167Z" stroke="white" stroke-width="2" stroke-linecap="round" stroke-linejoin="round"/>
<path d="M28 16.9167C32.564 16.9167 36.6893 18.8548 39.6667 21.9796L32.7693 28.9976C31.4756 27.7566 29.7773 27.067 28.014 27.0667C26.251 27.0663 24.5527 27.755 23.2587 28.9952L16.3613 21.9796C17.8816 20.3724 19.697 19.0964 21.7006 18.2269C23.7043 17.3574 25.8556 16.9119 28.028 16.9167H28Z" stroke="white" stroke-width="2" stroke-linecap="round" stroke-linejoin="round"/>
</g>
<defs>
<clipPath id="clip0_144_20">
<rect width="56" height="58" fill="white"/>
</clipPath>
</defs>
</svg>
