<svg width="58" height="56" viewBox="0 0 58 56" fill="none" xmlns="http://www.w3.org/2000/svg">
<g clip-path="url(#clip0_77_28)">
<path d="M48.8336 8.85034C51.5298 11.4539 53.0444 14.9849 53.0444 18.6667C53.0444 22.3484 51.5298 25.8794 48.8336 28.483L29.5002 47.1497C26.7931 49.7032 23.1525 51.1234 19.368 51.1021C15.5835 51.0808 11.9602 49.6198 9.28413 47.036C6.60803 44.4522 5.09485 40.9539 5.07281 37.2999C5.05078 33.6458 6.52165 30.1307 9.1664 27.517L28.4997 8.85034C31.1963 6.24711 34.8534 4.78467 38.6667 4.78467C42.4799 4.78467 46.137 6.24711 48.8336 8.85034ZM31.9169 12.1497L21.5397 22.1667L35.0392 35.2007L45.4164 25.186C46.3132 24.3324 47.0263 23.3159 47.5145 22.1951C48.0027 21.0742 48.2563 19.8712 48.2608 18.6553C48.2653 17.4394 48.0206 16.2347 47.5408 15.1105C47.0609 13.9863 46.3555 12.9649 45.465 12.1051C44.5745 11.2453 43.5166 10.5642 42.3523 10.1009C41.1879 9.63759 39.9402 9.40131 38.6808 9.40567C37.4215 9.41003 36.1755 9.65493 35.0146 10.1263C33.8538 10.5976 32.801 11.2861 31.9169 12.152" fill="white"/>
</g>
<defs>
<clipPath id="clip0_77_28">
<rect width="58" height="56" fill="white"/>
</clipPath>
</defs>
</svg>
