<svg width="70" height="64" viewBox="0 0 70 64" fill="none" xmlns="http://www.w3.org/2000/svg">
<g clip-path="url(#clip0_77_12)">
<path d="M35 8C35.7735 8 36.5154 8.28095 37.0624 8.78105C37.6093 9.28115 37.9166 9.95942 37.9166 10.6667V24C37.9167 24.9362 38.1862 25.8558 38.6982 26.6666C39.2102 27.4773 39.9465 28.1506 40.8333 28.6187V19.352C40.8333 16.04 43.7354 13.3333 47.3462 13.3333C48.4312 13.3333 49.4987 13.584 50.6187 14.152L51.1437 14.464C56.0875 17.744 59.1937 22.5573 62.1483 31.3707C63.4589 35.2889 64.1316 39.7867 64.1666 44.864C64.2133 50.7173 59.3337 55.5947 52.9579 55.9787L52.2666 56C45.9375 56 40.8333 51.2347 40.8333 45.3867V34.3307C38.7264 33.8324 36.814 32.8052 35.3121 31.3653L35 31.0507L34.6879 31.3653C33.1868 32.8048 31.2754 33.8319 29.1696 34.3307L29.1666 45.3867C29.1666 51.2347 24.0625 56 17.7362 56L16.9546 55.9733C10.6691 55.5947 5.79247 50.7173 5.83914 44.8667C5.87414 39.7858 6.54692 35.288 7.85747 31.3733C10.8062 22.5547 13.9125 17.7413 19.005 14.3733L19.5533 14.0613C20.5038 13.5827 21.5715 13.3322 22.6566 13.3333C26.2646 13.3333 29.1666 16.04 29.1666 19.352L29.1696 28.6187C30.0558 28.1502 30.7916 27.4769 31.303 26.6661C31.8145 25.8554 32.0836 24.9359 32.0833 24V10.6667C32.0833 9.95942 32.3906 9.28115 32.9376 8.78105C33.4846 8.28095 34.2264 8 35 8Z" fill="white"/>
</g>
<defs>
<clipPath id="clip0_77_12">
<rect width="70" height="64" fill="white"/>
</clipPath>
</defs>
</svg>
