<svg width="56" height="58" viewBox="0 0 56 58" fill="none" xmlns="http://www.w3.org/2000/svg">
<g clip-path="url(#clip0_144_6)">
<path d="M7 12.0833C7 11.4424 7.24583 10.8277 7.68342 10.3745C8.121 9.92128 8.71449 9.66667 9.33333 9.66667H46.6667C47.2855 9.66667 47.879 9.92128 48.3166 10.3745C48.7542 10.8277 49 11.4424 49 12.0833V36.25C49 36.8909 48.7542 37.5056 48.3166 37.9588C47.879 38.4121 47.2855 38.6667 46.6667 38.6667H9.33333C8.71449 38.6667 8.121 38.4121 7.68342 37.9588C7.24583 37.5056 7 36.8909 7 36.25V12.0833Z" stroke="white" stroke-width="2" stroke-linecap="round" stroke-linejoin="round"/>
<path d="M16.3333 48.3333H39.6666" stroke="white" stroke-width="2" stroke-linecap="round" stroke-linejoin="round"/>
<path d="M21 38.6667V48.3333" stroke="white" stroke-width="2" stroke-linecap="round" stroke-linejoin="round"/>
<path d="M35 38.6667V48.3333" stroke="white" stroke-width="2" stroke-linecap="round" stroke-linejoin="round"/>
<path d="M16.3333 24.1667H20.9999L25.6666 31.4167L30.3333 16.9167L32.6666 24.1667H39.6666" stroke="white" stroke-width="2" stroke-linecap="round" stroke-linejoin="round"/>
</g>
<defs>
<clipPath id="clip0_144_6">
<rect width="56" height="58" fill="white"/>
</clipPath>
</defs>
</svg>
