<svg width="56" height="58" viewBox="0 0 56 58" fill="none" xmlns="http://www.w3.org/2000/svg">
<g clip-path="url(#clip0_144_2)">
<path d="M45.4999 32.799L27.9999 50.75L21.2426 43.819M6.9696 24.2343C6.9501 21.6856 7.70925 19.1958 9.13848 17.1209C10.5677 15.046 12.5938 13.4923 14.9271 12.6821C17.2603 11.8718 19.7812 11.8465 22.1292 12.6096C24.4772 13.3728 26.5321 14.8854 27.9999 16.9312C28.9649 15.6021 30.1843 14.4935 31.5818 13.675C32.9794 12.8564 34.5251 12.3454 36.1221 12.174C37.7191 12.0026 39.3331 12.1744 40.8631 12.6788C42.393 13.1831 43.806 14.0091 45.0136 15.105C46.2211 16.201 47.1973 17.5433 47.8809 19.0479C48.5646 20.5525 48.941 22.1871 48.9867 23.8494C49.0323 25.5116 48.7462 27.1657 48.1462 28.7082C47.5463 30.2506 46.6454 31.6482 45.4999 32.8135" stroke="white" stroke-width="2" stroke-linecap="round" stroke-linejoin="round"/>
<path d="M7 31.4167H11.6667L16.3333 38.6667L21 24.1667L23.3333 31.4167H30.3333" stroke="white" stroke-width="2" stroke-linecap="round" stroke-linejoin="round"/>
</g>
<defs>
<clipPath id="clip0_144_2">
<rect width="56" height="58" fill="white"/>
</clipPath>
</defs>
</svg>
