<svg width="68" height="71" viewBox="0 0 68 71" fill="none" xmlns="http://www.w3.org/2000/svg">
<ellipse cx="34" cy="35.5" rx="34" ry="35.5" fill="#4F518C"/>
<g clip-path="url(#clip0_62_2)">
<path d="M16.625 31.1667C16.625 32.9286 16.9645 34.6732 17.6241 36.301C18.2837 37.9288 19.2505 39.4078 20.4692 40.6537C21.688 41.8995 23.1349 42.8878 24.7273 43.5621C26.3197 44.2363 28.0264 44.5833 29.75 44.5833C31.4736 44.5833 33.1803 44.2363 34.7727 43.5621C36.3651 42.8878 37.812 41.8995 39.0308 40.6537C40.2495 39.4078 41.2163 37.9288 41.8759 36.301C42.5355 34.6732 42.875 32.9286 42.875 31.1667C42.875 29.4048 42.5355 27.6601 41.8759 26.0323C41.2163 24.4045 40.2495 22.9255 39.0308 21.6797C37.812 20.4338 36.3651 19.4455 34.7727 18.7713C33.1803 18.097 31.4736 17.75 29.75 17.75C28.0264 17.75 26.3197 18.097 24.7273 18.7713C23.1349 19.4455 21.688 20.4338 20.4692 21.6797C19.2505 22.9255 18.2837 24.4045 17.6241 26.0323C16.9645 27.6601 16.625 29.4048 16.625 31.1667Z" stroke="white" stroke-width="2" stroke-linecap="round" stroke-linejoin="round"/>
<path d="M50.375 52.25L39.125 40.75" stroke="white" stroke-width="2" stroke-linecap="round" stroke-linejoin="round"/>
</g>
<defs>
<clipPath id="clip0_62_2">
<rect width="45" height="46" fill="white" transform="translate(11 12)"/>
</clipPath>
</defs>
</svg>
