<svg width="52" height="53" viewBox="0 0 52 53" fill="none" xmlns="http://www.w3.org/2000/svg">
<g clip-path="url(#clip0_97_46)">
<path d="M19.5 11.0417H15.1667C14.0174 11.0417 12.9152 11.5071 12.1026 12.3354C11.2899 13.1636 10.8334 14.287 10.8334 15.4584V41.9584C10.8334 43.1298 11.2899 44.2532 12.1026 45.0815C12.9152 45.9098 14.0174 46.3751 15.1667 46.3751H36.8334C37.9826 46.3751 39.0848 45.9098 39.8975 45.0815C40.7102 44.2532 41.1667 43.1298 41.1667 41.9584V15.4584C41.1667 14.287 40.7102 13.1636 39.8975 12.3354C39.0848 11.5071 37.9826 11.0417 36.8334 11.0417H32.5" stroke="#6978F8" stroke-width="2" stroke-linecap="round" stroke-linejoin="round"/>
<path d="M19.5 11.0417C19.5 9.87029 19.9565 8.7469 20.7692 7.91861C21.5819 7.09033 22.6841 6.625 23.8333 6.625H28.1667C29.3159 6.625 30.4181 7.09033 31.2308 7.91861C32.0435 8.7469 32.5 9.87029 32.5 11.0417C32.5 12.213 32.0435 13.3364 31.2308 14.1647C30.4181 14.993 29.3159 15.4583 28.1667 15.4583H23.8333C22.6841 15.4583 21.5819 14.993 20.7692 14.1647C19.9565 13.3364 19.5 12.213 19.5 11.0417Z" stroke="#6978F8" stroke-width="2" stroke-linecap="round" stroke-linejoin="round"/>
<path d="M25.9848 36.9895L31.9366 30.7731C32.6728 29.9917 33.084 28.9503 33.084 27.8669C33.084 26.7836 32.6728 25.7422 31.9366 24.9608C31.5777 24.58 31.1471 24.2771 30.6705 24.0702C30.194 23.8633 29.6813 23.7566 29.1633 23.7566C28.6453 23.7566 28.1326 23.8633 27.656 24.0702C27.1795 24.2771 26.7488 24.58 26.39 24.9608L25.9935 25.3759L25.597 24.9585C25.2381 24.5778 24.8074 24.2749 24.3309 24.068C23.8543 23.8611 23.3416 23.7544 22.8236 23.7544C22.3056 23.7544 21.7929 23.8611 21.3164 24.068C20.8398 24.2749 20.4092 24.5778 20.0503 24.9585C19.3136 25.7397 18.9021 26.7812 18.9021 27.8647C18.9021 28.9482 19.3136 29.9897 20.0503 30.7709L25.9826 37.0094L25.9848 36.9895Z" stroke="#6978F8" stroke-width="2" stroke-linecap="round" stroke-linejoin="round"/>
</g>
<defs>
<clipPath id="clip0_97_46">
<rect width="52" height="53" fill="white"/>
</clipPath>
</defs>
</svg>
