<svg width="52" height="53" viewBox="0 0 52 53" fill="none" xmlns="http://www.w3.org/2000/svg">
<g clip-path="url(#clip0_97_54)">
<path d="M13 8.83325H10.8333C9.68406 8.83325 8.58186 9.29858 7.7692 10.1269C6.95655 10.9551 6.5 12.0785 6.5 13.2499V20.9791C6.5 24.2004 7.7555 27.2897 9.99031 29.5675C12.2251 31.8453 15.2562 33.1249 18.4167 33.1249C21.5772 33.1249 24.6082 31.8453 26.843 29.5675C29.0778 27.2897 30.3333 24.2004 30.3333 20.9791V13.2499C30.3333 12.0785 29.8768 10.9551 29.0641 10.1269C28.2515 9.29858 27.1493 8.83325 26 8.83325H23.8333" stroke="#6978F8" stroke-width="2" stroke-linecap="round" stroke-linejoin="round"/>
<path d="M17.3334 33.125C17.3334 34.865 17.6696 36.588 18.3229 38.1956C18.9763 39.8031 19.9338 41.2638 21.141 42.4942C22.3481 43.7245 23.7813 44.7005 25.3585 45.3664C26.9357 46.0323 28.6262 46.375 30.3334 46.375C32.0406 46.375 33.731 46.0323 35.3083 45.3664C36.8855 44.7005 38.3186 43.7245 39.5258 42.4942C40.7329 41.2638 41.6905 39.8031 42.3438 38.1956C42.9971 36.588 43.3334 34.865 43.3334 33.125V26.5" stroke="#6978F8" stroke-width="2" stroke-linecap="round" stroke-linejoin="round"/>
<path d="M23.8334 6.625V11.0417" stroke="#6978F8" stroke-width="2" stroke-linecap="round" stroke-linejoin="round"/>
<path d="M13 6.625V11.0417" stroke="#6978F8" stroke-width="2" stroke-linecap="round" stroke-linejoin="round"/>
<path d="M39 22.0834C39 23.2548 39.4565 24.3782 40.2692 25.2065C41.0819 26.0348 42.1841 26.5001 43.3333 26.5001C44.4826 26.5001 45.5848 26.0348 46.3975 25.2065C47.2101 24.3782 47.6667 23.2548 47.6667 22.0834C47.6667 20.912 47.2101 19.7886 46.3975 18.9604C45.5848 18.1321 44.4826 17.6667 43.3333 17.6667C42.1841 17.6667 41.0819 18.1321 40.2692 18.9604C39.4565 19.7886 39 20.912 39 22.0834Z" stroke="#6978F8" stroke-width="2" stroke-linecap="round" stroke-linejoin="round"/>
</g>
<defs>
<clipPath id="clip0_97_54">
<rect width="52" height="53" fill="white"/>
</clipPath>
</defs>
</svg>
