<svg width="34" height="34" viewBox="0 0 34 34" fill="none" xmlns="http://www.w3.org/2000/svg">
<circle cx="17" cy="17" r="17" fill="#6978F8"/>
<path d="M15 7C15.1793 6.99995 15.3553 7.05064 15.5096 7.14676C15.6639 7.24288 15.7908 7.3809 15.877 7.54637L15.928 7.66217L17.928 12.9259C18.0086 13.1377 18.0216 13.3712 17.9651 13.5915C17.9087 13.8117 17.7858 14.0067 17.615 14.1471L17.515 14.2187L15.841 15.2756L15.904 15.384C16.7008 16.7158 17.771 17.8424 19.036 18.6812L19.138 18.7465L20.143 16.9863C20.2544 16.7906 20.4231 16.6383 20.6239 16.5522C20.8246 16.4662 21.0464 16.4512 21.256 16.5094L21.371 16.5505L26.371 18.656C26.5375 18.7259 26.6831 18.8416 26.7925 18.9911C26.9019 19.1406 26.9712 19.3182 26.993 19.5055L27 19.6329V23.8439C27 25.5883 25.657 27.0021 23.94 27C15.361 26.4515 8.522 19.2518 8 10.1582C7.99996 9.35266 8.29233 8.57752 8.81728 7.99141C9.34224 7.4053 10.0601 7.05252 10.824 7.00526L11 7H15Z" fill="white"/>
</svg>
