<svg width="34" height="34" viewBox="0 0 34 34" fill="none" xmlns="http://www.w3.org/2000/svg">
<circle cx="17" cy="17" r="17" fill="#6978F8"/>
<g clip-path="url(#clip0_215_7)">
<g filter="url(#filter0_d_215_7)">
<path d="M17 7C17.9889 7 18.9556 7.29324 19.7779 7.84265C20.6001 8.39206 21.241 9.17295 21.6194 10.0866C21.9978 11.0002 22.0969 12.0055 21.9039 12.9755C21.711 13.9454 21.2348 14.8363 20.5355 15.5355C19.8363 16.2348 18.9454 16.711 17.9755 16.9039C17.0055 17.0969 16.0002 16.9978 15.0866 16.6194C14.173 16.241 13.3921 15.6001 12.8427 14.7779C12.2932 13.9556 12 12.9889 12 12L12.005 11.783C12.0609 10.4958 12.6116 9.27978 13.5422 8.38866C14.4728 7.49754 15.7115 7.00007 17 7Z" fill="white"/>
</g>
<path d="M19 19C20.3261 19 21.5979 19.5268 22.5355 20.4645C23.4732 21.4021 24 22.6739 24 24V25C24 25.5304 23.7893 26.0391 23.4142 26.4142C23.0391 26.7893 22.5304 27 22 27H12C11.4696 27 10.9609 26.7893 10.5858 26.4142C10.2107 26.0391 10 25.5304 10 25V24C10 22.6739 10.5268 21.4021 11.4645 20.4645C12.4021 19.5268 13.6739 19 15 19H19Z" fill="white"/>
</g>
<defs>
<filter id="filter0_d_215_7" x="8" y="7" width="18" height="18" filterUnits="userSpaceOnUse" color-interpolation-filters="sRGB">
<feFlood flood-opacity="0" result="BackgroundImageFix"/>
<feColorMatrix in="SourceAlpha" type="matrix" values="0 0 0 0 0 0 0 0 0 0 0 0 0 0 0 0 0 0 127 0" result="hardAlpha"/>
<feOffset dy="4"/>
<feGaussianBlur stdDeviation="2"/>
<feComposite in2="hardAlpha" operator="out"/>
<feColorMatrix type="matrix" values="0 0 0 0 0 0 0 0 0 0 0 0 0 0 0 0 0 0 0.25 0"/>
<feBlend mode="normal" in2="BackgroundImageFix" result="effect1_dropShadow_215_7"/>
<feBlend mode="normal" in="SourceGraphic" in2="effect1_dropShadow_215_7" result="shape"/>
</filter>
<clipPath id="clip0_215_7">
<rect width="24" height="24" fill="white" transform="translate(5 5)"/>
</clipPath>
</defs>
</svg>
