<svg width="96" height="90" viewBox="0 0 96 90" fill="none" xmlns="http://www.w3.org/2000/svg">
<path d="M51.1586 89.7099C41.1095 90.5309 35.4904 86.8328 32.3116 77.5065C32.2367 77.2866 32.0538 77.1032 31.8347 76.7719C30.231 83.1767 26.5738 87.5669 20.1694 89.3934C10.3682 92.1886 0.194719 84.9797 0.111672 74.8326C-0.051956 54.8361 -0.0151814 34.8369 0.0904077 14.8396C0.130683 7.21303 6.80995 0.753108 14.8753 0.0828986C22.5637 -0.555988 29.817 4.82475 31.5403 12.4499C31.6123 12.7687 31.6442 13.0964 31.7586 13.8285C34.3859 4.8013 39.8439 -0.351049 49.2748 0.156974C56.5706 0.549986 61.5567 5.31012 63.8577 13.6134C64.1937 12.6643 64.4057 12.1196 64.5806 11.5632C66.9437 4.04876 74.3924 -0.909472 81.7501 0.139852C90.0508 1.32366 95.8648 7.51176 95.9178 15.7788C96.0422 35.1975 96.0011 54.6175 95.952 74.0369C95.932 81.932 90.1347 88.7457 82.7669 89.7955C74.4388 90.9822 67.0576 86.3967 64.5976 78.5044C64.4572 78.0538 64.3466 77.594 64.0222 76.4068C62.0681 83.5672 58.0345 87.9396 51.1586 89.7099ZM48.2058 86.2945C55.1636 85.5965 59.6232 81.7563 60.0679 74.9023C60.5747 67.0914 60.2825 59.2292 60.3338 51.3892C60.3433 49.9268 60.3352 48.4642 60.3352 46.9199C51.9608 46.9199 43.8892 46.9199 35.6947 46.9199C35.6947 56.5051 35.3598 65.9186 35.8097 75.295C36.1219 81.8015 41.0925 85.8638 48.2058 86.2945ZM67.8369 27.0752C67.8369 32.4018 67.8369 37.7284 67.8369 43.0552C69.2022 43.0552 70.1611 43.0552 71.2362 43.0552C71.2907 42.5306 71.3669 42.1345 71.3677 41.7382C71.3781 36.7015 71.3814 31.6648 71.3773 26.6282C71.3763 25.3318 71.7304 24.0796 73.2505 24.4215C73.9603 24.5811 74.8383 25.7749 74.922 26.5744C75.1529 28.78 75.0063 31.0249 75.007 33.2542C75.008 36.5223 75.0072 39.7903 75.0072 43.0049C80.9863 43.0049 86.5816 43.0049 92.309 43.0049C92.309 33.7407 92.329 24.6694 92.282 15.5985C92.2766 14.5462 91.9838 13.4711 91.6811 12.4485C89.8954 6.41575 84.1371 3.02431 77.4603 4.02943C72.2085 4.82005 67.9133 9.99521 67.8472 15.6801C67.805 19.3127 67.8376 22.9461 67.8369 27.0752ZM25.9017 8.94634C22.1191 4.28278 17.022 2.62954 11.9829 4.43169C6.69152 6.32403 3.65539 10.7739 3.6513 16.6675C3.64577 24.6029 3.64994 32.5383 3.64994 40.4737C3.64994 41.3427 3.64993 42.2116 3.64993 43.2178C4.84703 43.1612 5.64877 43.1233 6.58952 43.0788C6.63215 42.1322 6.69811 41.3242 6.70004 40.5161C6.71077 36.0525 6.70343 31.5888 6.70782 27.1251C6.70919 25.7208 6.90545 24.137 8.69931 24.454C9.45404 24.5874 10.4052 26.1019 10.4868 27.0547C10.7259 29.8449 10.573 32.6684 10.5733 35.4788C10.5736 38.0032 10.5734 40.5275 10.5734 43.0022C16.6405 43.0022 22.3253 43.0022 28.0705 43.0022C28.0705 33.4723 28.1754 24.135 27.9819 14.8039C27.9433 12.9398 26.7662 11.0991 25.9017 8.94634Z" fill="#6978F8"/>
</svg>
